{
.appVersion = "3134";
.formatVersion = 3;
date = "2023-12-14 17:03:46 +0000";
familyName = "Augmented Far Eastern Script";
featurePrefixes = (
{
automatic = 1;
code = "languagesystem DFLT dflt;
";
name = Languagesystems;
}
);
features = (
{
automatic = 1;
code = "feature vert;
feature vkna;
feature vrt2;
";
tag = aalt;
},
{
code = "# a
sub a-hira a-hira by a_a-hira;
sub a-hira i-hira by a_i-hira;
sub a-hira u-hira by a_u-hira;
sub a-hira e-hira by a_e-hira;
sub a-hira o-hira by a_o-hira;
# i
sub i-hira a-hira by i_a-hira;
sub i-hira i-hira by i_i-hira;
sub i-hira u-hira by i_u-hira;
sub i-hira e-hira by i_e-hira;
sub i-hira o-hira by i_o-hira;
# u
sub u-hira a-hira by u_a-hira;
sub u-hira i-hira by u_i-hira;
sub u-hira u-hira by u_u-hira;
sub u-hira e-hira by u_e-hira;
sub u-hira o-hira by u_o-hira;
# e
sub e-hira a-hira by e_a-hira;
sub e-hira i-hira by e_i-hira;
sub e-hira u-hira by e_u-hira;
sub e-hira e-hira by e_e-hira;
sub e-hira o-hira by e_o-hira;
# o
sub o-hira a-hira by o_a-hira;
sub o-hira i-hira by o_i-hira;
sub o-hira u-hira by o_u-hira;
sub o-hira e-hira by o_e-hira;
sub o-hira o-hira by o_o-hira;";
tag = liga;
},
{
code = "sub yo-hira ri-hira by digraphyori-hira;
sub ko-hira to-hira by digraphkoto-kata;
sub na-hira ri-hira by digraphnari-hira.dlig;
sub do-hira ma-hira by do_ma-kata.dlig;
sub sa-hira bu-hira ra-hira i-hira by sa_bu_ra_i-hira.dlig;";
tag = dlig;
},
{
automatic = 1;
code = "sub asmall-hira by asmall-hira.vert;
sub comma-han by comma-han.vert;
sub period-han by period-han.vert;
";
tag = vert;
},
{
automatic = 1;
code = "sub asmall-hira by asmall-hira.vert;
";
tag = vkna;
},
{
automatic = 1;
code = "sub asmall-hira by asmall-hira.vert;
sub comma-han by comma-han.vert;
sub period-han by period-han.vert;
";
tag = vrt2;
}
);
fontMaster = (
{
customParameters = (
{
name = "CJK Guide";
value = "kana:70";
},
{
name = "CJK Grid Vertical";
value = "5";
},
{
name = "CJK Grid Horizontal";
value = "5";
}
);
guides = (
{
pos = (331,673);
},
{

glyphs = (
{
glyphname = "iterationmark-han";
lastChange = "2023-12-28 04:16:10 +0000";
layers = (
{
backgroundImage = {
imagePath = "images/々.png";
locked = 1;
pos = (-66,-200);
};
layerId = m01;
shapes = (
{
closed = 1;
nodes = (
(506,238,l),
(357,255,o),
(316,353,o),
(322,418,cs),
(326,460,o),
(339,470,o),
(351,470,cs),
(357,470,o),
(376,463,o),
(382,463,cs),
(393,463,o),
(402,476,o),
(402,491,cs),
(402,528,o),
(326,568,o),
(281,568,c),
(266,554,l),
(287,542,o),
(299,528,o),
(280,460,cs),
(250,353,o),
(351,215,o),
(467,208,c)
);
},
{
closed = 1;
nodes = (
(437,210,o),
(421,197,cs),
(328,124,o),
(272,33,o),
(272,-10,c),
(283,-13,l),
(287,33,o),
(397,145,o),
(454,162,cs),
(494,174,o),
(520,163,o),
(536,163,cs),
(546,163,o),
(588,185,o),
(588,199,cs),
(588,205,o),
(533,247,o),
(513,255,cs),
(499,261,o)
);
}
);
width = 800;
}
);
unicode = 12293;
},
{
glyphname = uni4EBA;
lastChange = "2023-12-28 04:13:41 +0000";
layers = (
{
backgroundImage = {
imagePath = "images/dlig_人.png";
locked = 1;
pos = (-87,-200);
};
layerId = m01;
shapes = (
{
closed = 1;
nodes = (
(390,485,o),
(367,464,o),
(367,435,cs),
(367,406,o),
(394,390,o),
(415,390,cs),
(436,390,o),
(463,411,o),
(463,432,cs),
(463,462,o),
(444,485,o),
(414,485,cs)
);
},
{
closed = 1;
nodes = (
(397,614,o),
(384,604,o),
(364,580,cs),
(350,563,o),
(436,563,o),
(469,550,cs),
(504,536,o),
(547,499,o),
(515,437,cs),
(490,389,o),
(457,332,o),
(450,253,cs),
(442,161,o),
(480,30,o),
(633,0,cs),
(703,-14,o),
(760,2,o),
(786,22,c),
(779,36,l),
(633,12,o),
(509,134,o),
(522,253,cs),
(529,318,o),
(571,371,o),
(600,435,cs),
(629,497,o),
(609,561,o),
(546,588,cs),
(499,608,o),
(445,614,o),
(417,614,cs)
);
},
{
closed = 1;
nodes = (
(276,417,o),
(224,357,o),
(212,337,cs),
(200,317,o),
(219,311,o),
(230,311,cs),
(241,311,o),
(263,310,o),
(289,275,cs),
(346,199,o),
(320,131,o),
(249,102,cs),
(220,90,o),
(203,122,o),
(204,148,cs),
(205,193,o),
(174,234,o),
(129,234,cs),
(100,234,o),
(70,231,o),
(27,182,c),
(38,171,l),
(59,188,o),
(85,197,o),
(109,197,cs),
(133,197,o),
(170,177,o),
(164,121,cs),
(158,65,o),
(198,21,o),
(235,21,cs),
(269,21,o),
(316,49,o),
(376,181,cs),
(394,221,o),
(361,342,o),
(292,403,cs)
);
},
{
closed = 1;
nodes = (
(312,279,l),
(359,300,o),
(435,269,o),
(469,193,c),
(486,245,l),
(451,276,o),
(388,365,o),
(310,374,c)
);
}
);
width = 800;
}
);
unicode = 20154;
},
{
glyphname = uni5730;
lastChange = "2023-12-28 04:13:41 +0000";
layers = (
{
backgroundImage = {
imagePath = "images/dlig_地.png";
locked = 1;
pos = (-44,-376);
};
layerId = m01;
shapes = (
{
closed = 1;
nodes = (
(381,527,o),
(287,447,o),
(270,429,cs),
(256,415,o),
(277,417,o),
(294,427,cs),
(328,447,o),
(360,409,o),
(349,374,cs),
(335,329,o),
(227,261,o),
(206,282,cs),
(183,305,o),
(399,378,o),
(513,393,cs),
(614,406,o),
(679,395,o),
(702,405,cs),
(709,408,o),
(654,449,o),
(639,445,cs),
(571,427,o),
(47,321,o),
(112,242,cs),
(141,206,o),
(311,282,o),
(418,355,cs),
(460,383,o),
(481,424,o),
(481,445,cs),
(481,461,o),
(426,527,o),
(394,527,cs)
);
},
{
closed = 1;
nodes = (
(534,392,o),
(405,306,o),
(375,271,cs),
(365,259,o),
(351,242,o),
(350,212,cs),
(349,181,o),
(349,85,o),
(349,55,cs),
(349,8,o),
(346,-12,o),
(323,0,cs),
(279,22,o),
(223,81,o),
(198,112,c),
(188,105,l),
(224,16,o),
(345,-63,o),
(390,-110,cs),
(414,-135,o),
(443,-126,o),
(440,-63,cs),
(437,0,o),
(435,169,o),
(435,213,cs),
(435,293,o),
(556,370,o),
(604,408,c),
(585,421,l)
);
},
{
closed = 1;
nodes = (
(254,242,o),
(250,237,o),
(257,219,cs),
(267,192,o),
(262,146,o),
(257,125,cs),
(254,114,o),
(281,88,o),
(294,88,cs),
(306,88,o),
(313,100,o),
(310,115,cs),
(304,146,o),
(306,186,o),
(314,205,cs),
(318,214,o),
(304,231,o),
(268,239,cs)
);
},
{
closed = 1;
nodes = (
(395,743,o),
(373,661,o),
(323,639,cs),
(286,622,o),
(394,590,o),
(394,579,cs),
(394,568,o),
(388,561,o),
(385,558,c),
(396,550,l),
(432,568,o),
(480,619,o),
(480,634,cs),
(480,660,o),
(420,709,o),
(402,734,cs)
);
},
{
closed = 1;
nodes = (
(538,263,o),
(525,193,o),
(474,173,cs),
(437,156,o),
(528,108,o),
(528,98,cs),
(528,87,o),
(522,80,o),
(519,78,c),
(530,70,l),
(567,87,o),
(624,146,o),
(624,160,cs),
(624,184,o),
(563,231,o),
(545,255,cs)
);
}
);
width = 800;
}
);
unicode = 22320;
},
{
glyphname = uni5929;
lastChange = "2023-12-28 04:13:41 +0000";
layers = (
{
backgroundImage = {
imagePath = "images/dlig_天.png";
locked = 1;
pos = (-10,-226);
};
layerId = m01;
shapes = (
{
closed = 1;
nodes = (
(415,735,o),
(359,661,o),
(359,641,cs),
(359,595,o),
(414,570,o),
(414,558,cs),
(414,546,o),
(408,539,o),
(405,536,c),
(416,527,l),
(452,546,o),
(490,601,o),
(490,617,cs),
(490,645,o),
(440,698,o),
(422,725,cs)
);
},
{
closed = 1;
nodes = (
(191,538,o),
(169,517,o),
(169,508,cs),
(169,490,o),
(198,456,o),
(237,409,cs),
(266,374,o),
(271,230,o),
(253,142,cs),
(227,13,o),
(127,-133,o),
(34,-181,c),
(48,-199,l),
(148,-160,o),
(259,-31,o),
(303,87,cs),
(332,166,o),
(349,338,o),
(314,411,cs),
(288,466,o),
(218,538,o),
(198,538,cs)
);
},
{
closed = 1;
nodes = (
(240,466,o),
(265,410,o),
(281,410,cs),
(297,410,o),
(322,444,o),
(341,444,cs),
(360,444,o),
(542,464,o),
(576,452,c),
(617,467,l),
(607,477,o),
(617,497,o),
(587,497,cs),
(557,497,o),
(254,486,o),
(219,494,c)
);
},
{
closed = 1;
nodes = (
(604,555,o),
(532,430,o),
(512,358,cs),
(492,286,o),
(518,230,o),
(539,198,cs),
(553,177,o),
(557,167,o),
(540,167,cs),
(522,167,o),
(415,163,o),
(383,169,cs),
(376,170,o),
(366,168,o),
(366,162,cs),
(366,150,o),
(376,140,o),
(391,142,cs),
(396,143,o),
(406,144,o),
(422,144,cs),
(472,144,o),
(569,143,o),
(603,143,cs),
(618,143,o),
(624,134,o),
(630,134,cs),
(636,134,o),
(643,155,o),
(643,167,cs),
(643,174,o),
(559,236,o),
(587,346,cs),
(610,435,o),
(667,490,o),
(680,490,cs),
(689,490,o),
(699,495,o),
(699,506,cs),
(699,512,o),
(635,555,o),
(621,555,cs)
);
},
{
closed = 1;
nodes = (
(399,154,l),
(467,154,l),
(467,468,l),
(399,468,l)
);
}
);
width = 800;
}
);
unicode = 22825;
},
{
glyphname = "a-hira";
lastChange = "2023-12-28 05:40:56 +0000";
layers = (
{
backgroundImage = {
imagePath = "images/あ.png";
locked = 1;
pos = (54,-137);
};
hints = (
{
place = (387, 28);
place = (387, 28);
type = Stem;
}
);
layerId = m01;
shapes = (
{
closed = 1;
nodes = (
(325,666,l),
(346,639,o),
(386,596,o),
(386,540,cs),
(386,418,o),
(390,150,o),
(380,78,cs),
(377,57,o),
(371,45,o),
(370,39,cs),
(369,33,o),
(376,12,o),
(381,0,cs),
(386,-12,o),
(399,-25,o),
(405,-25,cs),
(411,-25,o),
(417,-15,o),
(415,20,cs),
(409,153,o),
(405,403,o),
(411,506,cs),
(415,563,o),
(424,568,o),
(435,568,cs),
(446,568,o),
(457,575,o),
(457,580,cs),
(457,589,o),
(452,604,o),
(441,613,cs),
(433,620,o),
(403,645,o),
(331,673,c)
);
},
{
closed = 1;
nodes = (
(477,411,l),
(492,399,o),
(503,382,o),
(492,366,cs),
(433,275,o),
(224,185,o),
(160,172,c),
(163,164,l),
(341,196,o),
(411,256,o),
(509,296,cs),
(526,303,o),
(539,306,o),
(553,306,cs),
(565,306,o),
(580,322,o),
(559,356,cs),
(543,382,o),
(505,411,o),
(486,415,c)
);
}
);
width = 800;
}
);
tags = (
hira
);
unicode = (12354,12450);
},
{
color = 1;
glyphname = "asmall-hira";
lastChange = "2023-12-28 05:35:26 +0000";
layers = (
{
backgroundImage = {
imagePath = "images/すてがな_ぁ.png";
locked = 1;
pos = (159,-160);
};
hints = (
{
origin = (0,5);
target = (0,37);
type = Stem;
},
{
horizontal = 1;
origin = (0,12);
target = (0,25);
type = Stem;
},
{
origin = (0,15);
place = (482, 40);
type = Stem;
}
);
layerId = m01;
shapes = (
{
closed = 1;
nodes = (
(356,448,l),
(367,438,o),
(374,430,o),
(380,417,cs),
(386,404,o),
(389,245,o),
(388,218,cs),
(387,191,o),
(384,190,o),
(373,195,cs),
(317,222,o),
(336,271,o),
(418,294,cs),
(459,305,o),
(482,284,o),
(482,244,cs),
(482,164,o),
(360,38,o),
(255,9,c),
(265,-2,l),
(402,34,o),
(497,139,o),
(520,222,cs),
(537,285,o),
(492,327,o),
(445,323,cs),
(356,315,o),
(301,247,o),
(301,211,cs),
(301,174,o),
(384,155,o),
(393,147,cs),
(402,139,o),
(409,138,o),
(413,145,cs),
(417,152,o),
(410,175,o),
(410,193,cs),
(410,211,o),
(408,340,o),
(414,359,cs),
(420,378,o),
(435,381,o),
(441,381,cs),
(447,381,o),
(462,383,o),
(462,393,cs),
(462,413,o),
(440,422,o),
(373,464,c)
);
}
);
width = 800;
}
);
tags = (
sutegana
);
unicode = (12353,12449);
},
{
glyphname = "i-hira";
lastChange = "2023-12-28 04:19:35 +0000";
layers = (
{
backgroundImage = {
imagePath = "images/い.png";
locked = 1;
pos = (49,-160);
};
hints = (
{
place = (387, 32);
place = (387, 32);
type = Stem;
}
);
layerId = m01;
shapes = (
{
closed = 1;
nodes = (
(323,631,l),
(341,620,o),
(372,588,o),
(381,532,cs),
(392,465,o),
(384,131,o),
(382,93,cs),
(380,49,o),
(375,40,o),
(369,32,cs),
(354,14,o),
(365,-20,o),
(397,-50,cs),
(406,-58,o),
(440,-59,o),
(440,-41,cs),
(440,-32,o),
(437,-23,o),
(427,-10,cs),
(421,-2,o),
(409,27,o),
(406,91,cs),
(402,171,o),
(410,398,o),
(415,498,cs),
(417,542,o),
(435,550,o),
(444,551,cs),
(453,552,o),
(463,557,o),
(463,568,cs),
(463,575,o),
(459,584,o),
(453,589,cs),
(440,599,o),
(405,621,o),
(338,644,c)
);
},
{
closed = 1;
nodes = (
(569,466,o),
(528,495,cs),
(515,503,o),
(518,480,o),
(503,455,cs),
(498,446,o),
(460,405,o),
(444,334,cs),
(402,148,o),
(590,20,o),
(706,36,c),
(703,48,l),
(579,43,o),
(446,193,o),
(482,315,cs),
(502,382,o),
(530,409,o),
(552,409,cs),
(571,409,o),
(586,393,o),
(592,393,cs),
(601,393,o),
(611,398,o),
(614,403,cs),
(617,408,o),
(617,421,o),
(601,436,cs),
(590,446,o)
);
}
);
width = 800;
}
);
tags = (
hira
);
unicode = (12356,12452);
},
{
color = 1;
glyphname = "ismall-hira";
lastChange = "2023-12-28 04:33:06 +0000";
layers = (
{
backgroundImage = {
imagePath = "images/すてがな_ぃ.png";
locked = 1;
pos = (181,-160);
};
hints = (
{
place = (166, 241);
place = (166, 241);
target = (1,18);
type = Stem;
}
);
layerId = m01;
shapes = (
{
closed = 1;
nodes = (
(313,450,l),
(329,438,o),
(351,418,o),
(354,399,cs),
(364,337,o),
(358,273,o),
(351,219,cs),
(350,210,o),
(347,198,o),
(353,190,cs),
(359,182,o),
(376,157,o),
(387,163,cs),
(394,167,o),
(382,260,o),
(386,362,cs),
(387,381,o),
(406,381,o),
(411,381,cs),
(416,381,o),
(423,392,o),
(423,399,cs),
(423,406,o),
(380,444,o),
(323,460,c)
);
},
{
closed = 1;
nodes = (
(485,331,o),
(472,310,o),
(459,290,cs),
(438,258,o),
(385,230,o),
(372,147,cs),
(357,55,o),
(402,-9,o),
(467,-9,cs),
(496,-9,o),
(532,4,o),
(554,27,c),
(547,37,l),
(524,25,o),
(495,19,o),
(476,19,cs),
(416,19,o),
(399,91,o),
(407,139,cs),
(420,213,o),
(468,235,o),
(488,235,cs),
(509,235,o),
(540,241,o),
(540,254,cs),
(540,274,o),
(490,288,o),
(487,314,cs)
);
}
);
width = 800;
}
);
tags = (
hira,
sutegana
);
unicode = (12355,12451);
},
{
glyphname = "u-hira";
lastChange = "2023-12-28 04:22:32 +0000";
layers = (
{
backgroundImage = {
imagePath = "images/う.png";
locked = 1;
pos = (46,-160);
};
hints = (
{
origin = (0,3);
target = (0,27);
type = Stem;
}
);
layerId = m01;
shapes = (
{
closed = 1;
nodes = (
(352,639,l),
(363,619,o),
(382,591,o),
(384,546,cs),
(390,413,o),
(389,162,o),
(384,78,cs),
(382,34,o),
(377,34,o),
(376,30,cs),
(369,9,o),
(384,-28,o),
(393,-38,cs),
(404,-50,o),
(416,-48,o),
(421,-48,cs),
(426,-48,o),
(439,-45,o),
(444,-21,cs),
(446,-13,o),
(441,-3,o),
(437,8,cs),
(433,19,o),
(421,48,o),
(417,127,cs),
(410,260,o),
(412,413,o),
(415,488,cs),
(416,520,o),
(419,532,o),
(422,534,cs),
(425,536,o),
(451,529,o),
(460,529,cs),
(469,529,o),
(476,537,o),
(476,545,cs),
(476,558,o),
(471,570,o),
(463,581,cs),
(453,595,o),
(425,616,o),
(362,647,c)
);
},
{
closed = 1;
nodes = (
(256,267,o),
(256,257,cs),
(256,228,o),
(294,186,o),
(317,186,cs),
(330,186,o),
(341,218,o),
(381,233,cs),
(415,246,o),
(556,297,o),
(659,347,c),
(654,357,l),
(598,336,o),
(388,267,o),
(334,259,cs),
(322,257,o),
(309,269,o),
(293,296,cs),
(283,312,o)
);
}
);
width = 800;
}
);
tags = (
hira
);
unicode = (12358,12454);
},
{
color = 1;
glyphname = "usmall-hira";
lastChange = "2023-12-28 04:33:06 +0000";
layers = (
{
backgroundImage = {
imagePath = "images/すてがな_ぅ.png";
locked = 1;
pos = (152,-160);
};
hints = (
{
origin = (0,3);
target = (0,22);
type = Stem;
}
);
layerId = m01;
shapes = (
{
closed = 1;
nodes = (
(343,483,l),
(361,464,o),
(374,445,o),
(380,426,cs),
(388,399,o),
(390,304,o),
(389,286,cs),
(388,268,o),
(386,261,o),
(375,270,cs),
(364,279,o),
(348,295,o),
(338,306,c),
(330,295,l),
(343,258,o),
(374,209,o),
(388,186,cs),
(397,171,o),
(421,164,o),
(417,196,cs),
(410,260,o),
(408,386,o),
(414,403,cs),
(420,420,o),
(442,418,o),
(442,430,cs),
(442,438,o),
(408,468,o),
(356,501,c)
);
},
{
closed = 1;
nodes = (
(238,125,o),
(238,115,cs),
(238,103,o),
(274,33,o),
(303,33,cs),
(316,33,o),
(318,66,o),
(335,73,cs),
(399,101,o),
(526,185,o),
(555,214,c),
(550,224,l),
(487,186,o),
(370,122,o),
(308,113,cs),
(296,111,o),
(270,110,o),
(254,137,cs),
(244,153,o)
);
}
);
width = 800;
}
);
tags = (
hira,
sutegana
);
unicode = (12357,12453);
},
{
glyphname = "e-hira";
lastChange = "2023-12-28 04:23:04 +0000";
layers = (
{
backgroundImage = {
imagePath = "images/え.png";
locked = 1;
pos = (45,-160);
};
hints = (
{
place = (381, 35);
place = (381, 35);
target = (0,27);
type = Stem;
}
);
layerId = m01;
shapes = (
{
closed = 1;
nodes = (
(340,646,l),
(354,634,o),
(377,616,o),
(386,559,cs),
(392,518,o),
(395,261,o),
(395,183,cs),
(395,86,o),
(394,39,o),
(388,37,cs),
(382,35,o),
(381,29,o),
(380,22,cs),
(379,8,o),
(385,-13,o),
(398,-30,cs),
(407,-42,o),
(415,-44,o),
(418,-44,cs),
(421,-44,o),
(434,-32,o),
(431,-24,cs),
(426,-10,o),
(412,0,o),
(413,30,cs),
(417,149,o),
(412,490,o),
(416,517,cs),
(420,544,o),
(429,552,o),
(434,552,cs),
(439,552,o),
(456,555,o),
(456,566,cs),
(456,577,o),
(456,597,o),
(445,609,cs),
(424,630,o),
(385,651,o),
(349,655,c)
);
},
{
closed = 1;
nodes = (
(383,603,l),
(346,583,o),
(292,560,o),
(292,524,cs),
(292,481,o),
(358,474,o),
(433,424,cs),
(489,386,o),
(527,330,o),
(523,287,cs),
(520,246,o),
(496,222,o),
(434,217,cs),
(354,212,o),
(177,118,o),
(208,17,c),
(220,21,l),
(220,102,o),
(327,164,o),
(397,171,cs),
(460,177,o),
(522,157,o),
(559,214,cs),
(616,305,o),
(527,377,o),
(463,424,cs),
(394,474,o),
(315,500,o),
(315,530,cs),
(315,552,o),
(361,577,o),
(400,571,c)
);
}
);
width = 800;
}
);
tags = (
hira
);
unicode = (12360,12456);
},
{
color = 1;
glyphname = "esmall-hira";
lastChange = "2023-12-28 04:33:06 +0000";
layers = (
{
backgroundImage = {
imagePath = "images/すてがな_ぇ.png";
locked = 1;
pos = (166,-160);
};
hints = (
{
origin = (0,3);
target = (0,15);
type = Stem;
}
);
layerId = m01;
shapes = (
{
closed = 1;
nodes = (
(346,461,l),
(362,449,o),
(380,435,o),
(383,416,cs),
(388,383,o),
(388,312,o),
(384,275,cs),
(383,266,o),
(382,255,o),
(386,246,cs),
(392,232,o),
(408,205,o),
(421,212,cs),
(425,214,o),
(417,237,o),
(414,274,cs),
(411,312,o),
(412,360,o),
(414,390,cs),
(415,409,o),
(434,409,o),
(439,409,cs),
(444,409,o),
(451,420,o),
(451,427,cs),
(451,434,o),
(413,455,o),
(356,471,c)
);
},
{
closed = 1;
nodes = (
(399,345,l),
(429,345,o),
(491,334,o),
(491,288,cs),
(491,252,o),
(417,237,o),
(333,168,cs),
(286,129,o),
(242,79,o),
(255,6,c),
(269,14,l),
(272,173,o),
(550,209,o),
(550,283,cs),
(550,332,o),
(444,360,o),
(399,360,c)
);
}
);
width = 800;
}
);
tags = (
hira,
sutegana
);
unicode = (12359,12455);
},
{
glyphname = "o-hira";
lastChange = "2023-12-28 04:23:59 +0000";
layers = (
{
backgroundImage = {
imagePath = "images/お.png";
locked = 1;
pos = (46,-160);
};
hints = (
{
origin = (0,3);
target = (0,27);
type = Stem;
}
);
layerId = m01;
shapes = (
{
closed = 1;
nodes = (
(360,639,l),
(366,625,o),
(382,590,o),
(385,555,cs),
(393,480,o),
(389,110,o),
(387,79,cs),
(385,48,o),
(381,48,o),
(378,45,cs),
(376,43,o),
(369,42,o),
(368,39,cs),
(362,24,o),
(373,-3,o),
(386,-18,cs),
(395,-29,o),
(405,-35,o),
(409,-35,cs),
(413,-35,o),
(421,-26,o),
(421,-15,cs),
(421,-4,o),
(413,37,o),
(412,73,cs),
(411,109,o),
(411,439,o),
(414,515,cs),
(415,549,o),
(428,553,o),
(434,554,cs),
(441,555,o),
(450,562,o),
(450,569,cs),
(450,576,o),
(441,590,o),
(436,595,cs),
(429,602,o),
(413,629,o),
(373,651,c)
);
},
{
closed = 1;
nodes = (
(247,416,o),
(236,400,o),
(232,392,cs),
(227,382,o),
(236,321,o),
(287,321,cs),
(303,321,o),
(307,348,o),
(303,349,cs),
(297,351,o),
(291,354,o),
(288,359,cs),
(285,364,o),
(288,382,o),
(295,392,cs),
(309,411,o),
(343,454,o),
(385,454,cs),
(427,454,o),
(457,409,o),
(467,375,cs),
(479,333,o),
(459,262,o),
(459,212,cs),
(459,161,o),
(489,100,o),
(576,100,cs),
(666,100,o),
(744,192,o),
(744,232,c),
(735,241,l),
(727,204,o),
(662,147,o),
(608,147,cs),
(535,147,o),
(507,198,o),
(511,274,cs),
(517,387,o),
(467,473,o),
(376,473,cs),
(324,473,o),
(297,426,o),
(268,418,cs),
(264,417,o),
(256,416,o),
(252,416,cs)
);
}
);
width = 800;
}
);
tags = (
hira
);
unicode = (12362,12458);
},
{
color = 1;
glyphname = "osmall-hira";
lastChange = "2023-12-28 04:33:06 +0000";
layers = (
{
backgroundImage = {
imagePath = "images/すてがな_ぉ.png";
locked = 1;
pos = (194,-160);
};
hints = (
{
origin = (0,3);
place = (377, 30);
type = Stem;
}
);
layerId = m01;
shapes = (
{
closed = 1;
nodes = (
(344,447,l),
(360,428,o),
(374,405,o),
(377,386,cs),
(381,361,o),
(382,268,o),
(381,209,cs),
(381,192,o),
(372,192,o),
(360,195,cs),
(298,209,o),
(314,273,o),
(372,276,cs),
(472,281,o),
(461,219,o),
(450,135,cs),
(439,59,o),
(482,7,o),
(538,7,cs),
(581,7,o),
(614,39,o),
(616,58,c),
(607,67,l),
(595,51,o),
(568,37,o),
(549,37,cs),
(503,37,o),
(482,82,o),
(482,133,cs),
(482,175,o),
(503,282,o),
(412,291,cs),
(323,300,o),
(268,230,o),
(290,194,cs),
(309,163,o),
(338,175,o),
(347,160,cs),
(368,124,o),
(377,107,o),
(402,107,cs),
(414,107,o),
(411,144,o),
(408,181,cs),
(405,219,o),
(403,326,o),
(405,356,cs),
(406,375,o),
(425,375,o),
(430,375,cs),
(435,375,o),
(442,386,o),
(442,393,cs),
(442,400,o),
(411,428,o),
(354,457,c)
);
}
);
width = 800;
}
);
tags = (
hira,
sutegana
);
unicode = (12361,12457);
},
{
glyphname = "ka-hira";
lastChange = "2023-12-28 04:13:41 +0000";
layers = (
{
backgroundImage = {
imagePath = "images/か.png";
locked = 1;
pos = (59,-160);
};
layerId = m01;
shapes = (
{
closed = 1;
nodes = (
(482,632,l),
(491,621,o),
(503,604,o),
(485,578,cs),
(422,487,o),
(254,356,o),
(156,328,c),
(165,319,l),
(331,360,o),
(432,474,o),
(515,532,cs),
(530,543,o),
(543,535,o),
(558,535,cs),
(570,535,o),
(593,555,o),
(570,588,cs),
(553,613,o),
(515,638,o),
(495,641,c)
);
},
{
closed = 1;
nodes = (
(373,434,l),
(409,432,o),
(459,395,o),
(452,385,cs),
(437,364,o),
(351,366,o),
(331,294,cs),
(311,221,o),
(452,183,o),
(481,128,cs),
(523,48,o),
(360,-20,o),
(308,-6,c),
(304,-17,l),
(394,-44,o),
(483,-10,o),
(523,57,cs),
(543,91,o),
(571,160,o),
(504,188,cs),
(459,207,o),
(349,246,o),
(358,289,cs),
(368,336,o),
(458,342,o),
(474,336,cs),
(494,329,o),
(499,318,o),
(504,315,cs),
(514,309,o),
(529,314,o),
(538,322,cs),
(547,330,o),
(551,336,o),
(541,356,cs),
(524,389,o),
(457,440,o),
(401,456,c)
);
},
{
closed = 1;
nodes = (
(316,162,cs),
(310,154,o),
(308,137,o),
(314,123,cs),
(323,102,o),
(343,97,o),
(357,95,cs),
(372,93,o),
(381,96,o),
(386,103,cs),
(391,110,o),
(373,115,o),
(378,127,cs),
(383,139,o),
(391,147,o),
(401,164,c),
(397,168,l),
(389,164,o),
(385,160,o),
(366,149,cs),
(357,144,o),
(337,154,o),
(331,171,cs),
(330,174,o),
(323,171,o)
);
}
);
width = 800;
}
);
tags = (
hira
);
unicode = (12363,12459);
},
{
glyphname = "ki-hira";
lastChange = "2023-12-29 08:19:07 +0000";
layers = (
{
backgroundImage = {
imagePath = "images/き.png";
locked = 1;
pos = (95,-160);
};
layerId = m01;
shapes = (
{
closed = 1;
nodes = (
(386,586,l),
(395,577,o),
(412,564,o),
(413,557,cs),
(414,547,o),
(343,529,o),
(324,485,cs),
(303,436,o),
(322,410,o),
(349,393,cs),
(380,374,o),
(434,376,o),
(453,329,cs),
(467,292,o),
(440,225,o),
(383,178,cs),
(302,111,o),
(217,78,o),
(162,78,c),
(164,70,l),
(298,52,o),
(446,143,o),
(498,250,cs),
(521,298,o),
(529,367,o),
(487,392,cs),
(457,410,o),
(409,406,o),
(376,417,cs),
(352,425,o),
(332,450,o),
(339,470,cs),
(348,501,o),
(397,510,o),
(418,503,cs),
(439,496,o),
(447,489,o),
(459,481,cs),
(471,473,o),
(493,470,o),
(498,475,cs),
(503,480,o),
(510,503,o),
(510,512,cs),
(510,543,o),
(424,577,o),
(398,594,c)
);
},
{
closed = 1;
nodes = (
(281,307,cs),
(276,299,o),
(277,277,o),
(283,263,cs),
(292,242,o),
(303,235,o),
(312,231,cs),
(327,225,o),
(339,228,o),
(344,235,cs),
(349,242,o),
(356,252,o),
(365,261,cs),
(383,279,o),
(404,295,o),
(413,314,c),
(409,318,l),
(387,301,o),
(354,285,o),
(332,285,cs),
(319,285,o),
(308,307,o),
(299,322,cs),
(297,325,o),
(286,315,o)
);
},
{
closed = 1;
nodes = (
(397,150,l),
(409,104,o),
(456,52,o),
(503,11,cs),
(545,-25,o),
(579,-22,o),
(606,-22,cs),
(646,-22,o),
(717,0,o),
(740,10,c),
(735,16,l),
(704,7,o),
(662,3,o),
(578,34,cs),
(505,61,o),
(422,141,o),
(412,161,c)
);
}
);
width = 800;
}
);
tags = (
hira
);
unicode = (12365,12461);
},
{
glyphname = "ku-hira";
lastChange = "2023-12-28 04:13:41 +0000";
layers = (
{
backgroundImage = {
imagePath = "images/く.png";
locked = 1;
pos = (71,-160);
};
layerId = m01;
shapes = (
{
closed = 1;
nodes = (
(383,567,l),
(397,558,o),
(417,533,o),
(408,533,cs),
(372,533,o),
(306,497,o),
(299,467,cs),
(290,428,o),
(328,397,o),
(370,397,cs),
(398,397,o),
(440,392,o),
(451,357,cs),
(463,320,o),
(437,262,o),
(372,208,cs),
(302,150,o),
(205,86,o),
(191,86,cs),
(172,86,o),
(154,95,o),
(148,95,cs),
(141,95,o),
(129,81,o),
(130,64,cs),
(131,51,o),
(168,23,o),
(185,23,cs),
(188,23,o),
(196,37,o),
(214,59,cs),
(221,68,o),
(243,83,o),
(252,88,cs),
(274,100,o),
(365,111,o),
(447,112,cs),
(503,113,o),
(549,104,o),
(593,97,cs),
(602,96,o),
(624,87,o),
(630,79,cs),
(641,64,o),
(665,67,o),
(673,67,cs),
(678,67,o),
(693,75,o),
(693,83,cs),
(693,95,o),
(686,105,o),
(678,113,cs),
(666,125,o),
(645,142,o),
(612,154,cs),
(598,159,o),
(599,118,o),
(584,120,cs),
(510,133,o),
(416,133,o),
(317,120,cs),
(311,119,o),
(303,120,o),
(303,125,cs),
(303,127,o),
(312,135,o),
(318,139,cs),
(398,194,o),
(505,275,o),
(515,322,cs),
(522,358,o),
(483,398,o),
(454,416,cs),
(418,437,o),
(323,404,o),
(323,457,cs),
(323,484,o),
(391,501,o),
(412,494,cs),
(433,487,o),
(455,474,o),
(467,466,cs),
(479,458,o),
(488,452,o),
(493,457,cs),
(498,462,o),
(502,465,o),
(502,473,cs),
(502,481,o),
(503,508,o),
(492,523,cs),
(480,540,o),
(459,564,o),
(394,579,c)
);
},
{
closed = 1;
nodes = (
(234,325,cs),
(227,312,o),
(233,289,o),
(239,275,cs),
(256,236,o),
(301,219,o),
(320,234,cs),
(327,240,o),
(318,267,o),
(323,278,cs),
(336,308,o),
(363,328,o),
(377,345,c),
(375,352,l),
(340,333,o),
(310,300,o),
(288,300,cs),
(275,300,o),
(260,315,o),
(252,337,cs),
(251,340,o),
(239,334,o)
);
}
);
width = 800;
}
);
tags = (
hira
);
unicode = (12367,12463);
},
{
glyphname = "ke-hira";
lastChange = "2023-12-28 04:41:25 +0000";
layers = (
{
backgroundImage = {
imagePath = "images/け.png";
locked = 1;
pos = (129,-160);
};
layerId = m01;
shapes = (
{
closed = 1;
nodes = (
(303,555,o),
(296,556,o),
(295,554,cs),
(284,534,o),
(286,524,o),
(288,515,cs),
(292,501,o),
(305,486,o),
(323,474,cs),
(341,462,o),
(349,464,o),
(358,479,cs),
(361,484,o),
(358,495,o),
(357,499,cs),
(354,510,o),
(344,530,o),
(348,540,cs),
(352,550,o),
(375,604,o),
(405,611,cs),
(426,616,o),
(445,594,o),
(444,567,cs),
(443,531,o),
(437,517,o),
(437,485,cs),
(437,453,o),
(448,408,o),
(486,375,cs),
(540,328,o),
(611,321,o),
(605,296,cs),
(597,261,o),
(543,274,o),
(464,195,cs),
(380,110,o),
(372,-20,o),
(417,-53,c),
(423,-48,l),
(400,-7,o),
(402,60,o),
(448,121,cs),
(508,201,o),
(588,189,o),
(658,238,cs),
(692,262,o),
(693,305,o),
(661,332,cs),
(612,374,o),
(510,374,o),
(479,434,cs),
(448,491,o),
(484,547,o),
(459,601,cs),
(449,624,o),
(415,640,o),
(388,627,cs),
(351,609,o),
(335,585,o),
(317,546,cs),
(314,540,o),
(308,547,o),
(305,552,cs)
);
},
{
closed = 1;
nodes = (
(361,423,o),
(318,447,cs),
(312,450,o),
(302,454,o),
(299,453,cs),
(290,450,o),
(309,431,o),
(305,424,cs),
(302,418,o),
(271,415,o),
(254,405,cs),
(237,395,o),
(217,362,o),
(220,336,cs),
(223,313,o),
(238,289,o),
(282,263,cs),
(304,250,o),
(298,195,o),
(282,168,cs),
(262,133,o),
(238,113,o),
(214,92,c),
(223,86,l),
(284,117,o),
(326,152,o),
(344,213,cs),
(355,251,o),
(344,286,o),
(311,290,cs),
(267,295,o),
(255,313,o),
(252,346,cs),
(250,367,o),
(278,390,o),
(308,386,cs),
(333,383,o),
(350,361,o),
(361,361,cs),
(367,361,o),
(386,386,o),
(382,393,cs),
(372,408,o)
);
},
{
closed = 1;
nodes = (
(177,274,cs),
(172,251,o),
(182,221,o),
(205,215,cs),
(226,209,o),
(238,228,o),
(242,262,c),
(238,267,l),
(235,257,o),
(223,250,o),
(213,254,cs),
(206,257,o),
(200,267,o),
(193,285,cs),
(192,287,o),
(178,279,o)
);
}
);
width = 800;
}
);
tags = (
hira
);
unicode = (12369,12465);
},
{
glyphname = "ko-hira";
lastChange = "2023-12-28 04:41:28 +0000";
layers = (
{
backgroundImage = {
imagePath = "images/こ.png";
locked = 1;
pos = (97,-160);
};
layerId = m01;
shapes = (
{
closed = 1;
nodes = (
(344,622,l),
(358,615,o),
(406,581,o),
(401,564,cs),
(389,522,o),
(306,517,o),
(306,459,cs),
(306,439,o),
(328,418,o),
(357,418,cs),
(390,418,o),
(414,432,o),
(438,418,cs),
(466,402,o),
(423,356,o),
(362,304,cs),
(292,245,o),
(233,169,o),
(205,96,cs),
(200,82,o),
(188,80,o),
(187,72,cs),
(186,63,o),
(200,41,o),
(219,25,cs),
(225,20,o),
(229,15,o),
(235,15,cs),
(238,15,o),
(250,20,o),
(250,38,cs),
(250,99,o),
(287,199,o),
(357,201,cs),
(459,204,o),
(409,3,o),
(581,3,cs),
(673,3,o),
(742,100,o),
(749,118,c),
(741,122,l),
(722,103,o),
(670,63,o),
(610,63,cs),
(496,63,o),
(474,230,o),
(369,230,cs),
(332,230,o),
(293,192,o),
(292,194,cs),
(290,196,o),
(299,211,o),
(303,216,cs),
(377,324,o),
(467,312,o),
(505,379,cs),
(527,418,o),
(502,457,o),
(462,464,cs),
(409,473,o),
(338,423,o),
(332,459,cs),
(328,481,o),
(364,500,o),
(390,510,cs),
(415,519,o),
(430,518,o),
(454,522,cs),
(474,525,o),
(497,548,o),
(483,565,cs),
(472,579,o),
(416,614,o),
(352,634,c)
);
},
{
closed = 1;
nodes = (
(208,359,cs),
(208,349,o),
(221,326,o),
(229,312,cs),
(249,279,o),
(265,259,o),
(290,279,cs),
(297,285,o),
(288,314,o),
(293,325,cs),
(306,355,o),
(325,369,o),
(339,386,c),
(332,390,l),
(302,374,o),
(285,354,o),
(263,354,cs),
(249,354,o),
(240,374,o),
(228,388,cs),
(224,393,o),
(208,367,o)
);
}
);
width = 800;
}
);
tags = (
hira
);
unicode = (12371,12467);
},
{
glyphname = "sa-hira";
lastChange = "2023-12-28 04:27:25 +0000";
layers = (
{
backgroundImage = {
imagePath = "images/さ.png";
locked = 1;
pos = (95,-160);
};
layerId = m01;
shapes = (
{
closed = 1;
nodes = (
(496,631,l),
(500,624,o),
(511,612,o),
(510,602,cs),
(509,592,o),
(491,587,o),
(473,576,cs),
(455,565,o),
(408,526,o),
(369,496,cs),
(324,462,o),
(254,406,o),
(196,396,c),
(205,389,l),
(316,398,o),
(457,524,o),
(501,544,cs),
(523,554,o),
(540,556,o),
(545,548,cs),
(550,540,o),
(556,528,o),
(564,528,cs),
(572,528,o),
(610,543,o),
(610,556,cs),
(610,569,o),
(606,583,o),
(601,593,cs),
(594,608,o),
(579,617,o),
(511,644,c)
);
},
{
closed = 1;
nodes = (
(391,454,l),
(370,425,o),
(352,394,o),
(339,383,cs),
(328,374,o),
(316,374,o),
(308,369,cs),
(300,364,o),
(294,351,o),
(316,327,cs),
(332,309,o),
(345,301,o),
(349,301,cs),
(353,301,o),
(365,314,o),
(364,327,cs),
(363,340,o),
(369,348,o),
(375,355,cs),
(388,369,o),
(439,407,o),
(445,403,cs),
(451,399,o),
(413,362,o),
(399,320,cs),
(386,282,o),
(466,275,o),
(481,232,cs),
(495,193,o),
(408,204,o),
(345,152,cs),
(292,108,o),
(241,32,o),
(289,-58,c),
(299,-52,l),
(261,93,o),
(388,139,o),
(449,145,cs),
(499,150,o),
(551,168,o),
(551,215,cs),
(551,272,o),
(428,287,o),
(430,323,cs),
(432,357,o),
(504,418,o),
(518,427,cs),
(526,432,o),
(502,459,o),
(488,458,cs),
(467,456,o),
(390,385,o),
(378,393,cs),
(371,398,o),
(387,424,o),
(400,449,c)
);
}
);
width = 800;
}
);
tags = (
hira
);
unicode = (12373,12469);
},
{
glyphname = "si-hira";
lastChange = "2023-12-28 04:28:35 +0000";
layers = (
{
backgroundImage = {
imagePath = "images/し.png";
locked = 1;
pos = (60,-160);
};
hints = (
{
origin = (0,3);
target = (0,30);
type = Stem;
}
);
layerId = m01;
shapes = (
{
closed = 1;
nodes = (
(323,630,l),
(350,598,o),
(370,589,o),
(380,564,cs),
(390,539,o),
(388,178,o),
(388,104,cs),
(388,76,o),
(388,30,o),
(386,26,cs),
(384,22,o),
(377,31,o),
(369,26,cs),
(363,22,o),
(370,-5,o),
(380,-21,cs),
(391,-39,o),
(409,-57,o),
(424,-57,cs),
(437,-57,o),
(450,-57,o),
(450,-46,cs),
(450,-39,o),
(449,-26,o),
(442,-13,cs),
(435,0,o),
(419,12,o),
(414,32,cs),
(409,52,o),
(415,513,o),
(422,532,cs),
(429,551,o),
(439,553,o),
(448,553,cs),
(457,553,o),
(469,555,o),
(469,562,cs),
(469,569,o),
(469,583,o),
(437,603,cs),
(407,622,o),
(392,626,o),
(332,639,c)
);
},
{
closed = 1;
nodes = (
(253,449,l),
(269,438,o),
(285,431,o),
(287,416,cs),
(289,400,o),
(261,360,o),
(250,343,c),
(255,339,l),
(281,360,o),
(303,379,o),
(313,392,cs),
(323,405,o),
(337,397,o),
(346,397,cs),
(354,397,o),
(360,402,o),
(360,409,cs),
(360,416,o),
(352,424,o),
(340,433,cs),
(326,443,o),
(313,447,o),
(264,459,c)
);
},
{
closed = 1;
nodes = (
(222,320,o),
(207,316,o),
(205,307,cs),
(203,298,o),
(223,244,o),
(234,244,cs),
(245,244,o),
(248,262,o),
(257,272,cs),
(266,282,o),
(291,298,o),
(293,293,cs),
(299,280,o),
(271,249,o),
(266,233,cs),
(257,206,o),
(293,196,o),
(290,191,cs),
(285,182,o),
(244,186,o),
(217,168,cs),
(188,149,o),
(159,104,o),
(162,63,c),
(171,58,l),
(188,133,o),
(234,158,o),
(275,163,cs),
(284,164,o),
(297,155,o),
(292,147,cs),
(288,141,o),
(295,137,o),
(317,141,cs),
(336,144,o),
(347,157,o),
(347,174,cs),
(347,211,o),
(289,215,o),
(295,234,cs),
(303,261,o),
(321,290,o),
(328,294,cs),
(335,298,o),
(338,295,o),
(341,298,cs),
(344,301,o),
(344,320,o),
(334,323,cs),
(324,326,o),
(293,319,o),
(273,306,cs),
(254,294,o),
(249,295,o),
(244,298,cs),
(239,301,o),
(233,309,o),
(230,314,cs)
);
},
{
closed = 1;
nodes = (
(542,438,o),
(532,426,cs),
(521,413,o),
(476,369,o),
(465,318,cs),
(435,181,o),
(578,89,o),
(694,99,c),
(697,110,l),
(615,120,o),
(556,148,o),
(518,215,cs),
(480,285,o),
(518,362,o),
(554,367,cs),
(574,370,o),
(584,355,o),
(581,351,cs),
(578,347,o),
(575,343,o),
(580,341,cs),
(586,339,o),
(595,339,o),
(606,341,cs),
(620,344,o),
(628,354,o),
(628,363,cs),
(628,378,o),
(603,442,o),
(554,459,cs),
(544,462,o)
);
}
);
width = 800;
}
);
tags = (
hira
);
unicode = (12375,12471);
},
{
glyphname = "su-hira";
lastChange = "2023-12-28 04:13:41 +0000";
layers = (
{
backgroundImage = {
imagePath = "images/す.png";
locked = 1;
pos = (97,-160);
};
layerId = m01;
shapes = (
{
closed = 1;
nodes = (
(349,643,l),
(359,637,o),
(375,631,o),
(380,616,cs),
(386,596,o),
(384,572,o),
(349,540,c),
(356,531,l),
(369,535,o),
(393,547,o),
(407,550,cs),
(424,554,o),
(437,551,o),
(451,551,cs),
(464,551,o),
(477,560,o),
(477,572,cs),
(477,584,o),
(438,640,o),
(359,655,c)
);
},
{
closed = 1;
nodes = (
(289,480,o),
(280,472,o),
(277,466,cs),
(271,453,o),
(307,405,o),
(327,406,cs),
(335,406,o),
(341,416,o),
(348,427,cs),
(355,438,o),
(409,469,o),
(422,471,cs),
(430,472,o),
(434,468,o),
(430,461,cs),
(428,457,o),
(398,425,o),
(385,403,cs),
(367,372,o),
(454,337,o),
(458,317,cs),
(462,297,o),
(394,243,o),
(333,205,cs),
(232,142,o),
(146,56,o),
(209,-55,c),
(221,-45,l),
(191,33,o),
(261,123,o),
(372,181,cs),
(470,232,o),
(530,246,o),
(528,298,cs),
(526,350,o),
(400,375,o),
(417,407,cs),
(433,436,o),
(484,473,o),
(498,477,cs),
(512,481,o),
(520,470,o),
(525,474,cs),
(550,491,o),
(500,532,o),
(487,533,cs),
(470,534,o),
(460,517,o),
(437,501,cs),
(411,483,o),
(350,464,o),
(331,462,cs),
(312,460,o),
(307,468,o),
(297,475,cs)
);
},
{
closed = 1;
nodes = (
(362,194,l),
(362,156,o),
(392,52,o),
(430,52,cs),
(443,52,o),
(447,84,o),
(473,107,cs),
(544,169,o),
(639,226,o),
(673,263,c),
(668,275,l),
(613,227,o),
(478,147,o),
(439,138,cs),
(417,133,o),
(384,160,o),
(375,195,c)
);
}
);
width = 800;
}
);
tags = (
hira
);
unicode = (12377,12473);
},
{
glyphname = "se-hira";
lastChange = "2023-12-28 04:13:41 +0000";
layers = (
{
backgroundImage = {
imagePath = "images/せ.png";
locked = 1;
pos = (86,-160);
};
layerId = m01;
shapes = (
{
closed = 1;
nodes = (
(293,586,o),
(288,579,cs),
(272,554,o),
(302,490,o),
(332,490,cs),
(343,490,o),
(360,501,o),
(357,516,cs),
(354,531,o),
(349,566,o),
(355,580,cs),
(364,602,o),
(385,642,o),
(420,637,cs),
(437,635,o),
(450,615,o),
(449,579,cs),
(449,563,o),
(440,540,o),
(436,501,cs),
(433,468,o),
(446,421,o),
(495,387,cs),
(541,355,o),
(606,340,o),
(606,322,cs),
(606,304,o),
(535,288,o),
(473,227,cs),
(411,166,o),
(364,110,o),
(408,-24,c),
(419,-19,l),
(399,65,o),
(433,153,o),
(501,194,cs),
(575,239,o),
(660,227,o),
(681,292,cs),
(707,373,o),
(542,397,o),
(507,421,cs),
(465,450,o),
(458,480,o),
(467,538,cs),
(478,608,o),
(467,646,o),
(427,651,cs),
(383,657,o),
(354,635,o),
(332,594,cs),
(324,579,o),
(322,564,o),
(315,562,cs),
(304,559,o)
);
},
{
closed = 1;
nodes = (
(229,438,o),
(226,432,cs),
(212,409,o),
(209,397,o),
(210,388,cs),
(213,369,o),
(237,351,o),
(252,351,cs),
(267,351,o),
(281,376,o),
(294,388,cs),
(304,397,o),
(308,394,o),
(309,387,cs),
(310,376,o),
(304,361,o),
(293,339,cs),
(275,302,o),
(329,273,o),
(328,261,cs),
(327,250,o),
(286,240,o),
(257,227,cs),
(237,218,o),
(189,175,o),
(188,110,c),
(202,107,l),
(220,175,o),
(255,201,o),
(297,204,cs),
(321,206,o),
(343,198,o),
(367,211,cs),
(394,225,o),
(398,266,o),
(351,288,cs),
(304,310,o),
(314,332,o),
(324,361,cs),
(332,385,o),
(344,403,o),
(351,406,cs),
(373,415,o),
(381,422,o),
(368,437,cs),
(361,446,o),
(351,443,o),
(317,428,cs),
(292,417,o),
(254,387,o),
(245,415,cs),
(239,432,o)
);
},
{
closed = 1;
nodes = (
(400,392,o),
(400,375,o),
(411,354,cs),
(417,343,o),
(395,323,o),
(372,325,c),
(375,317,l),
(408,310,o),
(438,292,o),
(447,294,cs),
(473,300,o),
(476,314,o),
(474,325,cs),
(471,342,o),
(455,358,o),
(411,385,cs)
);
}
);
width = 800;
}
);
tags = (
hira
);
unicode = (12379,12475);
},
{
glyphname = "so-hira";
lastChange = "2023-12-29 08:13:33 +0000";
layers = (
{
backgroundImage = {
imagePath = "images/そ.png";
locked = 1;
pos = (79,-160);
};
layerId = m01;
shapes = (
{
closed = 1;
nodes = (
(419,643,l),
(438,634,o),
(454,627,o),
(451,614,cs),
(440,566,o),
(370,496,o),
(336,464,cs),
(323,452,o),
(321,464,o),
(313,458,cs),
(305,452,o),
(291,429,o),
(291,405,cs),
(291,395,o),
(300,390,o),
(315,390,cs),
(324,390,o),
(329,413,o),
(349,436,cs),
(370,461,o),
(393,454,o),
(424,440,cs),
(457,425,o),
(464,381,o),
(464,325,cs),
(464,283,o),
(433,219,o),
(433,159,cs),
(433,97,o),
(482,-26,o),
(594,-26,cs),
(668,-26,o),
(718,17,o),
(755,50,c),
(747,66,l),
(716,47,o),
(677,20,o),
(631,20,cs),
(565,20,o),
(487,83,o),
(487,183,cs),
(487,235,o),
(502,286,o),
(502,343,cs),
(502,398,o),
(483,437,o),
(452,458,cs),
(419,480,o),
(401,481,o),
(384,475,cs),
(376,472,o),
(370,473,o),
(382,485,cs),
(411,515,o),
(458,554,o),
(483,588,cs),
(502,614,o),
(521,607,o),
(521,617,cs),
(521,623,o),
(503,648,o),
(429,664,c)
);
},
{
closed = 1;
nodes = (
(231,380,o),
(225,372,cs),
(208,351,o),
(197,330,o),
(202,320,cs),
(210,303,o),
(229,291,o),
(244,291,cs),
(259,291,o),
(256,309,o),
(286,328,cs),
(305,340,o),
(315,344,o),
(307,324,cs),
(302,312,o),
(293,297,o),
(286,277,cs),
(278,250,o),
(315,235,o),
(321,213,cs),
(325,198,o),
(293,194,o),
(244,167,cs),
(208,147,o),
(175,97,o),
(190,43,c),
(206,41,l),
(199,100,o),
(230,135,o),
(283,156,cs),
(307,166,o),
(334,152,o),
(358,165,cs),
(385,179,o),
(390,213,o),
(343,235,cs),
(300,255,o),
(303,274,o),
(311,297,cs),
(319,321,o),
(329,340,o),
(336,343,cs),
(343,346,o),
(361,351,o),
(363,358,cs),
(365,365,o),
(365,372,o),
(358,380,cs),
(353,386,o),
(337,372,o),
(309,361,cs),
(285,351,o),
(254,339,o),
(250,341,cs),
(238,347,o)
);
}
);
width = 800;
}
);
tags = (
hira
);
unicode = (12381,12477);
},
{
glyphname = "ta-hira";
lastChange = "2023-12-28 04:37:58 +0000";
layers = (
{
backgroundImage = {
imagePath = "images/た.png";
locked = 1;
pos = (93,-160);
};
hints = (
{
origin = (0,3);
target = (0,27);
type = Stem;
},
{
origin = (2,3);
target = (2,10);
type = Stem;
},
{
origin = (1,3);
target = (1,13);
type = Stem;
}
);
layerId = m01;
shapes = (
{
closed = 1;
nodes = (
(330,639,l),
(351,600,o),
(386,570,o),
(386,535,cs),
(386,440,o),
(384,121,o),
(382,87,cs),
(380,59,o),
(380,25,o),
(377,22,cs),
(375,20,o),
(368,16,o),
(367,13,cs),
(361,-2,o),
(372,-27,o),
(385,-42,cs),
(394,-53,o),
(406,-57,o),
(410,-57,cs),
(414,-57,o),
(424,-42,o),
(424,-31,cs),
(424,-20,o),
(409,-8,o),
(407,43,cs),
(406,79,o),
(408,420,o),
(411,496,cs),
(412,530,o),
(434,543,o),
(440,544,cs),
(447,545,o),
(469,551,o),
(469,558,cs),
(469,565,o),
(458,585,o),
(447,596,cs),
(440,603,o),
(410,608,o),
(343,655,c)
);
},
{
closed = 1;
nodes = (
(548,442,l),
(564,432,o),
(576,421,o),
(567,404,cs),
(519,307,o),
(389,228,o),
(286,184,c),
(289,176,l),
(427,217,o),
(511,271,o),
(584,342,cs),
(599,357,o),
(621,355,o),
(635,356,cs),
(646,358,o),
(659,375,o),
(636,407,cs),
(616,430,o),
(592,450,o),
(556,458,c)
);
},
{
closed = 1;
nodes = (
(219,450,l),
(244,430,o),
(269,401,o),
(271,372,cs),
(279,255,o),
(246,179,o),
(175,103,c),
(182,98,l),
(276,181,o),
(297,252,o),
(297,368,cs),
(297,390,o),
(300,394,o),
(313,400,cs),
(323,406,o),
(330,422,o),
(313,436,cs),
(302,445,o),
(279,459,o),
(232,468,c)
);
},
{
closed = 1;
nodes = (
(224,364,l),
(208,322,o),
(187,283,o),
(179,273,cs),
(171,263,o),
(161,265,o),
(157,260,cs),
(153,255,o),
(152,228,o),
(158,219,cs),
(164,210,o),
(176,211,o),
(184,221,cs),
(191,229,o),
(187,238,o),
(196,241,cs),
(209,246,o),
(295,290,o),
(320,282,cs),
(345,274,o),
(366,274,o),
(372,276,cs),
(386,280,o),
(394,286,o),
(395,295,cs),
(396,304,o),
(365,319,o),
(351,331,cs),
(340,341,o),
(283,297,o),
(244,281,cs),
(208,266,o),
(205,273,o),
(208,280,cs),
(212,289,o),
(227,314,o),
(235,356,c)
);
}
);
width = 800;
}
);
tags = (
hira
);
unicode = (12383,12479);
},
{
glyphname = "ti-hira";
lastChange = "2023-12-28 04:38:51 +0000";
layers = (
{
backgroundImage = {
imagePath = "images/ち.png";
locked = 1;
pos = (73,-160);
};
hints = (
{
origin = (0,13);
target = (1,6);
type = Stem;
}
);
layerId = m01;
shapes = (
{
closed = 1;
nodes = (
(287,413,l),
(306,385,o),
(326,369,o),
(322,306,cs),
(314,180,o),
(271,62,o),
(156,23,c),
(167,7,l),
(329,62,o),
(344,188,o),
(352,283,cs),
(358,349,o),
(355,353,o),
(368,359,cs),
(378,365,o),
(385,381,o),
(368,395,cs),
(357,404,o),
(338,419,o),
(299,443,c)
);
},
{
closed = 1;
nodes = (
(429,583,l),
(429,563,o),
(450,537,o),
(447,528,cs),
(418,423,o),
(403,381,o),
(421,252,cs),
(442,103,o),
(586,-5,o),
(699,4,c),
(725,36,l),
(626,29,o),
(488,113,o),
(457,238,cs),
(418,394,o),
(460,506,o),
(510,486,cs),
(520,482,o),
(534,482,o),
(538,486,cs),
(556,501,o),
(566,521,o),
(532,536,cs),
(482,558,o),
(472,583,o),
(457,594,c)
);
},
{
closed = 1;
nodes = (
(305,399,l),
(274,362,o),
(205,252,o),
(193,216,cs),
(187,198,o),
(187,186,o),
(193,177,cs),
(199,168,o),
(219,173,o),
(227,183,cs),
(234,191,o),
(242,197,o),
(251,200,cs),
(264,205,o),
(506,332,o),
(532,329,cs),
(567,325,o),
(568,311,o),
(574,311,cs),
(588,311,o),
(601,332,o),
(601,342,cs),
(601,352,o),
(596,371,o),
(578,381,cs),
(566,388,o),
(541,404,o),
(507,433,c),
(492,416,l),
(514,366,o),
(514,366,o),
(497,355,cs),
(435,315,o),
(325,265,o),
(299,254,cs),
(279,246,o),
(259,238,o),
(242,235,cs),
(232,233,o),
(230,238,o),
(232,246,cs),
(240,278,o),
(294,366,o),
(313,392,c)
);
}
);
width = 800;
}
);
tags = (
hira
);
unicode = (12385,12481);
},
{
glyphname = "tu-hira";
lastChange = "2023-12-28 04:39:34 +0000";
layers = (
{
backgroundImage = {
imagePath = "images/つ.png";
locked = 1;
pos = (43,-160);
};
hints = (
{
origin = (1,3);
target = (1,24);
type = Stem;
}
);
layerId = m01;
shapes = (
{
closed = 1;
nodes = (
(425,631,l),
(437,619,o),
(450,603,o),
(450,578,cs),
(450,548,o),
(418,499,o),
(363,458,cs),
(284,398,o),
(170,290,o),
(178,222,cs),
(183,177,o),
(213,161,o),
(252,161,cs),
(293,161,o),
(316,252,o),
(418,291,cs),
(485,317,o),
(540,266,o),
(540,236,cs),
(540,208,o),
(506,193,o),
(459,199,c),
(464,174,l),
(517,168,o),
(575,176,o),
(602,215,cs),
(629,254,o),
(589,302,o),
(549,312,cs),
(509,322,o),
(455,335,o),
(376,294,cs),
(306,258,o),
(260,193,o),
(230,222,cs),
(190,260,o),
(255,337,o),
(343,409,cs),
(409,463,o),
(509,512,o),
(509,553,cs),
(509,589,o),
(497,616,o),
(435,643,c)
);
},
{
closed = 1;
nodes = (
(354,426,l),
(373,409,o),
(381,407,o),
(384,363,cs),
(389,284,o),
(387,168,o),
(384,103,cs),
(381,30,o),
(373,11,o),
(372,7,cs),
(365,-15,o),
(390,-55,o),
(412,-55,cs),
(417,-55,o),
(431,-51,o),
(435,-34,cs),
(437,-26,o),
(426,-10,o),
(422,1,cs),
(418,12,o),
(412,27,o),
(411,132,cs),
(410,243,o),
(407,322,o),
(411,377,cs),
(411,384,o),
(434,392,o),
(434,403,cs),
(434,414,o),
(413,432,o),
(370,440,c)
);
}
);
width = 800;
}
);
tags = (
hira
);
unicode = (12388,12484);
},
{
color = 1;
glyphname = "tusmall-hira";
lastChange = "2023-12-28 04:33:06 +0000";
layers = (
{
backgroundImage = {
imagePath = "images/促音_っ.png";
locked = 1;
pos = (160,-160);
};
layerId = m01;
shapes = (
{
closed = 1;
nodes = (
(343,550,o),
(340,535,o),
(340,526,cs),
(340,520,o),
(363,510,o),
(354,497,cs),
(309,437,o),
(259,410,o),
(240,357,cs),
(217,293,o),
(249,262,o),
(267,262,cs),
(283,262,o),
(298,297,o),
(317,336,cs),
(337,377,o),
(361,389,o),
(395,389,cs),
(424,389,o),
(491,357,o),
(465,311,cs),
(422,235,o),
(385,249,o),
(374,255,cs),
(350,267,o),
(371,297,o),
(381,297,cs),
(400,297,o),
(397,252,o),
(396,203,cs),
(395,154,o),
(393,107,o),
(390,98,cs),
(387,89,o),
(377,91,o),
(373,85,cs),
(369,79,o),
(392,17,o),
(403,17,cs),
(410,17,o),
(427,43,o),
(427,52,cs),
(427,61,o),
(417,73,o),
(413,92,cs),
(409,111,o),
(413,223,o),
(415,255,cs),
(417,297,o),
(403,332,o),
(379,332,cs),
(349,332,o),
(282,265,o),
(348,227,cs),
(400,197,o),
(502,239,o),
(515,316,cs),
(525,377,o),
(447,413,o),
(406,413,cs),
(365,413,o),
(318,389,o),
(284,337,cs),
(277,327,o),
(272,329,o),
(270,340,cs),
(261,393,o),
(350,462,o),
(373,462,cs),
(385,462,o),
(401,460,o),
(410,460,cs),
(422,460,o),
(427,468,o),
(427,477,cs),
(427,498,o),
(388,519,o),
(357,540,cs)
);
}
);
width = 800;
}
);
tags = (
hira
);
unicode = (12387,12483);
},
{
glyphname = "te-hira";
lastChange = "2023-12-28 04:41:34 +0000";
layers = (
{
associatedMasterId = m01;
backgroundImage = {
imagePath = "images/て.png";
locked = 1;
pos = (178,-160);
};
layerId = "B0B894F0-9B5E-45F2-A648-00C029974812";
name = cross;
shapes = (
{
closed = 1;
nodes = (
(332,467,l),
(352,446,o),
(380,422,o),
(383,375,cs),
(390,258,o),
(353,193,o),
(291,121,c),
(298,116,l),
(386,194,o),
(412,262,o),
(412,378,cs),
(412,400,o),
(415,410,o),
(428,415,cs),
(444,421,o),
(445,429,o),
(428,443,cs),
(417,452,o),
(396,471,o),
(349,480,c)
);
},
{
closed = 1;
nodes = (
(339,374,l),
(323,332,o),
(302,293,o),
(294,283,cs),
(286,273,o),
(276,275,o),
(272,270,cs),
(268,265,o),
(267,238,o),
(273,229,cs),
(279,220,o),
(291,221,o),
(299,231,cs),
(306,239,o),
(302,248,o),
(311,251,cs),
(324,257,o),
(408,286,o),
(422,290,cs),
(431,293,o),
(467,277,o),
(473,284,cs),
(484,295,o),
(496,301,o),
(503,307,cs),
(509,313,o),
(449,360,o),
(404,346,cs),
(394,343,o),
(449,328,o),
(441,313,cs),
(434,302,o),
(407,299,o),
(384,293,cs),
(316,274,o),
(313,283,o),
(316,290,cs),
(320,299,o),
(335,323,o),
(349,367,c)
);
},
{
closed = 1;
nodes = (
(398,575,o),
(391,576,o),
(390,574,cs),
(379,554,o),
(381,544,o),
(383,535,cs),
(387,521,o),
(400,506,o),
(418,494,cs),
(436,482,o),
(444,484,o),
(453,499,cs),
(456,504,o),
(453,515,o),
(452,519,cs),
(449,530,o),
(439,550,o),
(443,560,cs),
(447,570,o),
(470,624,o),
(500,631,cs),
(521,636,o),
(544,617,o),
(543,590,cs),
(542,554,o),
(538,531,o),
(538,499,cs),
(538,467,o),
(541,433,o),
(579,400,cs),
(633,353,o),
(706,341,o),
(700,316,cs),
(692,281,o),
(638,294,o),
(559,215,cs),
(475,130,o),
(467,0,o),
(512,-33,c),
(518,-28,l),
(495,13,o),
(497,80,o),
(543,141,cs),
(603,221,o),
(683,209,o),
(753,258,cs),
(787,282,o),
(788,325,o),
(756,352,cs),
(707,394,o),
(610,390,o),
(579,450,cs),
(548,507,o),
(584,567,o),
(559,621,cs),
(549,644,o),
(510,660,o),
(483,647,cs),
(446,629,o),
(430,605,o),
(412,566,cs),
(409,560,o),
(403,567,o),
(400,572,cs)
);
}
);
width = 1000;
},
{
backgroundImage = {
imagePath = "images/て.png";
locked = 1;
pos = (78,-160);
};
layerId = m01;
name = Regular;
shapes = (
{
closed = 1;
nodes = (
(232,447,l),
(252,426,o),
(280,402,o),
(283,355,cs),
(290,238,o),
(253,173,o),
(191,101,c),
(198,96,l),
(286,174,o),
(312,242,o),
(312,358,cs),
(312,380,o),
(315,390,o),
(328,395,cs),
(344,401,o),
(345,409,o),
(328,423,cs),
(317,432,o),
(296,451,o),
(249,460,c)
);
},
{
closed = 1;
nodes = (
(239,354,l),
(223,312,o),
(202,273,o),
(194,263,cs),
(186,253,o),
(176,255,o),
(172,250,cs),
(168,245,o),
(167,218,o),
(173,209,cs),
(179,200,o),
(191,201,o),
(199,211,cs),
(206,219,o),
(202,228,o),
(211,231,cs),
(224,237,o),
(308,266,o),
(322,270,cs),
(331,273,o),
(367,257,o),
(373,264,cs),
(384,275,o),
(396,281,o),
(403,287,cs),
(409,293,o),
(349,340,o),
(304,326,cs),
(294,323,o),
(298,300,o),
(273,287,cs),
(219,259,o),
(213,263,o),
(216,270,cs),
(220,279,o),
(235,303,o),
(249,347,c)
);
},
{
closed = 1;
nodes = (
(298,555,o),
(291,556,o),
(290,554,cs),
(279,534,o),
(281,524,o),
(283,515,cs),
(287,501,o),
(300,486,o),
(318,474,cs),
(336,462,o),
(344,464,o),
(353,479,cs),
(356,484,o),
(353,495,o),
(352,499,cs),
(349,510,o),
(339,530,o),
(343,540,cs),
(347,550,o),
(370,604,o),
(400,611,cs),
(421,616,o),
(444,597,o),
(443,570,cs),
(442,534,o),
(438,511,o),
(438,479,cs),
(438,447,o),
(441,413,o),
(479,380,cs),
(533,333,o),
(606,321,o),
(600,296,cs),
(592,261,o),
(538,274,o),
(459,195,cs),
(375,110,o),
(367,-20,o),
(412,-53,c),
(418,-48,l),
(395,-7,o),
(397,60,o),
(443,121,cs),
(503,201,o),
(583,189,o),
(653,238,cs),
(687,262,o),
(688,305,o),
(656,332,cs),
(607,374,o),
(510,370,o),
(479,430,cs),
(448,487,o),
(484,547,o),
(459,601,cs),
(449,624,o),
(410,640,o),
(383,627,cs),
(346,609,o),
(330,585,o),
(312,546,cs),
(309,540,o),
(303,547,o),
(300,552,cs)
);
}
);
visible = 1;
width = 800;
}
);
tags = (
hira
);
unicode = (12390,12486);
},
{
glyphname = "to-hira";
lastChange = "2023-12-28 04:41:14 +0000";
layers = (
{
backgroundImage = {
imagePath = "images/と.png";
locked = 1;
pos = (77,-160);
};
layerId = m01;
shapes = (
{
closed = 1;
nodes = (
(229,369,l),
(249,348,o),
(277,324,o),
(280,277,cs),
(287,160,o),
(250,95,o),
(188,23,c),
(195,18,l),
(283,96,o),
(309,164,o),
(309,280,cs),
(309,302,o),
(312,312,o),
(325,317,cs),
(341,323,o),
(342,331,o),
(325,345,cs),
(314,354,o),
(293,373,o),
(246,382,c)
);
},
{
closed = 1;
nodes = (
(236,276,l),
(220,234,o),
(199,195,o),
(191,185,cs),
(183,175,o),
(173,177,o),
(169,172,cs),
(165,167,o),
(164,140,o),
(170,131,cs),
(176,122,o),
(188,123,o),
(196,133,cs),
(203,141,o),
(199,150,o),
(208,153,cs),
(221,159,o),
(305,188,o),
(319,192,cs),
(328,195,o),
(364,179,o),
(370,186,cs),
(381,197,o),
(393,203,o),
(400,209,cs),
(406,215,o),
(346,262,o),
(301,248,cs),
(291,245,o),
(295,222,o),
(270,209,cs),
(216,181,o),
(210,185,o),
(213,192,cs),
(217,201,o),
(232,225,o),
(246,269,c)
);
},
{
closed = 1;
nodes = (
(427,658,l),
(441,658,o),
(457,645,o),
(454,632,cs),
(443,584,o),
(373,514,o),
(339,482,cs),
(318,462,o),
(301,461,o),
(301,428,cs),
(301,418,o),
(303,408,o),
(318,408,cs),
(327,408,o),
(332,431,o),
(352,454,cs),
(373,479,o),
(396,472,o),
(427,458,cs),
(460,443,o),
(467,399,o),
(467,343,cs),
(467,301,o),
(442,237,o),
(442,177,cs),
(442,115,o),
(504,-8,o),
(597,-8,cs),
(671,-8,o),
(721,35,o),
(758,68,c),
(750,84,l),
(719,65,o),
(680,38,o),
(634,38,cs),
(568,38,o),
(490,131,o),
(490,209,cs),
(490,261,o),
(505,304,o),
(505,361,cs),
(505,416,o),
(486,455,o),
(455,476,cs),
(422,498,o),
(404,499,o),
(387,493,cs),
(379,490,o),
(373,491,o),
(385,503,cs),
(414,533,o),
(461,572,o),
(486,606,cs),
(505,632,o),
(524,625,o),
(524,635,cs),
(524,641,o),
(513,648,o),
(499,657,cs),
(482,668,o),
(463,682,o),
(437,682,c)
);
}
);
width = 800;
}
);
tags = (
hira
);
unicode = (12392,12488);
},
{
glyphname = "na-hira";
lastChange = "2023-12-28 04:13:41 +0000";
layers = (
{
backgroundImage = {
imagePath = "images/な.png";
locked = 1;
pos = (67,-160);
};
layerId = m01;
shapes = (
{
closed = 1;
nodes = (
(385,563,l),
(402,551,o),
(424,544,o),
(418,527,cs),
(400,479,o),
(222,309,o),
(196,255,cs),
(191,244,o),
(184,229,o),
(184,219,cs),
(184,206,o),
(217,159,o),
(226,159,cs),
(236,159,o),
(250,174,o),
(250,179,cs),
(250,191,o),
(249,206,o),
(258,220,cs),
(295,274,o),
(375,371,o),
(505,371,cs),
(575,371,o),
(643,310,o),
(560,189,cs),
(482,73,o),
(375,57,o),
(309,100,c),
(300,83,l),
(324,57,o),
(361,41,o),
(411,41,cs),
(466,41,o),
(560,91,o),
(602,154,cs),
(678,267,o),
(629,397,o),
(510,397,cs),
(391,397,o),
(329,349,o),
(279,301,cs),
(268,291,o),
(262,293,o),
(264,301,cs),
(279,351,o),
(416,459,o),
(443,471,cs),
(469,482,o),
(477,473,o),
(485,473,cs),
(496,473,o),
(518,491,o),
(518,495,cs),
(518,501,o),
(515,511,o),
(496,523,cs),
(483,531,o),
(471,553,o),
(400,581,c)
);
},
{
closed = 1;
nodes = (
(349,240,l),
(375,215,o),
(389,170,o),
(407,170,cs),
(425,170,o),
(456,261,o),
(471,277,c),
(463,283,l),
(445,263,o),
(427,240,o),
(409,236,cs),
(391,232,o),
(382,241,o),
(369,255,c)
);
}
);
width = 800;
}
);
tags = (
hira
);
unicode = (12394,12490);
},
{
glyphname = "ni-hira";
lastChange = "2023-12-28 04:42:08 +0000";
layers = (
{
backgroundImage = {
imagePath = "images/に.png";
locked = 1;
pos = (46,-160);
};
hints = (
{
origin = (0,3);
target = (0,30);
type = Stem;
}
);
layerId = m01;
shapes = (
{
closed = 1;
nodes = (
(331,630,l),
(358,603,o),
(378,589,o),
(388,564,cs),
(398,539,o),
(396,178,o),
(396,104,cs),
(396,76,o),
(396,30,o),
(394,26,cs),
(392,22,o),
(385,31,o),
(377,26,cs),
(371,22,o),
(378,-5,o),
(388,-21,cs),
(399,-39,o),
(412,-52,o),
(427,-52,cs),
(440,-52,o),
(453,-52,o),
(453,-41,cs),
(453,-34,o),
(453,-26,o),
(446,-13,cs),
(439,0,o),
(423,6,o),
(422,45,cs),
(417,179,o),
(425,489,o),
(430,509,cs),
(437,538,o),
(441,553,o),
(450,553,cs),
(459,553,o),
(473,552,o),
(473,559,cs),
(473,566,o),
(477,578,o),
(445,598,cs),
(415,617,o),
(400,626,o),
(340,639,c)
);
},
{
closed = 1;
nodes = (
(203,351,o),
(191,339,o),
(180,331,cs),
(165,320,o),
(217,298,o),
(233,298,cs),
(242,298,o),
(258,314,o),
(258,319,cs),
(258,329,o),
(242,337,o),
(250,357,cs),
(254,366,o),
(271,397,o),
(303,397,cs),
(327,397,o),
(355,361,o),
(333,306,cs),
(334,308,o),
(289,181,o),
(174,140,c),
(180,127,l),
(269,150,o),
(382,249,o),
(376,345,cs),
(374,382,o),
(347,425,o),
(306,425,cs),
(270,425,o),
(230,400,o),
(209,362,cs)
);
},
{
closed = 1;
nodes = (
(549,459,o),
(552,438,o),
(542,426,cs),
(531,413,o),
(481,369,o),
(470,318,cs),
(440,181,o),
(583,89,o),
(699,99,c),
(702,110,l),
(620,120,o),
(561,148,o),
(523,215,cs),
(485,285,o),
(523,362,o),
(559,367,cs),
(579,370,o),
(586,355,o),
(586,351,cs),
(586,348,o),
(595,341,o),
(611,341,cs),
(620,341,o),
(633,354,o),
(633,363,cs),
(633,378,o),
(608,439,o),
(559,456,cs)
);
},
{
closed = 1;
nodes = (
(206,264,cs),
(206,254,o),
(224,230,o),
(240,230,cs),
(253,230,o),
(268,246,o),
(292,290,c),
(287,294,l),
(279,283,o),
(267,268,o),
(253,267,cs),
(242,266,o),
(224,270,o),
(217,277,cs),
(215,279,o),
(206,272,o)
);
}
);
width = 800;
}
);
tags = (
hira
);
unicode = (12395,12491);
},
{
glyphname = "nu-hira";
lastChange = "2023-12-28 04:41:50 +0000";
layers = (
{
backgroundImage = {
imagePath = "images/ぬ.png";
locked = 1;
pos = (39,-160);
};
hints = (
{
origin = (0,3);
target = (0,27);
type = Stem;
}
);
layerId = m01;
shapes = (
{
closed = 1;
nodes = (
(382,639,l),
(393,619,o),
(412,591,o),
(414,546,cs),
(420,413,o),
(419,162,o),
(414,78,cs),
(412,34,o),
(407,34,o),
(406,30,cs),
(399,9,o),
(414,-28,o),
(423,-38,cs),
(434,-50,o),
(446,-48,o),
(451,-48,cs),
(456,-48,o),
(469,-45,o),
(474,-21,cs),
(476,-13,o),
(471,-3,o),
(467,8,cs),
(463,19,o),
(451,48,o),
(447,127,cs),
(440,260,o),
(442,413,o),
(445,488,cs),
(446,520,o),
(449,532,o),
(452,534,cs),
(455,536,o),
(481,529,o),
(490,529,cs),
(499,529,o),
(506,537,o),
(506,545,cs),
(506,558,o),
(501,570,o),
(493,581,cs),
(483,595,o),
(455,616,o),
(392,647,c)
);
},
{
closed = 1;
nodes = (
(194,322,o),
(257,306,cs),
(262,305,o),
(281,321,o),
(281,326,cs),
(281,336,o),
(269,348,o),
(277,368,cs),
(281,377,o),
(301,402,o),
(332,402,cs),
(351,402,o),
(380,376,o),
(357,311,cs),
(337,254,o),
(309,219,o),
(258,185,cs),
(242,174,o),
(217,186,o),
(206,180,cs),
(196,174,o),
(200,161,o),
(214,146,cs),
(220,139,o),
(243,124,o),
(249,124,cs),
(254,124,o),
(267,149,o),
(277,151,cs),
(425,185,o),
(642,269,o),
(699,300,c),
(693,311,l),
(607,271,o),
(396,209,o),
(319,193,cs),
(312,192,o),
(310,195,o),
(316,201,cs),
(359,244,o),
(402,300,o),
(398,350,cs),
(396,387,o),
(374,430,o),
(325,430,cs),
(247,430,o),
(224,356,o),
(202,345,cs),
(193,341,o)
);
},
{
closed = 1;
nodes = (
(224,267,cs),
(224,257,o),
(247,230,o),
(263,230,cs),
(276,230,o),
(291,246,o),
(315,290,c),
(310,294,l),
(302,283,o),
(290,268,o),
(276,267,cs),
(265,266,o),
(247,274,o),
(240,281,cs),
(238,283,o),
(224,275,o)
);
}
);
width = 800;
}
);
tags = (
hira
);
unicode = (12396,12492);
},
{
glyphname = "ne-hira";
lastChange = "2023-12-28 04:13:41 +0000";
layers = (
{
backgroundImage = {
imagePath = "images/ね.png";
locked = 1;
pos = (65,-160);
};
layerId = m01;
shapes = (
{
closed = 1;
nodes = (
(246,648,l),
(264,633,o),
(277,622,o),
(284,603,cs),
(298,567,o),
(294,438,o),
(292,414,cs),
(291,398,o),
(289,390,o),
(284,390,cs),
(278,390,o),
(274,384,o),
(275,360,cs),
(276,342,o),
(300,320,o),
(308,320,cs),
(316,320,o),
(323,336,o),
(323,345,cs),
(323,354,o),
(314,393,o),
(318,408,cs),
(327,444,o),
(382,505,o),
(451,505,cs),
(496,505,o),
(539,487,o),
(539,426,cs),
(539,354,o),
(488,309,o),
(385,228,cs),
(307,167,o),
(261,60,o),
(307,-42,c),
(323,-33,l),
(316,23,o),
(307,90,o),
(358,141,cs),
(472,256,o),
(585,267,o),
(585,420,cs),
(585,500,o),
(539,540,o),
(484,540,cs),
(427,540,o),
(364,509,o),
(329,467,cs),
(323,459,o),
(316,453,o),
(316,464,cs),
(314,519,o),
(312,555,o),
(320,567,cs),
(328,579,o),
(338,577,o),
(343,581,cs),
(348,584,o),
(349,598,o),
(349,607,cs),
(349,616,o),
(318,638,o),
(259,661,c)
);
},
{
closed = 1;
nodes = (
(380,419,o),
(380,410,cs),
(380,391,o),
(412,337,o),
(434,337,cs),
(452,337,o),
(481,413,o),
(481,441,c),
(473,447,l),
(462,422,o),
(454,407,o),
(436,403,cs),
(422,400,o),
(402,416,o),
(393,432,cs),
(388,441,o)
);
}
);
width = 800;
}
);
tags = (
hira
);
unicode = (12397,12493);
},
{
glyphname = "no-hira";
lastChange = "2023-12-28 04:13:41 +0000";
layers = (
{
backgroundImage = {
imagePath = "images/の.png";
locked = 1;
pos = (85,-160);
};
layerId = m01;
shapes = (
{
closed = 1;
nodes = (
(209,430,o),
(270,403,o),
(287,403,cs),
(295,403,o),
(317,416,o),
(317,425,cs),
(317,433,o),
(305,442,o),
(298,451,cs),
(286,466,o),
(308,527,o),
(362,525,cs),
(416,523,o),
(448,472,o),
(448,430,cs),
(448,396,o),
(463,332,o),
(311,209,c),
(316,200,l),
(430,271,o),
(499,351,o),
(499,428,cs),
(499,504,o),
(440,558,o),
(389,558,cs),
(343,558,o),
(268,527,o),
(220,448,cs)
);
},
{
closed = 1;
nodes = (
(232,352,o),
(214,331,o),
(210,318,cs),
(206,304,o),
(248,257,o),
(280,257,cs),
(298,257,o),
(323,274,o),
(323,285,cs),
(323,296,o),
(310,304,o),
(314,312,cs),
(318,320,o),
(342,346,o),
(354,362,c),
(346,369,l),
(326,352,o),
(286,318,o),
(271,318,cs),
(252,318,o),
(236,331,o),
(234,341,cs)
);
},
{
closed = 1;
nodes = (
(160,200,o),
(144,177,o),
(144,164,cs),
(144,154,o),
(169,116,o),
(179,116,cs),
(189,116,o),
(217,149,o),
(227,163,cs),
(237,177,o),
(259,191,o),
(280,191,cs),
(371,191,o),
(472,20,o),
(574,20,cs),
(654,20,o),
(755,68,o),
(789,98,c),
(783,109,l),
(750,83,o),
(682,68,o),
(644,68,cs),
(499,68,o),
(394,218,o),
(310,218,cs),
(248,218,o),
(216,185,o),
(200,182,cs),
(184,179,o),
(173,180,o),
(165,192,cs)
);
}
);
width = 800;
}
);
tags = (
hira
);
unicode = (12398,12494);
},
{
glyphname = "ha-hira";
lastChange = "2023-12-28 04:13:41 +0000";
layers = (
{
backgroundImage = {
imagePath = "images/は.png";
locked = 1;
pos = (60,-160);
};
layerId = m01;
shapes = (
{
closed = 1;
nodes = (
(475,622,l),
(484,611,o),
(496,594,o),
(478,568,cs),
(415,477,o),
(320,412,o),
(216,366,c),
(225,357,l),
(380,412,o),
(435,464,o),
(508,522,cs),
(523,534,o),
(541,506,o),
(556,506,cs),
(568,506,o),
(579,522,o),
(579,535,cs),
(579,545,o),
(538,588,o),
(488,631,c)
);
},
{
closed = 1;
nodes = (
(417,462,l),
(407,383,o),
(462,303,o),
(504,303,cs),
(549,303,o),
(572,308,o),
(572,320,cs),
(572,332,o),
(563,350,o),
(547,350,cs),
(520,350,o),
(443,344,o),
(436,478,c)
);
},
{
closed = 1;
nodes = (
(496,302,o),
(465,276,o),
(454,255,cs),
(432,213,o),
(406,153,o),
(368,164,cs),
(338,172,o),
(346,223,o),
(360,247,cs),
(374,271,o),
(395,294,o),
(413,288,cs),
(434,281,o),
(466,253,o),
(381,100,cs),
(326,0,o),
(194,-28,o),
(151,-21,c),
(145,-32,l),
(246,-65,o),
(416,6,o),
(472,178,cs),
(510,296,o),
(455,313,o),
(443,318,cs),
(418,328,o),
(348,302,o),
(311,226,cs),
(290,184,o),
(310,145,o),
(332,132,cs),
(363,113,o),
(418,125,o),
(463,203,cs),
(508,281,o),
(526,308,o),
(532,311,c),
(522,319,l)
);
}
);
width = 800;
}
);
tags = (
hira
);
unicode = (12399,12495);
},
{
glyphname = "hi-hira";
lastChange = "2023-12-28 04:43:35 +0000";
layers = (
{
backgroundImage = {
imagePath = "images/ひ.png";
locked = 1;
pos = (20,-160);
};
layerId = m01;
shapes = (
{
closed = 1;
nodes = (
(452,600,l),
(470,586,o),
(474,552,o),
(471,533,cs),
(464,489,o),
(322,334,o),
(271,350,cs),
(261,353,o),
(252,361,o),
(261,379,cs),
(270,396,o),
(278,407,o),
(293,403,cs),
(331,393,o),
(257,32,o),
(97,-4,c),
(106,-17,l),
(307,4,o),
(388,421,o),
(310,438,cs),
(284,443,o),
(254,409,o),
(239,381,cs),
(227,359,o),
(229,338,o),
(253,326,cs),
(313,296,o),
(515,510,o),
(510,508,cs),
(530,515,o),
(544,507,o),
(551,507,cs),
(558,507,o),
(565,512,o),
(565,519,cs),
(565,526,o),
(559,570,o),
(464,615,c)
);
},
{
closed = 1;
nodes = (
(375,335,o),
(356,314,o),
(366,270,cs),
(372,242,o),
(390,228,o),
(403,228,cs),
(416,228,o),
(428,251,o),
(430,261,cs),
(437,291,o),
(447,333,o),
(469,333,cs),
(513,333,o),
(499,251,o),
(494,178,cs),
(489,99,o),
(553,-7,o),
(638,-15,cs),
(696,-20,o),
(730,-7,o),
(756,30,c),
(743,39,l),
(732,25,o),
(713,12,o),
(683,15,cs),
(607,22,o),
(546,103,o),
(551,210,cs),
(556,317,o),
(521,361,o),
(487,361,cs),
(456,361,o),
(440,336,o),
(416,303,cs),
(392,270,o),
(390,316,o),
(379,330,cs)
);
}
);
width = 800;
}
);
tags = (
hira
);
unicode = (12402,12498);
},
{
glyphname = "hu-hira";
lastChange = "2023-12-28 04:43:17 +0000";
layers = (
{
backgroundImage = {
imagePath = "images/ふ.png";
locked = 1;
pos = (35,-160);
};
hints = (
{
origin = (0,3);
target = (0,27);
type = Stem;
}
);
layerId = m01;
shapes = (
{
closed = 1;
nodes = (
(351,639,l),
(362,619,o),
(381,591,o),
(383,546,cs),
(389,413,o),
(388,162,o),
(383,78,cs),
(381,34,o),
(376,34,o),
(375,30,cs),
(368,9,o),
(378,-21,o),
(387,-31,cs),
(398,-43,o),
(414,-48,o),
(419,-48,cs),
(424,-48,o),
(433,-45,o),
(438,-21,cs),
(440,-13,o),
(435,2,o),
(431,13,cs),
(427,24,o),
(420,48,o),
(416,127,cs),
(409,260,o),
(411,413,o),
(414,488,cs),
(415,520,o),
(418,532,o),
(421,534,cs),
(424,536,o),
(449,531,o),
(458,531,cs),
(467,531,o),
(474,537,o),
(474,545,cs),
(474,558,o),
(469,569,o),
(461,580,cs),
(451,594,o),
(424,616,o),
(361,647,c)
);
},
{
closed = 1;
nodes = (
(461,505,l),
(468,500,o),
(480,487,o),
(479,478,cs),
(476,459,o),
(378,323,o),
(254,323,cs),
(222,323,o),
(285,434,o),
(303,439,cs),
(344,451,o),
(321,240,o),
(139,148,c),
(152,138,l),
(310,179,o),
(424,471,o),
(321,468,cs),
(265,466,o),
(180,307,o),
(244,307,cs),
(362,307,o),
(469,402,o),
(492,424,cs),
(508,439,o),
(527,450,o),
(535,450,cs),
(543,450,o),
(553,456,o),
(553,463,cs),
(553,470,o),
(544,493,o),
(475,515,c)
);
},
{
closed = 1;
nodes = (
(304,209,o),
(296,185,o),
(296,156,cs),
(296,135,o),
(338,98,o),
(344,98,cs),
(356,98,o),
(357,130,o),
(372,136,cs),
(462,169,o),
(582,217,o),
(690,269,c),
(684,280,l),
(602,247,o),
(482,205,o),
(363,167,cs),
(329,156,o),
(325,187,o),
(312,201,cs)
);
}
);
width = 800;
}
);
tags = (
hira
);
unicode = (12405,12501);
},
{
glyphname = "he-hira";
lastChange = "2023-12-28 04:43:42 +0000";
layers = (
{
backgroundImage = {
imagePath = "images/へ.png";
locked = 1;
pos = (34,-160);
};
layerId = m01;
shapes = (
{
closed = 1;
nodes = (
(516,628,l),
(531,612,o),
(545,593,o),
(539,580,cs),
(501,494,o),
(418,397,o),
(273,278,cs),
(249,258,o),
(233,263,o),
(225,258,cs),
(213,251,o),
(195,228,o),
(203,211,cs),
(215,186,o),
(242,168,o),
(250,168,cs),
(258,168,o),
(283,184,o),
(283,193,cs),
(283,202,o),
(280,219,o),
(284,225,cs),
(309,263,o),
(383,320,o),
(439,320,cs),
(500,320,o),
(554,287,o),
(547,248,cs),
(540,208,o),
(400,151,o),
(390,86,cs),
(380,21,o),
(440,-22,o),
(485,-41,c),
(496,-29,l),
(452,0,o),
(414,32,o),
(420,76,cs),
(429,139,o),
(594,154,o),
(604,235,cs),
(613,304,o),
(513,340,o),
(468,344,cs),
(435,347,o),
(417,343,o),
(400,338,cs),
(392,336,o),
(391,338,o),
(395,345,cs),
(401,355,o),
(533,500,o),
(560,534,cs),
(574,552,o),
(593,560,o),
(601,560,cs),
(609,560,o),
(623,562,o),
(623,571,cs),
(623,580,o),
(616,604,o),
(533,641,c)
);
},
{
closed = 1;
nodes = (
(457,450,o),
(467,493,o),
(439,510,cs),
(412,526,o),
(365,514,o),
(333,476,cs),
(306,444,o),
(299,410,o),
(324,387,cs),
(366,348,o),
(424,397,o),
(441,424,cs)
);
},
{
closed = 1;
nodes = (
(398,418,o),
(374,404,o),
(353,416,cs),
(336,426,o),
(340,450,o),
(353,466,cs),
(372,490,o),
(398,493,o),
(412,482,cs),
(425,471,o),
(421,448,o),
(408,431,cs)
);
}
);
width = 800;
}
);
tags = (
hira
);
unicode = (12408,12504);
},
{
glyphname = "ho-hira";
lastChange = "2023-12-28 04:42:47 +0000";
layers = (
{
backgroundImage = {
imagePath = "images/ほ.png";
locked = 1;
pos = (62,-160);
};
layerId = m01;
shapes = (
{
closed = 1;
nodes = (
(405,626,l),
(413,619,o),
(438,601,o),
(430,584,cs),
(416,554,o),
(344,478,o),
(314,450,cs),
(305,442,o),
(295,438,o),
(289,437,cs),
(282,436,o),
(282,422,o),
(281,418,cs),
(280,414,o),
(270,412,o),
(268,407,cs),
(262,391,o),
(281,382,o),
(300,382,cs),
(306,382,o),
(314,400,o),
(314,407,cs),
(314,414,o),
(339,438,o),
(361,438,cs),
(430,438,o),
(445,377,o),
(445,339,cs),
(445,282,o),
(416,252,o),
(416,148,cs),
(416,53,o),
(496,-17,o),
(578,-17,cs),
(663,-17,o),
(721,35,o),
(741,69,c),
(732,77,l),
(706,52,o),
(653,29,o),
(608,29,cs),
(515,29,o),
(465,131,o),
(465,199,cs),
(465,263,o),
(477,283,o),
(477,331,cs),
(477,389,o),
(434,469,o),
(364,461,cs),
(358,460,o),
(356,463,o),
(361,468,cs),
(399,512,o),
(452,555,o),
(478,578,cs),
(488,587,o),
(500,590,o),
(500,593,cs),
(500,599,o),
(492,622,o),
(416,645,c)
);
},
{
closed = 1;
nodes = (
(478,410,o),
(506,393,o),
(508,386,cs),
(515,361,o),
(339,227,o),
(269,242,cs),
(224,252,o),
(311,352,o),
(325,349,cs),
(367,340,o),
(284,133,o),
(154,77,c),
(163,65,l),
(280,82,o),
(440,330,o),
(339,370,cs),
(308,382,o),
(190,267,o),
(248,228,cs),
(309,187,o),
(513,330,o),
(527,339,cs),
(541,348,o),
(550,355,o),
(556,355,cs),
(562,355,o),
(569,357,o),
(569,363,cs),
(569,369,o),
(561,410,o),
(500,410,cs)
);
}
);
width = 800;
}
);
tags = (
hira
);
unicode = (12411,12507);
},
{
glyphname = "ma-hira";
lastChange = "2023-12-28 04:42:41 +0000";
layers = (
{
backgroundImage = {
imagePath = "images/ま.png";
locked = 1;
pos = (81,-160);
};
layerId = m01;
shapes = (
{
closed = 1;
nodes = (
(427,637,o),
(425,625,o),
(437,600,cs),
(441,591,o),
(464,572,o),
(465,562,cs),
(471,518,o),
(476,418,o),
(471,317,cs),
(468,250,o),
(443,14,o),
(295,-46,c),
(305,-53,l),
(445,-25,o),
(485,154,o),
(500,234,cs),
(513,299,o),
(513,424,o),
(514,458,cs),
(516,527,o),
(523,534,o),
(535,534,cs),
(543,534,o),
(555,542,o),
(555,551,cs),
(555,560,o),
(504,618,o),
(435,635,cs)
);
},
{
closed = 1;
nodes = (
(206,413,o),
(297,340,o),
(332,351,cs),
(340,353,o),
(331,379,o),
(341,387,cs),
(354,397,o),
(377,405,o),
(395,411,cs),
(401,413,o),
(406,407,o),
(391,381,cs),
(360,327,o),
(271,255,o),
(239,238,cs),
(220,228,o),
(202,235,o),
(192,238,cs),
(184,240,o),
(166,220,o),
(184,191,cs),
(190,180,o),
(234,164,o),
(249,166,cs),
(254,166,o),
(262,198,o),
(273,202,cs),
(416,250,o),
(610,322,o),
(674,358,c),
(669,371,l),
(586,336,o),
(377,266,o),
(335,259,cs),
(321,257,o),
(309,259,o),
(317,266,cs),
(372,316,o),
(446,411,o),
(456,415,cs),
(471,421,o),
(484,424,o),
(487,433,cs),
(489,439,o),
(447,461,o),
(416,458,cs),
(405,457,o),
(402,444,o),
(391,433,cs),
(383,425,o),
(336,410,o),
(323,407,cs),
(295,400,o),
(259,413,o),
(242,413,cs)
);
}
);
width = 800;
}
);
tags = (
hira
);
unicode = (12414,12510);
},
{
glyphname = "mi-hira";
lastChange = "2023-12-28 04:13:41 +0000";
layers = (
{
backgroundImage = {
imagePath = "images/み.png";
locked = 1;
pos = (84,-160);
};
layerId = m01;
shapes = (
{
closed = 1;
nodes = (
(413,599,l),
(428,585,o),
(447,561,o),
(452,550,cs),
(463,527,o),
(452,497,o),
(452,435,cs),
(452,346,o),
(478,313,o),
(474,299,cs),
(470,285,o),
(430,265,o),
(407,205,cs),
(361,83,o),
(492,-47,o),
(662,-38,c),
(659,-23,l),
(472,-6,o),
(430,119,o),
(446,172,cs),
(456,207,o),
(476,234,o),
(498,238,cs),
(520,242,o),
(533,235,o),
(541,238,cs),
(549,241,o),
(568,267,o),
(564,275,cs),
(546,311,o),
(506,315,o),
(492,334,cs),
(479,352,o),
(474,375,o),
(471,405,cs),
(468,440,o),
(472,492,o),
(480,506,cs),
(491,526,o),
(515,513,o),
(522,516,cs),
(529,519,o),
(540,534,o),
(535,542,cs),
(530,550,o),
(508,585,o),
(422,608,c)
);
},
{
closed = 1;
nodes = (
(216,420,o),
(273,357,o),
(284,356,cs),
(295,355,o),
(302,368,o),
(307,380,cs),
(312,392,o),
(360,428,o),
(368,432,cs),
(376,436,o),
(377,389,o),
(276,314,c),
(284,305,l),
(391,365,o),
(417,428,o),
(428,435,cs),
(439,442,o),
(453,448,o),
(447,452,cs),
(430,465,o),
(410,483,o),
(399,483,cs),
(383,482,o),
(373,459,o),
(365,453,cs),
(357,447,o),
(322,426,o),
(291,423,cs),
(268,421,o),
(243,431,o),
(230,426,cs)
);
},
{
closed = 1;
nodes = (
(153,255,o),
(218,203,o),
(229,205,cs),
(240,207,o),
(256,231,o),
(276,246,cs),
(312,273,o),
(408,323,o),
(517,374,c),
(511,384,l),
(422,346,o),
(297,296,o),
(246,273,cs),
(221,262,o),
(189,276,o),
(170,265,cs)
);
}
);
width = 800;
}
);
tags = (
hira
);
unicode = (12415,12511);
},
{
glyphname = "mu-hira";
lastChange = "2023-12-28 04:42:28 +0000";
layers = (
{
backgroundImage = {
imagePath = "images/む.png";
locked = 1;
pos = (71,-160);
};
hints = (
{
origin = (3,4);
place = (451, 30);
type = Stem;
}
);
layerId = m01;
shapes = (
{
closed = 1;
nodes = (
(276,568,o),
(273,555,o),
(276,549,cs),
(284,537,o),
(298,526,o),
(299,517,cs),
(303,489,o),
(290,467,o),
(268,453,c),
(275,444,l),
(292,450,o),
(314,466,o),
(327,469,cs),
(351,475,o),
(392,461,o),
(378,491,cs),
(373,502,o),
(329,557,o),
(282,567,cs)
);
},
{
closed = 1;
nodes = (
(179,397,o),
(234,331,o),
(245,330,cs),
(253,330,o),
(253,349,o),
(256,354,cs),
(262,362,o),
(286,375,o),
(297,376,cs),
(306,377,o),
(322,366,o),
(245,288,c),
(253,279,l),
(310,317,o),
(340,358,o),
(349,365,cs),
(358,372,o),
(366,383,o),
(364,389,cs),
(361,398,o),
(340,416,o),
(329,416,cs),
(319,416,o),
(307,409,o),
(299,403,cs),
(291,397,o),
(251,383,o),
(237,388,cs),
(214,397,o),
(211,410,o),
(193,403,cs)
);
},
{
closed = 1;
nodes = (
(198,257,o),
(190,245,o),
(193,237,cs),
(201,213,o),
(243,179,o),
(249,185,cs),
(260,196,o),
(257,215,o),
(278,226,cs),
(378,279,o),
(502,319,o),
(639,375,c),
(632,388,l),
(486,336,o),
(344,289,o),
(273,259,cs),
(247,248,o),
(211,264,o),
(202,259,cs)
);
},
{
closed = 1;
nodes = (
(400,608,l),
(412,596,o),
(438,576,o),
(440,526,cs),
(451,247,o),
(450,119,o),
(461,-79,c),
(479,-78,l),
(480,133,o),
(480,342,o),
(485,473,cs),
(487,519,o),
(499,526,o),
(506,526,cs),
(513,526,o),
(526,534,o),
(526,543,cs),
(526,552,o),
(509,589,o),
(415,624,c)
);
}
);
width = 800;
}
);
tags = (
hira
);
unicode = (12416,12512);
},
{
glyphname = "me-hira";
lastChange = "2023-12-28 04:13:41 +0000";
layers = (
{
backgroundImage = {
imagePath = "images/め.png";
locked = 1;
pos = (68,-160);
};
layerId = m01;
shapes = (
{
closed = 1;
nodes = (
(403,650,l),
(394,539,o),
(365,453,o),
(377,357,cs),
(386,291,o),
(428,276,o),
(469,262,cs),
(607,213,o),
(467,183,o),
(414,146,cs),
(360,108,o),
(311,51,o),
(348,-47,c),
(363,-40,l),
(348,0,o),
(350,46,o),
(398,91,cs),
(443,132,o),
(580,147,o),
(596,188,cs),
(612,229,o),
(581,271,o),
(522,289,cs),
(468,305,o),
(414,314,o),
(408,365,cs),
(397,461,o),
(420,508,o),
(426,649,c)
);
},
{
closed = 1;
nodes = (
(182,459,o),
(233,400,o),
(261,408,cs),
(267,410,o),
(275,444,o),
(283,450,cs),
(294,457,o),
(304,459,o),
(319,464,cs),
(323,465,o),
(333,465,o),
(321,445,cs),
(296,405,o),
(242,352,o),
(216,339,cs),
(201,332,o),
(173,340,o),
(165,342,cs),
(159,344,o),
(150,342,o),
(165,320,cs),
(169,312,o),
(199,292,o),
(211,294,cs),
(215,294,o),
(230,317,o),
(239,320,cs),
(350,360,o),
(509,426,o),
(575,466,c),
(571,476,l),
(501,442,o),
(325,369,o),
(275,360,cs),
(264,358,o),
(268,365,o),
(275,370,cs),
(319,407,o),
(396,490,o),
(399,497,cs),
(400,502,o),
(364,515,o),
(339,513,cs),
(331,512,o),
(332,492,o),
(323,484,cs),
(317,478,o),
(264,457,o),
(254,455,cs),
(231,450,o),
(225,459,o),
(211,459,cs)
);
}
);
width = 800;
}
);
tags = (
hira
);
unicode = (12417,12513);
},
{
glyphname = "mo-hira";
lastChange = "2023-12-28 04:13:41 +0000";
layers = (
{
backgroundImage = {
imagePath = "images/も.png";
locked = 1;
pos = (62,-160);
};
layerId = m01;
shapes = (
{
closed = 1;
nodes = (
(436,640,l),
(450,624,o),
(460,605,o),
(455,586,cs),
(446,553,o),
(370,470,o),
(296,470,cs),
(238,470,o),
(294,514,o),
(332,515,cs),
(448,518,o),
(375,348,o),
(356,208,cs),
(340,90,o),
(398,-19,o),
(496,-19,cs),
(586,-19,o),
(657,34,o),
(689,76,c),
(679,88,l),
(637,61,o),
(587,35,o),
(530,35,cs),
(460,35,o),
(407,87,o),
(407,191,cs),
(407,292,o),
(494,517,o),
(352,543,cs),
(270,558,o),
(197,469,o),
(257,446,cs),
(354,410,o),
(479,554,o),
(496,571,cs),
(505,580,o),
(518,587,o),
(518,593,cs),
(518,599,o),
(488,640,o),
(453,653,c)
);
},
{
closed = 1;
nodes = (
(177,379,o),
(172,356,o),
(175,352,cs),
(206,316,o),
(218,313,o),
(222,317,cs),
(236,334,o),
(272,364,o),
(282,369,cs),
(303,379,o),
(298,342,o),
(238,278,c),
(246,269,l),
(298,304,o),
(331,353,o),
(340,360,cs),
(349,367,o),
(372,377,o),
(370,383,cs),
(367,392,o),
(337,410,o),
(326,410,cs),
(316,410,o),
(297,393,o),
(289,387,cs),
(281,381,o),
(233,360,o),
(219,366,cs),
(206,372,o),
(195,379,o),
(183,379,cs)
);
},
{
closed = 1;
nodes = (
(160,233,o),
(126,219,o),
(129,211,cs),
(137,187,o),
(171,162,o),
(177,168,cs),
(188,179,o),
(200,195,o),
(221,202,cs),
(283,223,o),
(391,257,o),
(443,285,c),
(417,298,l),
(374,278,o),
(285,244,o),
(221,239,cs),
(193,237,o),
(173,233,o),
(164,233,cs)
);
}
);
width = 800;
}
);
tags = (
hira
);
unicode = (12418,12514);
},
{
glyphname = "ya-hira";
lastChange = "2023-12-28 04:13:41 +0000";
layers = (
{
backgroundImage = {
imagePath = "images/や.png";
locked = 1;
pos = (43,-160);
};
layerId = m01;
shapes = (
{
closed = 1;
nodes = (
(333,641,l),
(354,614,o),
(394,571,o),
(394,515,cs),
(394,393,o),
(398,125,o),
(388,53,cs),
(385,32,o),
(373,14,o),
(372,8,cs),
(371,2,o),
(380,-19,o),
(385,-31,cs),
(390,-43,o),
(407,-50,o),
(413,-50,cs),
(419,-50,o),
(425,-40,o),
(423,-5,cs),
(417,128,o),
(413,378,o),
(419,481,cs),
(423,538,o),
(432,543,o),
(443,543,cs),
(454,543,o),
(465,550,o),
(465,555,cs),
(465,564,o),
(460,579,o),
(449,588,cs),
(441,595,o),
(411,620,o),
(339,648,c)
);
},
{
closed = 1;
nodes = (
(166,429,o),
(163,423,o),
(167,414,cs),
(171,405,o),
(201,362,o),
(211,361,cs),
(221,360,o),
(231,377,o),
(235,382,cs),
(239,387,o),
(258,392,o),
(265,393,cs),
(278,395,o),
(238,348,o),
(229,330,cs),
(220,312,o),
(217,292,o),
(231,278,cs),
(239,270,o),
(268,272,o),
(280,278,cs),
(293,284,o),
(303,283,o),
(297,256,cs),
(283,189,o),
(199,116,o),
(157,104,c),
(163,94,l),
(242,104,o),
(314,199,o),
(329,257,cs),
(339,297,o),
(362,274,o),
(361,293,cs),
(361,299,o),
(346,321,o),
(334,322,cs),
(318,323,o),
(270,288,o),
(256,300,cs),
(234,321,o),
(312,395,o),
(325,398,cs),
(333,400,o),
(344,400,o),
(348,402,cs),
(352,404,o),
(363,413,o),
(363,420,cs),
(363,427,o),
(329,451,o),
(321,451,cs),
(307,451,o),
(302,439,o),
(288,426,cs),
(278,416,o),
(234,404,o),
(218,405,cs),
(202,406,o),
(185,420,o),
(177,424,cs)
);
},
{
closed = 1;
nodes = (
(553,408,l),
(568,396,o),
(579,381,o),
(568,364,cs),
(518,284,o),
(445,230,o),
(365,177,c),
(368,169,l),
(533,238,o),
(599,327,o),
(626,327,cs),
(640,327,o),
(659,337,o),
(646,360,cs),
(631,386,o),
(581,414,o),
(562,418,c)
);
}
);
width = 800;
}
);
tags = (
hira
);
unicode = (12420,12516);
},
{
color = 1;
glyphname = "yasmall-hira";
lastChange = "2023-12-28 04:33:06 +0000";
layers = (
{
backgroundImage = {
imagePath = "images/拗音_ゃ.png";
locked = 1;
pos = (129,-160);
};
layerId = m01;
shapes = (
{
closed = 1;
nodes = (
(295,393,o),
(289,390,o),
(295,380,cs),
(301,370,o),
(335,332,o),
(345,334,cs),
(349,335,o),
(351,349,o),
(361,355,cs),
(371,361,o),
(435,406,o),
(446,408,cs),
(457,410,o),
(475,412,o),
(482,415,cs),
(489,418,o),
(500,428,o),
(499,432,cs),
(498,436,o),
(457,466,o),
(451,466,cs),
(445,466,o),
(430,435,o),
(425,428,cs),
(420,421,o),
(383,393,o),
(355,385,cs),
(337,380,o),
(314,386,o),
(304,390,cs)
);
},
{
closed = 1;
nodes = (
(369,345,o),
(359,324,o),
(369,296,cs),
(376,277,o),
(403,260,o),
(445,202,cs),
(463,177,o),
(341,67,o),
(274,13,c),
(281,4,l),
(342,36,o),
(454,131,o),
(472,151,cs),
(490,171,o),
(505,157,o),
(513,160,cs),
(521,163,o),
(536,183,o),
(534,191,cs),
(532,199,o),
(473,221,o),
(438,253,cs),
(374,311,o),
(379,365,o),
(435,419,c),
(390,381,l)
);
},
{
closed = 1;
nodes = (
(428,340,o),
(405,296,o),
(394,268,cs),
(372,211,o),
(252,111,o),
(202,89,c),
(209,79,l),
(301,110,o),
(414,207,o),
(435,249,cs),
(451,281,o),
(457,278,o),
(465,282,cs),
(473,286,o),
(486,286,o),
(492,286,cs),
(496,286,o),
(504,297,o),
(503,302,cs),
(502,307,o),
(481,329,o),
(442,337,cs)
);
}
);
width = 800;
}
);
tags = (
hira
);
unicode = (12419,12515);
},
{
glyphname = "yu-hira";
lastChange = "2023-12-28 04:43:53 +0000";
layers = (
{
backgroundImage = {
imagePath = "images/ゆ.png";
locked = 1;
pos = (44,-160);
};
layerId = m01;
shapes = (
{
closed = 1;
nodes = (
(342,606,o),
(406,584,o),
(412,565,cs),
(417,549,o),
(385,543,o),
(371,540,c),
(378,526,l),
(393,524,o),
(416,528,o),
(427,516,cs),
(448,494,o),
(466,495,o),
(483,514,cs),
(488,520,o),
(489,528,o),
(487,537,cs),
(481,567,o),
(437,607,o),
(373,606,cs)
);
},
{
closed = 1;
nodes = (
(211,465,o),
(210,456,o),
(212,448,cs),
(218,424,o),
(279,374,o),
(305,379,cs),
(319,382,o),
(330,414,o),
(358,422,cs),
(420,440,o),
(542,473,o),
(663,513,c),
(656,527,l),
(530,495,o),
(396,456,o),
(299,441,cs),
(272,437,o),
(221,467,o),
(216,466,cs)
);
},
{
closed = 1;
nodes = (
(396,403,o),
(342,345,o),
(370,301,cs),
(406,244,o),
(506,290,o),
(533,325,c),
(510,354,l),
(496,331,o),
(443,298,o),
(408,309,cs),
(361,324,o),
(407,401,o),
(442,454,c),
(423,454,l)
);
},
{
closed = 1;
nodes = (
(491,376,o),
(485,374,o),
(486,367,cs),
(487,360,o),
(524,310,o),
(490,217,cs),
(435,68,o),
(330,16,o),
(239,5,c),
(243,-11,l),
(352,-11,o),
(452,55,o),
(511,153,cs),
(549,217,o),
(557,294,o),
(565,305,cs),
(573,316,o),
(582,326,o),
(589,330,cs),
(594,333,o),
(599,346,o),
(594,350,cs),
(589,354,o),
(533,382,o),
(498,377,cs)
);
}
);
width = 800;
}
);
tags = (
hira
);
unicode = (12422,12518);
},
{
color = 1;
glyphname = "yusmall-hira";
lastChange = "2023-12-28 04:33:06 +0000";
layers = (
{
backgroundImage = {
imagePath = "images/拗音_ゅ.png";
locked = 1;
pos = (137,-160);
};
layerId = m01;
shapes = (
{
closed = 1;
nodes = (
(451,227,l),
(439,223,o),
(417,224,o),
(415,240,cs),
(410,273,o),
(453,324,o),
(467,335,cs),
(473,340,o),
(491,334,o),
(495,336,cs),
(499,338,o),
(510,347,o),
(510,354,cs),
(510,361,o),
(483,376,o),
(475,376,cs),
(461,376,o),
(445,358,o),
(431,345,cs),
(421,335,o),
(347,303,o),
(331,304,cs),
(315,305,o),
(301,321,o),
(293,325,cs),
(287,328,o),
(283,315,o),
(287,306,cs),
(291,297,o),
(317,263,o),
(327,262,cs),
(337,261,o),
(365,296,o),
(395,307,cs),
(416,315,o),
(410,301,o),
(395,271,cs),
(386,253,o),
(382,234,o),
(395,219,cs),
(410,202,o),
(431,198,o),
(456,209,c)
);
},
{
closed = 1;
nodes = (
(444,223,o),
(440,206,cs),
(420,122,o),
(293,20,o),
(251,-4,c),
(257,-14,l),
(362,24,o),
(464,137,o),
(478,210,cs),
(482,233,o),
(510,230,o),
(517,234,cs),
(524,238,o),
(518,253,o),
(515,258,cs),
(512,264,o),
(454,266,o),
(444,261,cs),
(434,256,o)
);
},
{
closed = 1;
nodes = (
(301,417,o),
(284,414,o),
(290,401,cs),
(298,382,o),
(326,340,o),
(334,340,cs),
(345,340,o),
(355,362,o),
(370,372,cs),
(383,381,o),
(458,418,o),
(499,432,c),
(493,444,l),
(451,434,o),
(369,398,o),
(355,392,cs),
(337,385,o),
(324,404,o),
(310,412,cs)
);
}
);
width = 800;
}
);
tags = (
hira
);
unicode = (12421,12517);
},
{
glyphname = "yo-hira";
lastChange = "2023-12-28 04:13:41 +0000";
layers = (
{
backgroundImage = {
imagePath = "images/よ.png";
locked = 1;
pos = (61,-160);
};
layerId = m01;
shapes = (
{
closed = 1;
nodes = (
(160,200,o),
(144,177,o),
(144,164,cs),
(144,154,o),
(169,116,o),
(179,116,cs),
(189,116,o),
(217,149,o),
(227,163,cs),
(237,177,o),
(259,191,o),
(280,191,cs),
(371,191,o),
(472,20,o),
(574,20,cs),
(654,20,o),
(755,68,o),
(789,98,c),
(783,109,l),
(750,83,o),
(682,68,o),
(644,68,cs),
(499,68,o),
(394,218,o),
(310,218,cs),
(248,218,o),
(216,185,o),
(200,182,cs),
(184,179,o),
(173,180,o),
(165,192,cs)
);
},
{
closed = 1;
nodes = (
(264,537,o),
(245,517,o),
(245,506,cs),
(245,495,o),
(291,441,o),
(302,442,cs),
(313,443,o),
(328,475,o),
(347,494,cs),
(366,513,o),
(392,531,o),
(384,515,cs),
(366,479,o),
(312,415,o),
(338,391,cs),
(355,375,o),
(411,391,o),
(427,418,c),
(425,436,l),
(410,421,o),
(388,400,o),
(363,411,cs),
(342,421,o),
(394,498,o),
(446,539,cs),
(473,561,o),
(489,563,o),
(496,568,cs),
(503,573,o),
(474,594,o),
(463,597,cs),
(452,600,o),
(360,539,o),
(338,527,cs),
(316,515,o),
(286,512,o),
(272,528,cs)
);
},
{
closed = 1;
nodes = (
(413,461,o),
(411,450,o),
(414,414,cs),
(420,348,o),
(353,259,o),
(275,211,c),
(295,203,l),
(359,230,o),
(425,301,o),
(473,418,cs),
(477,428,o),
(496,426,o),
(496,432,cs),
(496,446,o),
(468,473,o),
(432,465,cs)
);
}
);
width = 800;
}
);
tags = (
hira
);
unicode = (12424,12520);
},
{
color = 1;
glyphname = "yosmall-hira";
lastChange = "2023-12-28 04:33:06 +0000";
layers = (
{
backgroundImage = {
imagePath = "images/拗音_ょ.png";
locked = 1;
pos = (136,-160);
};
layerId = m01;
shapes = (
{
closed = 1;
nodes = (
(272,468,o),
(263,454,o),
(263,443,cs),
(263,432,o),
(299,391,o),
(310,392,cs),
(321,393,o),
(312,399,o),
(331,418,cs),
(350,437,o),
(351,427,o),
(343,411,cs),
(325,375,o),
(320,346,o),
(340,327,cs),
(363,306,o),
(419,331,o),
(435,358,c),
(419,371,l),
(407,362,o),
(385,349,o),
(368,357,cs),
(347,367,o),
(347,410,o),
(399,451,cs),
(426,473,o),
(451,440,o),
(467,468,cs),
(471,475,o),
(435,497,o),
(424,500,cs),
(413,503,o),
(359,466,o),
(337,454,cs),
(315,442,o),
(294,443,o),
(280,459,cs)
);
},
{
closed = 1;
nodes = (
(392,382,o),
(400,362,o),
(387,327,cs),
(351,228,o),
(227,154,o),
(183,136,c),
(190,124,l),
(261,137,o),
(384,222,o),
(426,324,cs),
(430,334,o),
(459,343,o),
(459,349,cs),
(459,363,o),
(430,382,o),
(405,382,cs)
);
},
{
closed = 1;
nodes = (
(349,223,l),
(359,233,o),
(374,239,o),
(385,239,cs),
(417,239,o),
(413,205,o),
(400,144,cs),
(389,89,o),
(423,55,o),
(466,55,cs),
(512,55,o),
(575,89,o),
(601,131,c),
(591,140,l),
(566,116,o),
(533,89,o),
(493,89,cs),
(451,89,o),
(437,118,o),
(447,172,cs),
(460,241,o),
(418,264,o),
(392,264,cs),
(367,264,o),
(361,254,o),
(342,240,c)
);
}
);
width = 800;
}
);
tags = (
hira
);
unicode = (12423,12519);
},
{
glyphname = "ra-hira";
lastChange = "2023-12-28 04:44:12 +0000";
layers = (
{
backgroundImage = {
imagePath = "images/ら.png";
locked = 1;
pos = (57,-160);
};
layerId = m01;
shapes = (
{
closed = 1;
nodes = (
(272,551,o),
(268,548,o),
(270,535,cs),
(274,506,o),
(310,449,o),
(338,453,cs),
(357,456,o),
(463,527,o),
(477,534,cs),
(491,541,o),
(489,525,o),
(483,507,cs),
(445,399,o),
(301,233,o),
(274,249,cs),
(242,268,o),
(358,383,o),
(433,383,cs),
(596,383,o),
(488,56,o),
(301,15,c),
(305,-4,l),
(583,36,o),
(682,406,o),
(447,406,cs),
(371,406,o),
(192,269,o),
(246,224,cs),
(285,192,o),
(377,270,o),
(494,474,cs),
(510,503,o),
(536,519,o),
(544,519,cs),
(555,519,o),
(583,545,o),
(583,554,cs),
(583,567,o),
(536,594,o),
(519,595,cs),
(502,596,o),
(493,569,o),
(488,565,cs),
(476,555,o),
(376,510,o),
(348,510,cs),
(327,510,o),
(303,535,o),
(291,541,cs)
);
}
);
width = 800;
}
);
tags = (
hira
);
unicode = (12425,12521);
},
{
glyphname = "ri-hira";
lastChange = "2023-12-28 04:44:30 +0000";
layers = (
{
backgroundImage = {
imagePath = "images/り.png";
locked = 1;
pos = (70,-160);
};
hints = (
{
origin = (0,4);
target = (0,30);
type = Stem;
}
);
layerId = m01;
shapes = (
{
closed = 1;
nodes = (
(320,630,l),
(347,603,o),
(367,589,o),
(377,564,cs),
(387,539,o),
(385,178,o),
(385,104,cs),
(385,76,o),
(385,30,o),
(383,26,cs),
(381,22,o),
(374,31,o),
(366,26,cs),
(360,22,o),
(367,-5,o),
(377,-21,cs),
(388,-39,o),
(401,-52,o),
(416,-52,cs),
(429,-52,o),
(442,-52,o),
(442,-41,cs),
(442,-34,o),
(442,-26,o),
(435,-13,cs),
(428,0,o),
(412,6,o),
(411,45,cs),
(406,179,o),
(414,489,o),
(419,509,cs),
(426,538,o),
(430,553,o),
(439,553,cs),
(448,553,o),
(462,552,o),
(462,559,cs),
(462,566,o),
(466,578,o),
(434,598,cs),
(404,617,o),
(389,626,o),
(329,639,c)
);
},
{
closed = 1;
nodes = (
(538,459,o),
(541,438,o),
(531,426,cs),
(520,413,o),
(470,369,o),
(459,318,cs),
(429,181,o),
(572,89,o),
(688,99,c),
(691,110,l),
(609,120,o),
(550,148,o),
(512,215,cs),
(474,285,o),
(512,362,o),
(548,367,cs),
(568,370,o),
(575,355,o),
(575,351,cs),
(575,344,o),
(588,340,o),
(594,340,cs),
(605,340,o),
(615,348,o),
(615,357,cs),
(615,372,o),
(597,439,o),
(548,456,cs)
);
},
{
closed = 1;
nodes = (
(178,394,o),
(171,382,o),
(171,366,cs),
(171,340,o),
(192,325,o),
(209,325,cs),
(215,325,o),
(268,367,o),
(288,382,cs),
(300,391,o),
(294,365,o),
(285,325,cs),
(277,290,o),
(206,149,o),
(118,122,c),
(129,110,l),
(215,138,o),
(273,211,o),
(301,270,cs),
(316,301,o),
(321,321,o),
(333,373,cs),
(335,382,o),
(342,396,o),
(351,396,cs),
(357,396,o),
(358,418,o),
(355,422,cs),
(352,426,o),
(310,434,o),
(301,427,cs),
(292,420,o),
(240,381,o),
(222,373,cs),
(211,368,o),
(189,378,o),
(185,384,cs)
);
},
{
closed = 1;
nodes = (
(211,285,l),
(235,278,o),
(283,257,o),
(294,236,cs),
(302,220,o),
(312,214,o),
(318,214,cs),
(324,214,o),
(352,237,o),
(352,247,cs),
(352,262,o),
(324,294,o),
(219,298,c)
);
}
);
width = 800;
}
);
tags = (
hira
);
unicode = (12426,12522);
},
{
glyphname = "ru-hira";
lastChange = "2023-12-28 04:44:57 +0000";
layers = (
{
backgroundImage = {
imagePath = "images/る.png";
locked = 1;
pos = (73,-160);
};
hints = (
{
origin = (0,3);
target = (0,27);
type = Stem;
}
);
layerId = m01;
shapes = (
{
closed = 1;
nodes = (
(363,639,l),
(374,619,o),
(393,591,o),
(395,546,cs),
(401,413,o),
(400,162,o),
(395,78,cs),
(393,34,o),
(388,34,o),
(387,30,cs),
(380,9,o),
(393,-25,o),
(402,-35,cs),
(413,-47,o),
(425,-45,o),
(430,-45,cs),
(435,-45,o),
(448,-42,o),
(453,-18,cs),
(455,-10,o),
(448,0,o),
(444,11,cs),
(440,22,o),
(432,48,o),
(428,127,cs),
(421,260,o),
(423,413,o),
(426,488,cs),
(427,520,o),
(430,532,o),
(433,534,cs),
(436,536,o),
(455,532,o),
(464,532,cs),
(473,532,o),
(487,544,o),
(487,552,cs),
(487,565,o),
(482,570,o),
(474,581,cs),
(464,595,o),
(436,616,o),
(373,647,c)
);
},
{
closed = 1;
nodes = (
(306,172,o),
(306,165,cs),
(306,144,o),
(341,101,o),
(360,101,cs),
(372,101,o),
(386,132,o),
(426,147,cs),
(460,160,o),
(601,220,o),
(704,270,c),
(699,280,l),
(643,259,o),
(433,173,o),
(379,165,cs),
(367,163,o),
(349,177,o),
(339,198,cs),
(331,214,o)
);
},
{
closed = 1;
nodes = (
(186,400,o),
(182,387,o),
(182,371,cs),
(182,345,o),
(206,325,o),
(223,325,cs),
(229,325,o),
(276,367,o),
(296,382,cs),
(308,391,o),
(309,347,o),
(278,281,cs),
(237,192,o),
(171,147,o),
(136,138,c),
(148,127,l),
(191,126,o),
(266,186,o),
(306,280,cs),
(331,339,o),
(341,400,o),
(350,400,cs),
(356,400,o),
(363,414,o),
(360,418,cs),
(357,422,o),
(318,429,o),
(309,422,cs),
(300,415,o),
(255,381,o),
(237,373,cs),
(226,368,o),
(197,384,o),
(193,390,cs)
);
},
{
closed = 1;
nodes = (
(226,292,l),
(250,285,o),
(292,269,o),
(303,248,cs),
(311,232,o),
(321,221,o),
(327,221,cs),
(333,221,o),
(360,246,o),
(360,256,cs),
(360,271,o),
(339,301,o),
(234,305,c)
);
}
);
width = 800;
}
);
tags = (
hira
);
unicode = (12427,12523);
},
{
glyphname = "re-hira";
lastChange = "2023-12-28 04:45:05 +0000";
layers = (
{
backgroundImage = {
imagePath = "images/れ.png";
locked = 1;
pos = (80,-160);
};
layerId = m01;
shapes = (
{
closed = 1;
nodes = (
(284,628,o),
(273,597,o),
(273,590,cs),
(273,568,o),
(320,517,o),
(337,517,cs),
(360,517,o),
(374,571,o),
(427,601,cs),
(463,622,o),
(471,619,o),
(446,577,cs),
(429,548,o),
(400,524,o),
(405,497,cs),
(412,456,o),
(495,420,o),
(490,371,cs),
(480,285,o),
(105,152,o),
(232,-63,c),
(248,-50,l),
(186,136,o),
(417,229,o),
(552,328,cs),
(590,356,o),
(572,407,o),
(522,435,cs),
(480,459,o),
(435,487,o),
(442,512,cs),
(454,557,o),
(515,612,o),
(532,619,cs),
(538,622,o),
(551,625,o),
(551,632,cs),
(551,643,o),
(518,670,o),
(506,670,cs),
(482,670,o),
(371,594,o),
(347,590,cs),
(323,586,o),
(305,597,o),
(290,619,cs)
);
},
{
closed = 1;
nodes = (
(313,309,l),
(360,258,o),
(388,213,o),
(388,195,cs),
(388,165,o),
(340,163,o),
(335,149,cs),
(330,136,o),
(393,149,o),
(407,141,cs),
(416,136,o),
(432,121,o),
(458,147,cs),
(482,171,o),
(471,213,o),
(321,318,c)
);
}
);
width = 800;
}
);
tags = (
hira
);
unicode = (12428,12524);
},
{
glyphname = "ro-hira";
lastChange = "2023-12-28 04:45:10 +0000";
layers = (
{
backgroundImage = {
imagePath = "images/ろ.png";
locked = 1;
pos = (77,-160);
};
layerId = m01;
shapes = (
{
closed = 1;
nodes = (
(131,193,o),
(119,177,o),
(119,164,cs),
(119,154,o),
(144,116,o),
(154,116,cs),
(164,116,o),
(192,149,o),
(202,163,cs),
(212,177,o),
(234,191,o),
(255,191,cs),
(346,191,o),
(447,20,o),
(549,20,cs),
(629,20,o),
(720,73,o),
(754,103,c),
(748,114,l),
(704,93,o),
(648,73,o),
(610,73,cs),
(465,73,o),
(369,218,o),
(285,218,cs),
(223,218,o),
(191,185,o),
(175,182,cs),
(159,179,o),
(152,181,o),
(140,188,cs)
);
},
{
closed = 1;
nodes = (
(310,550,o),
(299,527,o),
(299,511,cs),
(299,485,o),
(336,446,o),
(353,446,cs),
(359,446,o),
(430,516,o),
(450,531,cs),
(462,540,o),
(467,515,o),
(433,413,cs),
(402,320,o),
(315,236,o),
(269,210,c),
(302,209,l),
(377,251,o),
(435,336,o),
(475,430,cs),
(500,489,o),
(509,552,o),
(518,552,cs),
(524,552,o),
(532,559,o),
(532,568,cs),
(532,573,o),
(486,590,o),
(477,581,cs),
(450,552,o),
(399,515,o),
(372,507,cs),
(360,503,o),
(321,534,o),
(317,540,cs)
);
},
{
closed = 1;
nodes = (
(348,413,l),
(393,407,o),
(438,375,o),
(455,353,cs),
(469,334,o),
(461,308,o),
(473,308,cs),
(479,308,o),
(531,343,o),
(531,353,cs),
(531,359,o),
(518,387,o),
(500,399,cs),
(472,418,o),
(422,423,o),
(356,426,c)
);
}
);
width = 800;
}
);
tags = (
hira
);
unicode = (12429,12525);
},
{
glyphname = "wa-hira";
lastChange = "2023-12-28 04:45:32 +0000";
layers = (
{
backgroundImage = {
imagePath = "images/わ.png";
locked = 1;
pos = (70,-160);
};
hints = (
{
origin = (0,3);
target = (0,24);
type = Stem;
}
);
layerId = m01;
shapes = (
{
closed = 1;
nodes = (
(332,645,l),
(353,618,o),
(393,575,o),
(393,519,cs),
(393,397,o),
(397,129,o),
(387,57,cs),
(384,36,o),
(376,16,o),
(375,10,cs),
(374,4,o),
(381,-17,o),
(386,-29,cs),
(391,-41,o),
(404,-54,o),
(410,-51,cs),
(416,-48,o),
(433,-39,o),
(425,-5,cs),
(420,17,o),
(419,51,o),
(418,82,cs),
(414,218,o),
(413,401,o),
(418,485,cs),
(422,542,o),
(431,547,o),
(442,547,cs),
(453,547,o),
(464,554,o),
(464,559,cs),
(464,568,o),
(459,583,o),
(448,592,cs),
(440,599,o),
(410,624,o),
(338,652,c)
);
},
{
closed = 1;
nodes = (
(555,414,l),
(572,398,o),
(585,388,o),
(572,363,cs),
(550,320,o),
(438,212,o),
(361,176,c),
(365,168,l),
(482,212,o),
(530,263,o),
(572,302,cs),
(610,338,o),
(622,320,o),
(635,320,cs),
(642,320,o),
(649,323,o),
(649,342,cs),
(649,358,o),
(638,388,o),
(563,419,c)
);
},
{
closed = 1;
nodes = (
(247,310,o),
(222,326,o),
(227,340,cs),
(232,354,o),
(251,395,o),
(292,400,cs),
(365,409,o),
(285,275,o),
(207,224,cs),
(171,201,o),
(153,207,o),
(150,200,cs),
(142,180,o),
(180,154,o),
(188,154,cs),
(198,154,o),
(208,180,o),
(220,188,cs),
(232,196,o),
(297,225,o),
(317,223,cs),
(337,221,o),
(358,221,o),
(364,221,cs),
(370,221,o),
(380,229,o),
(380,236,cs),
(380,243,o),
(349,262,o),
(338,262,cs),
(327,262,o),
(283,233,o),
(258,222,cs),
(246,217,o),
(240,223,o),
(251,235,cs),
(276,262,o),
(348,339,o),
(348,374,cs),
(348,415,o),
(321,427,o),
(292,424,cs),
(245,419,o),
(183,370,o),
(178,312,cs),
(176,283,o),
(204,275,o),
(219,275,cs),
(231,275,o),
(272,288,o),
(273,296,cs),
(277,320,o),
(264,346,o),
(258,333,cs)
);
}
);
width = 800;
}
);
tags = (
hira
);
unicode = (12431,12527);
},
{
glyphname = "wo-hira";
lastChange = "2023-12-28 04:13:41 +0000";
layers = (
{
backgroundImage = {
imagePath = "images/を.png";
locked = 1;
pos = (44,-160);
};
layerId = m01;
shapes = (
{
closed = 1;
nodes = (
(224,219,o),
(199,235,o),
(204,249,cs),
(209,263,o),
(228,304,o),
(269,309,cs),
(342,318,o),
(262,184,o),
(184,133,cs),
(148,110,o),
(130,116,o),
(127,109,cs),
(119,89,o),
(157,63,o),
(165,63,cs),
(175,63,o),
(185,89,o),
(197,97,cs),
(209,105,o),
(274,134,o),
(294,132,cs),
(314,130,o),
(335,130,o),
(341,130,cs),
(347,130,o),
(357,138,o),
(357,145,cs),
(357,152,o),
(326,171,o),
(315,171,cs),
(304,171,o),
(260,142,o),
(235,131,cs),
(223,126,o),
(217,132,o),
(228,144,cs),
(253,171,o),
(325,248,o),
(325,283,cs),
(325,324,o),
(298,336,o),
(269,333,cs),
(222,328,o),
(160,279,o),
(155,221,cs),
(153,192,o),
(181,184,o),
(196,184,cs),
(208,184,o),
(249,197,o),
(250,205,cs),
(254,229,o),
(241,255,o),
(235,242,cs)
);
},
{
closed = 1;
nodes = (
(270,599,o),
(240,565,o),
(240,553,cs),
(240,529,o),
(277,500,o),
(293,500,cs),
(305,500,o),
(324,517,o),
(336,553,cs),
(342,570,o),
(350,592,o),
(359,600,c),
(350,606,l),
(327,593,o),
(307,561,o),
(296,561,cs),
(285,561,o),
(272,571,o),
(271,586,cs)
);
},
{
closed = 1;
nodes = (
(397,654,o),
(394,638,o),
(394,633,cs),
(394,622,o),
(424,604,o),
(422,595,cs),
(413,562,o),
(316,454,o),
(277,428,cs),
(262,418,o),
(259,406,o),
(259,397,cs),
(259,389,o),
(273,372,o),
(279,372,cs),
(285,372,o),
(293,387,o),
(308,413,cs),
(318,430,o),
(345,442,o),
(376,430,cs),
(477,391,o),
(402,271,o),
(402,162,cs),
(402,7,o),
(498,-42,o),
(563,-42,cs),
(643,-42,o),
(709,10,o),
(730,46,c),
(719,59,l),
(684,26,o),
(634,7,o),
(596,7,cs),
(521,7,o),
(459,93,o),
(459,172,cs),
(459,278,o),
(501,384,o),
(427,435,cs),
(403,452,o),
(375,459,o),
(353,459,cs),
(341,459,o),
(347,466,o),
(352,471,cs),
(394,517,o),
(431,555,o),
(454,576,cs),
(468,588,o),
(486,591,o),
(486,598,cs),
(486,604,o),
(477,614,o),
(468,621,cs),
(447,636,o),
(419,641,o),
(404,650,cs)
);
}
);
width = 800;
}
);
tags = (
hira
);
unicode = (12434,12530);
},
{
glyphname = "n-hira";
lastChange = "2023-12-28 04:45:40 +0000";
layers = (
{
backgroundImage = {
imagePath = "images/ん.png";
pos = (49,-160);
};
layerId = m01;
shapes = (
{
closed = 1;
nodes = (
(221,473,o),
(193,423,o),
(193,413,cs),
(193,391,o),
(221,347,o),
(250,347,cs),
(265,347,o),
(303,403,o),
(412,442,cs),
(476,465,o),
(525,449,o),
(516,413,cs),
(500,355,o),
(453,334,o),
(417,278,cs),
(365,193,o),
(406,125,o),
(489,77,c),
(500,90,l),
(406,182,o),
(434,243,o),
(465,278,cs),
(484,300,o),
(537,337,o),
(562,378,cs),
(583,413,o),
(594,473,o),
(507,485,cs),
(441,494,o),
(354,465,o),
(282,413,cs),
(248,388,o),
(230,431,o),
(225,456,cs)
);
}
);
width = 800;
}
);
tags = (
hira
);
unicode = (12435,12531);
},
{
color = 9;
glyphname = "digraphyori-hira";
lastChange = "2023-12-28 04:13:41 +0000";
layers = (
{
backgroundImage = {
imagePath = "images/dlig_より.png";
locked = 1;
pos = (-64,-160);
};
layerId = m01;
shapes = (
{
closed = 1;
nodes = (
(293,633,o),
(280,615,o),
(280,596,cs),
(280,585,o),
(331,533,o),
(347,533,cs),
(359,533,o),
(376,553,o),
(389,560,cs),
(408,570,o),
(435,578,o),
(458,583,c),
(385,499,o),
(291,414,o),
(334,367,cs),
(370,327,o),
(412,351,o),
(468,399,c),
(456,420,l),
(431,401,o),
(396,371,o),
(376,387,cs),
(319,433,o),
(432,515,o),
(495,578,cs),
(500,583,o),
(511,588,o),
(518,587,cs),
(529,585,o),
(535,582,o),
(540,582,cs),
(548,582,o),
(564,599,o),
(564,611,cs),
(564,623,o),
(518,656,o),
(483,656,cs),
(470,656,o),
(477,601,o),
(360,588,cs),
(345,586,o),
(316,602,o),
(297,627,cs)
);
},
{
closed = 1;
nodes = (
(440,441,o),
(441,430,o),
(451,361,cs),
(464,273,o),
(309,36,o),
(256,56,cs),
(190,81,o),
(280,213,o),
(407,213,cs),
(484,213,o),
(507,161,o),
(514,161,cs),
(521,161,o),
(560,183,o),
(560,192,cs),
(560,201,o),
(550,254,o),
(415,254,cs),
(334,254,o),
(129,129,o),
(224,6,cs),
(252,-30,o),
(418,85,o),
(494,330,cs),
(506,370,o),
(542,397,o),
(542,405,cs),
(542,413,o),
(535,435,o),
(519,441,cs),
(503,447,o),
(458,450,o),
(448,445,cs)
);
}
);
width = 800;
}
);
tags = (
dlig,
hira
);
unicode = 12447;
},
{
color = 9;
glyphname = "digraphkoto-kata";
lastChange = "2023-12-28 04:13:41 +0000";
layers = (
{
backgroundImage = {
imagePath = "images/dlig_コト.png";
locked = 1;
pos = (-33,-160);
};
layerId = m01;
shapes = (
{
closed = 1;
nodes = (
(425,699,l),
(436,687,o),
(457,673,o),
(457,664,cs),
(457,652,o),
(350,629,o),
(321,536,cs),
(304,483,o),
(348,420,o),
(440,402,cs),
(615,369,o),
(568,258,o),
(450,117,cs),
(380,32,o),
(274,15,o),
(204,15,c),
(207,-4,l),
(376,-27,o),
(504,70,o),
(570,206,cs),
(632,334,o),
(603,402,o),
(457,443,cs),
(403,458,o),
(361,485,o),
(371,516,cs),
(393,587,o),
(482,602,o),
(525,587,cs),
(541,581,o),
(551,573,o),
(570,573,cs),
(577,573,o),
(585,607,o),
(585,617,cs),
(585,625,o),
(528,682,o),
(440,709,c)
);
},
{
closed = 1;
nodes = (
(234,311,cs),
(227,298,o),
(233,275,o),
(239,261,cs),
(252,231,o),
(274,226,o),
(288,226,cs),
(300,226,o),
(318,253,o),
(323,264,cs),
(336,294,o),
(363,314,o),
(377,331,c),
(375,338,l),
(340,319,o),
(310,286,o),
(288,286,cs),
(275,286,o),
(260,301,o),
(252,323,cs),
(251,326,o),
(239,320,o)
);
},
{
closed = 1;
nodes = (
(468,356,o),
(411,320,o),
(391,273,cs),
(373,231,o),
(394,175,o),
(423,165,cs),
(459,153,o),
(526,194,o),
(542,213,cs),
(558,232,o),
(591,326,o),
(525,342,cs)
);
},
{
closed = 1;
nodes = (
(539,312,o),
(539,286,o),
(520,261,cs),
(493,226,o),
(455,214,o),
(442,219,cs),
(414,230,o),
(429,270,o),
(442,289,cs),
(459,313,o),
(488,328,o),
(506,322,cs)
);
}
);
width = 800;
}
);
tags = (
dlig,
kata
);
unicode = 12543;
},
{
color = 2;
glyphname = "a_a-hira";
lastChange = "2023-12-28 04:59:29 +0000";
layers = (
{
backgroundImage = {
imagePath = "images/lig_あぁ.png";
pos = (129,-160);
};
hints = (
{
origin = (0,3);
place = (388, 28);
type = Stem;
}
);
layerId = m01;
shapes = (
{
closed = 1;
nodes = (
(327,668,l),
(348,641,o),
(388,598,o),
(388,542,cs),
(388,420,o),
(392,69,o),
(382,-3,cs),
(381,-7,o),
(344,28,o),
(251,-108,c),
(259,-116,l),
(363,3,o),
(373,-50,o),
(375,-57,cs),
(377,-65,o),
(380,-74,o),
(383,-81,cs),
(388,-93,o),
(401,-106,o),
(407,-106,cs),
(413,-106,o),
(419,-96,o),
(417,-61,cs),
(411,72,o),
(407,405,o),
(413,508,cs),
(417,565,o),
(426,570,o),
(437,570,cs),
(448,570,o),
(459,577,o),
(459,582,cs),
(459,591,o),
(454,606,o),
(443,615,cs),
(435,622,o),
(405,647,o),
(333,675,c)
);
},
{
closed = 1;
nodes = (
(473,493,l),
(488,481,o),
(495,467,o),
(488,454,cs),
(442,371,o),
(284,277,o),
(157,249,c),
(162,236,l),
(340,265,o),
(435,338,o),
(511,388,cs),
(526,398,o),
(547,413,o),
(561,413,cs),
(573,413,o),
(582,430,o),
(567,455,cs),
(551,481,o),
(503,502,o),
(484,506,c)
);
},
{
closed = 1;
nodes = (
(469,279,l),
(484,267,o),
(486,248,o),
(469,230,cs),
(418,177,o),
(333,139,o),
(197,123,c),
(202,110,l),
(277,110,o),
(396,132,o),
(479,177,cs),
(494,185,o),
(520,178,o),
(534,178,cs),
(546,178,o),
(555,203,o),
(540,228,cs),
(524,254,o),
(505,279,o),
(481,292,c)
);
}
);
width = 800;
}
);
tags = (
liga
);
},
{
color = 2;
glyphname = "a_i-hira";
lastChange = "2023-12-28 04:59:34 +0000";
layers = (
{
backgroundImage = {
imagePath = "images/lig_あぃ.png";
pos = (128,-157);
};
hints = (
{
origin = (0,3);
place = (388, 28);
type = Stem;
}
);
layerId = m01;
shapes = (
{
closed = 1;
nodes = (
(327,668,l),
(348,641,o),
(388,598,o),
(388,542,cs),
(388,420,o),
(392,69,o),
(382,-3,cs),
(381,-7,o),
(344,28,o),
(251,-108,c),
(259,-116,l),
(363,3,o),
(373,-50,o),
(375,-57,cs),
(377,-65,o),
(380,-74,o),
(383,-81,cs),
(388,-93,o),
(401,-106,o),
(407,-106,cs),
(413,-106,o),
(419,-96,o),
(417,-61,cs),
(411,72,o),
(407,405,o),
(413,508,cs),
(417,565,o),
(426,570,o),
(437,570,cs),
(448,570,o),
(459,577,o),
(459,582,cs),
(459,591,o),
(454,606,o),
(443,615,cs),
(435,622,o),
(405,647,o),
(333,675,c)
);
},
{
closed = 1;
nodes = (
(485,493,l),
(498,481,o),
(505,467,o),
(498,454,cs),
(458,371,o),
(321,278,o),
(217,240,c),
(222,227,l),
(378,267,o),
(451,338,o),
(519,388,cs),
(532,398,o),
(551,413,o),
(563,413,cs),
(574,413,o),
(582,430,o),
(569,455,cs),
(554,481,o),
(512,502,o),
(495,506,c)
);
},
{
closed = 1;
nodes = (
(523,348,o),
(526,327,o),
(516,315,cs),
(505,302,o),
(455,258,o),
(444,207,cs),
(414,70,o),
(557,-22,o),
(673,-12,c),
(676,-1,l),
(594,9,o),
(535,37,o),
(497,104,cs),
(459,174,o),
(497,251,o),
(533,256,cs),
(545,258,o),
(562,247,o),
(559,243,cs),
(555,238,o),
(574,235,o),
(580,235,cs),
(589,235,o),
(599,246,o),
(599,254,cs),
(599,267,o),
(582,328,o),
(533,345,cs)
);
}
);
width = 800;
}
);
tags = (
liga
);
},
{
color = 2;
glyphname = "a_u-hira";
lastChange = "2023-12-28 04:59:38 +0000";
layers = (
{
backgroundImage = {
imagePath = "images/lig_あぅ.png";
pos = (127,-160);
};
hints = (
{
origin = (0,3);
place = (388, 28);
type = Stem;
}
);
layerId = m01;
shapes = (
{
closed = 1;
nodes = (
(327,668,l),
(348,641,o),
(388,598,o),
(388,542,cs),
(388,420,o),
(392,69,o),
(382,-3,cs),
(381,-7,o),
(344,28,o),
(251,-108,c),
(259,-116,l),
(363,3,o),
(373,-50,o),
(375,-57,cs),
(377,-65,o),
(380,-74,o),
(383,-81,cs),
(388,-93,o),
(401,-106,o),
(407,-106,cs),
(413,-106,o),
(419,-96,o),
(417,-61,cs),
(411,72,o),
(407,405,o),
(413,508,cs),
(417,565,o),
(426,570,o),
(437,570,cs),
(448,570,o),
(459,577,o),
(459,582,cs),
(459,591,o),
(454,606,o),
(443,615,cs),
(435,622,o),
(405,647,o),
(333,675,c)
);
},
{
closed = 1;
nodes = (
(485,493,l),
(498,481,o),
(505,467,o),
(498,454,cs),
(458,371,o),
(316,283,o),
(212,245,c),
(217,232,l),
(373,272,o),
(447,344,o),
(515,394,cs),
(528,404,o),
(551,413,o),
(563,413,cs),
(574,413,o),
(582,430,o),
(569,455,cs),
(554,481,o),
(512,502,o),
(495,506,c)
);
},
{
closed = 1;
nodes = (
(224,267,o),
(203,251,o),
(203,247,cs),
(203,232,o),
(226,222,o),
(230,222,cs),
(234,222,o),
(265,247,o),
(283,247,cs),
(366,247,o),
(282,153,o),
(282,132,cs),
(282,119,o),
(316,71,o),
(334,71,cs),
(348,71,o),
(362,90,o),
(400,112,cs),
(469,153,o),
(627,215,o),
(685,239,c),
(679,253,l),
(556,213,o),
(430,156,o),
(378,132,cs),
(357,122,o),
(332,123,o),
(332,143,cs),
(332,160,o),
(366,234,o),
(330,250,cs),
(299,264,o),
(253,267,o),
(232,267,cs)
);
}
);
width = 800;
}
);
tags = (
liga
);
},
{
color = 2;
glyphname = "a_e-hira";
lastChange = "2023-12-28 04:59:40 +0000";
layers = (
{
backgroundImage = {
imagePath = "images/lig_あぇ.png";
pos = (130,-164);
};
hints = (
{
origin = (0,3);
place = (388, 28);
type = Stem;
}
);
layerId = m01;
shapes = (
{
closed = 1;
nodes = (
(327,668,l),
(348,641,o),
(388,598,o),
(388,542,cs),
(388,420,o),
(392,69,o),
(382,-3,cs),
(381,-7,o),
(344,28,o),
(251,-108,c),
(259,-116,l),
(363,3,o),
(373,-50,o),
(375,-57,cs),
(377,-65,o),
(380,-74,o),
(383,-81,cs),
(388,-93,o),
(401,-106,o),
(407,-106,cs),
(413,-106,o),
(419,-96,o),
(417,-61,cs),
(411,72,o),
(407,405,o),
(413,508,cs),
(417,565,o),
(426,570,o),
(437,570,cs),
(448,570,o),
(459,577,o),
(459,582,cs),
(459,591,o),
(454,606,o),
(443,615,cs),
(435,622,o),
(405,647,o),
(333,675,c)
);
},
{
closed = 1;
nodes = (
(498,582,l),
(511,574,o),
(518,564,o),
(511,555,cs),
(471,497,o),
(334,433,o),
(230,406,c),
(235,397,l),
(391,425,o),
(453,475,o),
(521,510,cs),
(534,517,o),
(564,526,o),
(576,526,cs),
(587,526,o),
(595,538,o),
(582,556,cs),
(567,574,o),
(525,588,o),
(508,591,c)
);
},
{
closed = 1;
nodes = (
(430,398,cs),
(430,405,o),
(415,414,o),
(401,425,c),
(364,408,o),
(297,364,o),
(297,334,cs),
(297,299,o),
(369,292,o),
(443,251,cs),
(508,215,o),
(532,190,o),
(529,155,cs),
(527,129,o),
(483,94,o),
(412,90,cs),
(313,83,o),
(193,12,o),
(224,-72,c),
(236,-69,l),
(236,-1,o),
(301,51,o),
(391,55,cs),
(464,58,o),
(528,54,o),
(565,101,cs),
(622,177,o),
(536,222,o),
(469,256,cs),
(364,309,o),
(320,315,o),
(320,339,cs),
(320,351,o),
(341,374,o),
(371,385,cs),
(388,391,o),
(403,386,o),
(423,386,cs),
(427,386,o),
(430,391,o)
);
}
);
width = 800;
}
);
tags = (
liga
);
},
{
color = 2;
glyphname = "a_o-hira";
lastChange = "2023-12-28 04:59:45 +0000";
layers = (
{
backgroundImage = {
imagePath = "images/lig_あぉ.png";
pos = (130,-169);
};
hints = (
{
origin = (0,3);
place = (388, 28);
type = Stem;
}
);
layerId = m01;
shapes = (
{
closed = 1;
nodes = (
(327,668,l),
(348,641,o),
(388,598,o),
(388,542,cs),
(388,420,o),
(392,69,o),
(382,-3,cs),
(381,-7,o),
(344,28,o),
(251,-108,c),
(259,-116,l),
(363,3,o),
(373,-50,o),
(375,-57,cs),
(377,-65,o),
(380,-74,o),
(383,-81,cs),
(388,-93,o),
(401,-106,o),
(407,-106,cs),
(413,-106,o),
(419,-96,o),
(417,-61,cs),
(411,72,o),
(407,405,o),
(413,508,cs),
(417,565,o),
(426,570,o),
(437,570,cs),
(448,570,o),
(459,577,o),
(459,582,cs),
(459,591,o),
(454,606,o),
(443,615,cs),
(435,622,o),
(405,647,o),
(333,675,c)
);
},
{
closed = 1;
nodes = (
(498,582,l),
(511,574,o),
(518,564,o),
(511,555,cs),
(471,497,o),
(334,433,o),
(230,406,c),
(235,397,l),
(391,425,o),
(453,475,o),
(521,510,cs),
(534,517,o),
(564,526,o),
(576,526,cs),
(587,526,o),
(595,538,o),
(582,556,cs),
(567,574,o),
(525,588,o),
(508,591,c)
);
},
{
closed = 1;
nodes = (
(255,355,o),
(244,339,o),
(240,331,cs),
(225,301,o),
(262,256,o),
(290,256,cs),
(306,256,o),
(315,287,o),
(311,288,cs),
(305,290,o),
(299,293,o),
(296,298,cs),
(293,303,o),
(296,321,o),
(303,331,cs),
(317,350,o),
(351,393,o),
(393,393,cs),
(435,393,o),
(465,348,o),
(475,314,cs),
(487,272,o),
(467,201,o),
(467,151,cs),
(467,100,o),
(497,39,o),
(584,39,cs),
(674,39,o),
(752,131,o),
(752,171,c),
(743,180,l),
(735,143,o),
(670,86,o),
(616,86,cs),
(543,86,o),
(515,137,o),
(519,213,cs),
(525,326,o),
(475,412,o),
(384,412,cs),
(332,412,o),
(305,365,o),
(276,357,cs),
(272,356,o),
(264,355,o),
(260,355,cs)
);
}
);
width = 800;
}
);
tags = (
liga
);
},
{
color = 2;
glyphname = "i_a-hira";
lastChange = "2023-12-28 04:59:49 +0000";
layers = (
{
backgroundImage = {
imagePath = "images/lig_いぁ.png";
pos = (67,-183);
};
hints = (
{
origin = (0,3);
place = (387, 30);
type = Stem;
}
);
layerId = m01;
shapes = (
{
closed = 1;
nodes = (
(329,661,l),
(347,650,o),
(378,618,o),
(387,562,cs),
(398,495,o),
(390,79,o),
(388,41,cs),
(386,-3,o),
(381,-12,o),
(375,-20,cs),
(372,-23,o),
(331,8,o),
(252,-122,c),
(265,-130,l),
(335,-25,o),
(368,-43,o),
(370,-52,cs),
(374,-68,o),
(386,-85,o),
(403,-102,cs),
(412,-110,o),
(442,-106,o),
(442,-93,cs),
(442,-84,o),
(437,-67,o),
(427,-54,cs),
(421,-46,o),
(415,-25,o),
(412,39,cs),
(408,119,o),
(416,428,o),
(421,528,cs),
(423,572,o),
(441,580,o),
(450,581,cs),
(459,582,o),
(469,587,o),
(469,598,cs),
(469,605,o),
(465,614,o),
(459,619,cs),
(446,629,o),
(411,651,o),
(344,674,c)
);
},
{
closed = 1;
nodes = (
(544,499,o),
(498,473,o),
(478,432,cs),
(435,343,o),
(469,280,o),
(514,242,cs),
(528,230,o),
(527,224,o),
(512,202,cs),
(463,131,o),
(297,46,o),
(196,23,c),
(201,8,l),
(343,35,o),
(486,101,o),
(536,139,cs),
(564,160,o),
(581,150,o),
(591,150,cs),
(601,150,o),
(614,161,o),
(614,180,cs),
(614,192,o),
(578,246,o),
(563,246,cs),
(544,246,o),
(496,288,o),
(500,346,cs),
(504,407,o),
(530,426,o),
(547,435,cs),
(570,448,o),
(581,416,o),
(595,416,cs),
(609,416,o),
(625,431,o),
(625,450,cs),
(625,472,o),
(555,544,o),
(551,528,cs)
);
}
);
width = 800;
}
);
tags = (
liga
);
},
{
color = 2;
glyphname = "i_i-hira";
lastChange = "2023-12-28 04:59:52 +0000";
layers = (
{
backgroundImage = {
imagePath = "images/lig_いぃ.png";
pos = (70,-171);
};
hints = (
{
origin = (0,3);
place = (387, 30);
type = Stem;
}
);
layerId = m01;
shapes = (
{
closed = 1;
nodes = (
(329,661,l),
(347,650,o),
(378,618,o),
(387,562,cs),
(398,495,o),
(390,79,o),
(388,41,cs),
(386,-3,o),
(381,-12,o),
(375,-20,cs),
(372,-23,o),
(331,8,o),
(252,-122,c),
(265,-130,l),
(335,-25,o),
(368,-43,o),
(370,-52,cs),
(374,-68,o),
(386,-85,o),
(403,-102,cs),
(412,-110,o),
(442,-106,o),
(442,-93,cs),
(442,-84,o),
(437,-67,o),
(427,-54,cs),
(421,-46,o),
(415,-25,o),
(412,39,cs),
(408,119,o),
(416,428,o),
(421,528,cs),
(423,572,o),
(441,580,o),
(450,581,cs),
(459,582,o),
(469,587,o),
(469,598,cs),
(469,605,o),
(465,614,o),
(459,619,cs),
(446,629,o),
(411,651,o),
(344,674,c)
);
},
{
closed = 1;
nodes = (
(521,525,o),
(516,498,o),
(508,489,cs),
(487,463,o),
(460,420,o),
(460,344,cs),
(460,281,o),
(477,255,o),
(535,205,cs),
(542,199,o),
(548,195,o),
(546,187,cs),
(542,167,o),
(533,152,o),
(533,119,cs),
(533,54,o),
(620,-2,o),
(662,-1,c),
(667,10,l),
(608,23,o),
(567,86,o),
(567,117,cs),
(567,165,o),
(598,171,o),
(607,171,cs),
(616,171,o),
(625,198,o),
(623,205,cs),
(620,216,o),
(565,211,o),
(549,218,cs),
(512,235,o),
(485,282,o),
(485,324,cs),
(485,435,o),
(566,445,o),
(583,445,cs),
(593,445,o),
(605,457,o),
(605,467,cs),
(605,477,o),
(543,525,o),
(525,525,cs)
);
}
);
width = 800;
}
);
tags = (
liga
);
},
{
color = 2;
glyphname = "i_u-hira";
lastChange = "2023-12-28 04:59:55 +0000";
layers = (
{
backgroundImage = {
imagePath = "images/lig_いぅ.png";
locked = 1;
pos = (66,-181);
};
hints = (
{
origin = (0,3);
place = (387, 30);
type = Stem;
}
);
layerId = m01;
shapes = (
{
closed = 1;
nodes = (
(329,651,l),
(347,640,o),
(378,608,o),
(387,552,cs),
(398,485,o),
(390,69,o),
(388,31,cs),
(386,-13,o),
(381,-22,o),
(375,-30,cs),
(372,-33,o),
(331,-2,o),
(252,-132,c),
(265,-140,l),
(335,-35,o),
(368,-53,o),
(370,-62,cs),
(374,-78,o),
(386,-95,o),
(403,-112,cs),
(412,-120,o),
(442,-116,o),
(442,-103,cs),
(442,-94,o),
(437,-77,o),
(427,-64,cs),
(421,-56,o),
(415,-35,o),
(412,29,cs),
(408,109,o),
(416,418,o),
(421,518,cs),
(423,562,o),
(441,570,o),
(450,571,cs),
(459,572,o),
(469,577,o),
(469,588,cs),
(469,595,o),
(465,604,o),
(459,609,cs),
(446,619,o),
(411,641,o),
(344,664,c)
);
},
{
closed = 1;
nodes = (
(542,463,o),
(545,442,o),
(535,430,cs),
(524,417,o),
(474,373,o),
(463,322,cs),
(433,185,o),
(576,93,o),
(692,103,c),
(695,114,l),
(613,124,o),
(554,152,o),
(516,219,cs),
(478,289,o),
(516,366,o),
(552,371,cs),
(572,374,o),
(579,359,o),
(579,355,cs),
(579,352,o),
(588,345,o),
(604,345,cs),
(613,345,o),
(626,358,o),
(626,367,cs),
(626,382,o),
(601,443,o),
(552,460,cs)
);
},
{
closed = 1;
nodes = (
(255,118,o),
(255,108,cs),
(255,79,o),
(293,37,o),
(316,37,cs),
(329,37,o),
(340,69,o),
(380,84,cs),
(414,97,o),
(555,148,o),
(658,198,c),
(653,208,l),
(597,187,o),
(387,118,o),
(333,110,cs),
(321,108,o),
(308,120,o),
(292,147,cs),
(282,163,o)
);
}
);
width = 800;
}
);
tags = (
liga
);
},
{
color = 2;
glyphname = "i_e-hira";
lastChange = "2023-12-28 04:59:58 +0000";
layers = (
{
backgroundImage = {
imagePath = "images/lig_いぇ.png";
pos = (73,-188);
};
hints = (
{
origin = (0,3);
place = (387, 30);
type = Stem;
}
);
layerId = m01;
shapes = (
{
closed = 1;
nodes = (
(329,651,l),
(347,640,o),
(378,608,o),
(387,552,cs),
(398,485,o),
(390,69,o),
(388,31,cs),
(386,-13,o),
(381,-22,o),
(375,-30,cs),
(372,-33,o),
(331,-2,o),
(252,-132,c),
(265,-140,l),
(335,-35,o),
(368,-53,o),
(370,-62,cs),
(374,-78,o),
(386,-95,o),
(403,-112,cs),
(412,-120,o),
(442,-116,o),
(442,-103,cs),
(442,-94,o),
(437,-77,o),
(427,-64,cs),
(421,-56,o),
(415,-35,o),
(412,29,cs),
(408,109,o),
(416,418,o),
(421,518,cs),
(423,562,o),
(441,570,o),
(450,571,cs),
(459,572,o),
(469,577,o),
(469,588,cs),
(469,595,o),
(465,604,o),
(459,609,cs),
(446,619,o),
(411,641,o),
(344,664,c)
);
},
{
closed = 1;
nodes = (
(554,566,o),
(555,531,o),
(544,521,cs),
(536,513,o),
(492,475,o),
(478,438,cs),
(464,400,o),
(459,344,o),
(496,294,cs),
(534,243,o),
(553,169,o),
(496,147,cs),
(442,126,o),
(215,75,o),
(219,-65,c),
(231,-69,l),
(246,41,o),
(392,96,o),
(473,89,cs),
(600,78,o),
(614,195,o),
(551,268,cs),
(467,365,o),
(504,399,o),
(530,437,cs),
(563,485,o),
(586,446,o),
(600,446,cs),
(614,446,o),
(629,453,o),
(629,470,cs),
(629,487,o),
(595,527,o),
(565,555,cs)
);
}
);
width = 800;
}
);
tags = (
liga
);
},
{
color = 2;
glyphname = "i_o-hira";
lastChange = "2023-12-28 05:00:01 +0000";
layers = (
{
backgroundImage = {
imagePath = "images/lig_いぉ.png";
pos = (73,-192);
};
hints = (
{
origin = (0,3);
place = (387, 30);
type = Stem;
}
);
layerId = m01;
shapes = (
{
closed = 1;
nodes = (
(329,651,l),
(347,640,o),
(378,608,o),
(387,552,cs),
(398,485,o),
(390,69,o),
(388,31,cs),
(386,-13,o),
(381,-22,o),
(375,-30,cs),
(372,-33,o),
(331,-2,o),
(252,-132,c),
(265,-140,l),
(335,-35,o),
(368,-53,o),
(370,-62,cs),
(374,-78,o),
(386,-95,o),
(403,-112,cs),
(412,-120,o),
(442,-116,o),
(442,-103,cs),
(442,-94,o),
(437,-77,o),
(427,-64,cs),
(421,-56,o),
(415,-35,o),
(412,29,cs),
(408,109,o),
(416,418,o),
(421,518,cs),
(423,562,o),
(441,570,o),
(450,571,cs),
(459,572,o),
(469,577,o),
(469,588,cs),
(469,595,o),
(465,604,o),
(459,609,cs),
(446,619,o),
(411,641,o),
(344,664,c)
);
},
{
closed = 1;
nodes = (
(548,547,o),
(539,525,o),
(532,518,cs),
(520,507,o),
(487,498,o),
(468,451,cs),
(450,406,o),
(481,353,o),
(523,329,c),
(461,319,o),
(347,273,o),
(282,209,cs),
(272,199,o),
(261,202,o),
(252,209,cs),
(247,213,o),
(245,209,o),
(245,184,cs),
(245,171,o),
(260,131,o),
(301,131,cs),
(310,131,o),
(317,138,o),
(317,147,cs),
(317,162,o),
(292,171,o),
(309,193,cs),
(322,209,o),
(347,247,o),
(399,247,cs),
(441,247,o),
(473,203,o),
(481,174,cs),
(492,132,o),
(473,85,o),
(473,50,cs),
(473,6,o),
(503,-53,o),
(590,-53,cs),
(680,-53,o),
(748,34,o),
(748,77,c),
(739,84,l),
(723,48,o),
(655,-16,o),
(614,-16,cs),
(553,-16,o),
(525,31,o),
(525,96,cs),
(525,174,o),
(491,248,o),
(419,264,cs),
(412,265,o),
(412,269,o),
(419,272,cs),
(568,340,o),
(588,294,o),
(599,294,cs),
(610,294,o),
(615,296,o),
(615,308,cs),
(615,312,o),
(595,334,o),
(582,334,cs),
(552,334,o),
(544,336,o),
(534,345,cs),
(512,366,o),
(492,402,o),
(514,441,cs),
(543,491,o),
(561,463,o),
(575,463,cs),
(588,463,o),
(608,471,o),
(608,483,cs),
(608,491,o),
(593,510,o),
(555,541,cs)
);
}
);
width = 800;
}
);
tags = (
liga
);
},
{
color = 2;
glyphname = "u_a-hira";
lastChange = "2023-12-28 05:00:12 +0000";
layers = (
{
backgroundImage = {
imagePath = "images/lig_うぁ.png";
pos = (68,-179);
};
hints = (
{
origin = (0,3);
target = (0,34);
type = Stem;
}
);
layerId = m01;
shapes = (
{
closed = 1;
nodes = (
(353,659,l),
(364,639,o),
(380,611,o),
(382,566,cs),
(388,433,o),
(387,101,o),
(382,17,cs),
(381,5,o),
(381,-3,o),
(380,-9,cs),
(378,-27,o),
(308,-3,o),
(245,-132,c),
(255,-140,l),
(300,-71,o),
(360,-43,o),
(365,-57,cs),
(373,-81,o),
(387,-94,o),
(391,-99,cs),
(402,-111,o),
(414,-109,o),
(419,-109,cs),
(424,-109,o),
(438,-102,o),
(438,-82,cs),
(438,-74,o),
(429,-64,o),
(425,-53,cs),
(421,-42,o),
(419,-13,o),
(415,66,cs),
(408,199,o),
(410,433,o),
(413,508,cs),
(414,540,o),
(417,552,o),
(420,554,cs),
(423,556,o),
(447,553,o),
(456,553,cs),
(465,553,o),
(472,561,o),
(472,569,cs),
(472,582,o),
(469,590,o),
(461,601,cs),
(451,615,o),
(423,636,o),
(363,667,c)
);
},
{
closed = 1;
nodes = (
(252,406,o),
(252,396,cs),
(252,367,o),
(290,329,o),
(313,329,cs),
(326,329,o),
(331,357,o),
(369,375,cs),
(423,400,o),
(541,440,o),
(650,486,c),
(645,496,l),
(589,480,o),
(418,427,o),
(330,403,cs),
(318,400,o),
(305,408,o),
(289,435,cs),
(279,451,o)
);
},
{
closed = 1;
nodes = (
(472,305,l),
(487,294,o),
(495,281,o),
(487,269,cs),
(444,202,o),
(283,114,o),
(156,82,c),
(161,70,l),
(327,97,o),
(408,151,o),
(484,197,cs),
(499,206,o),
(527,211,o),
(541,211,cs),
(553,211,o),
(561,227,o),
(561,249,cs),
(561,274,o),
(527,300,o),
(483,317,c)
);
}
);
width = 800;
}
);
tags = (
liga
);
},
{
color = 2;
glyphname = "u_i-hira";
lastChange = "2023-12-28 05:00:19 +0000";
layers = (
{
backgroundImage = {
imagePath = "images/lig_うぃ.png";
pos = (68,-172);
};
layerId = m01;
shapes = (
{
closed = 1;
nodes = (
(353,659,l),
(364,639,o),
(380,611,o),
(382,566,cs),
(388,433,o),
(387,101,o),
(382,17,cs),
(381,5,o),
(381,-3,o),
(380,-9,cs),
(378,-27,o),
(308,-3,o),
(245,-132,c),
(255,-140,l),
(300,-71,o),
(360,-43,o),
(365,-57,cs),
(373,-81,o),
(387,-94,o),
(391,-99,cs),
(402,-111,o),
(414,-109,o),
(419,-109,cs),
(424,-109,o),
(438,-102,o),
(438,-82,cs),
(438,-74,o),
(429,-64,o),
(425,-53,cs),
(421,-42,o),
(419,-13,o),
(415,66,cs),
(408,199,o),
(410,433,o),
(413,508,cs),
(414,540,o),
(417,552,o),
(420,554,cs),
(423,556,o),
(447,553,o),
(456,553,cs),
(465,553,o),
(472,561,o),
(472,569,cs),
(472,582,o),
(469,590,o),
(461,601,cs),
(451,615,o),
(423,636,o),
(363,667,c)
);
},
{
closed = 1;
nodes = (
(279,451,o),
(252,406,o),
(252,396,cs),
(252,367,o),
(290,329,o),
(313,329,cs),
(326,329,o),
(331,357,o),
(369,375,cs),
(391,385,o),
(510,435,o),
(492,416,cs),
(473,396,o),
(447,364,o),
(436,313,cs),
(396,136,o),
(585,5,o),
(701,20,c),
(704,31,l),
(601,41,o),
(515,109,o),
(487,180,cs),
(447,282,o),
(492,353,o),
(519,378,cs),
(531,389,o),
(549,389,o),
(582,389,cs),
(591,389,o),
(601,398,o),
(601,406,cs),
(601,416,o),
(549,467,o),
(529,467,cs),
(524,467,o),
(517,457,o),
(504,452,cs),
(439,428,o),
(379,416,o),
(330,403,cs),
(318,400,o),
(305,408,o),
(289,435,cs)
);
}
);
width = 800;
}
);
tags = (
liga
);
},
{
color = 2;
glyphname = "u_u-hira";
lastChange = "2023-12-28 05:00:24 +0000";
layers = (
{
backgroundImage = {
imagePath = "images/lig_うぅ.png";
pos = (72,-178);
};
layerId = m01;
shapes = (
{
closed = 1;
nodes = (
(353,659,l),
(364,639,o),
(380,611,o),
(382,566,cs),
(388,433,o),
(387,101,o),
(382,17,cs),
(381,5,o),
(381,-3,o),
(380,-9,cs),
(378,-27,o),
(308,-3,o),
(245,-132,c),
(255,-140,l),
(300,-71,o),
(360,-43,o),
(365,-57,cs),
(373,-81,o),
(387,-94,o),
(391,-99,cs),
(402,-111,o),
(414,-109,o),
(419,-109,cs),
(424,-109,o),
(438,-102,o),
(438,-82,cs),
(438,-74,o),
(429,-64,o),
(425,-53,cs),
(421,-42,o),
(419,-13,o),
(415,66,cs),
(408,199,o),
(410,433,o),
(413,508,cs),
(414,540,o),
(417,552,o),
(420,554,cs),
(423,556,o),
(447,553,o),
(456,553,cs),
(465,553,o),
(472,561,o),
(472,569,cs),
(472,582,o),
(469,590,o),
(461,601,cs),
(451,615,o),
(423,636,o),
(363,667,c)
);
},
{
closed = 1;
nodes = (
(235,410,o),
(208,365,o),
(208,355,cs),
(208,326,o),
(246,288,o),
(269,288,cs),
(282,288,o),
(286,319,o),
(325,334,cs),
(379,355,o),
(497,391,o),
(606,437,c),
(601,447,l),
(545,431,o),
(374,382,o),
(286,358,cs),
(274,355,o),
(261,367,o),
(245,394,cs)
);
},
{
closed = 1;
nodes = (
(324,302,o),
(303,263,o),
(303,255,cs),
(303,230,o),
(333,198,o),
(352,198,cs),
(363,198,o),
(365,221,o),
(397,234,cs),
(427,246,o),
(477,271,o),
(534,301,c),
(527,313,l),
(482,296,o),
(436,278,o),
(365,258,cs),
(356,255,o),
(345,265,o),
(332,289,cs)
);
}
);
width = 800;
}
);
tags = (
liga
);
},
{
color = 2;
glyphname = "u_e-hira";
lastChange = "2023-12-28 05:00:27 +0000";
layers = (
{
backgroundImage = {
imagePath = "images/lig_うぇ.png";
pos = (69,-185);
};
layerId = m01;
shapes = (
{
closed = 1;
nodes = (
(353,659,l),
(364,639,o),
(380,611,o),
(382,566,cs),
(388,433,o),
(387,101,o),
(382,17,cs),
(381,5,o),
(381,-3,o),
(380,-9,cs),
(378,-27,o),
(308,-3,o),
(245,-132,c),
(255,-140,l),
(300,-71,o),
(360,-43,o),
(365,-57,cs),
(373,-81,o),
(387,-94,o),
(391,-99,cs),
(402,-111,o),
(414,-109,o),
(419,-109,cs),
(424,-109,o),
(438,-102,o),
(438,-82,cs),
(438,-74,o),
(429,-64,o),
(425,-53,cs),
(421,-42,o),
(419,-13,o),
(415,66,cs),
(408,199,o),
(410,433,o),
(413,508,cs),
(414,540,o),
(417,552,o),
(420,554,cs),
(423,556,o),
(447,553,o),
(456,553,cs),
(465,553,o),
(472,561,o),
(472,569,cs),
(472,582,o),
(469,590,o),
(461,601,cs),
(451,615,o),
(423,636,o),
(363,667,c)
);
},
{
closed = 1;
nodes = (
(279,505,o),
(252,460,o),
(252,450,cs),
(252,421,o),
(290,383,o),
(313,383,cs),
(326,383,o),
(331,411,o),
(369,429,cs),
(423,454,o),
(541,494,o),
(650,540,c),
(645,550,l),
(589,534,o),
(418,481,o),
(330,457,cs),
(318,454,o),
(305,462,o),
(289,489,cs)
);
},
{
closed = 1;
nodes = (
(422,363,cs),
(422,371,o),
(407,380,o),
(393,392,c),
(356,374,o),
(289,327,o),
(289,296,cs),
(289,258,o),
(361,251,o),
(435,208,cs),
(500,169,o),
(524,143,o),
(521,106,cs),
(519,78,o),
(463,55,o),
(403,51,cs),
(353,48,o),
(205,5,o),
(201,-88,c),
(213,-89,l),
(223,-30,o),
(321,17,o),
(391,20,cs),
(464,23,o),
(531,15,o),
(561,56,cs),
(602,113,o),
(528,177,o),
(461,213,cs),
(356,269,o),
(312,275,o),
(312,301,cs),
(312,314,o),
(333,334,o),
(363,346,cs),
(380,352,o),
(395,351,o),
(415,351,cs),
(419,351,o),
(422,356,o)
);
}
);
width = 800;
}
);
tags = (
liga
);
},
{
color = 2;
glyphname = "u_o-hira";
lastChange = "2023-12-28 05:00:29 +0000";
layers = (
{
backgroundImage = {
imagePath = "images/lig_うぉ.png";
pos = (70,-191);
};
layerId = m01;
shapes = (
{
closed = 1;
nodes = (
(353,659,l),
(364,639,o),
(380,611,o),
(382,566,cs),
(388,433,o),
(387,101,o),
(382,17,cs),
(381,5,o),
(381,-3,o),
(380,-9,cs),
(378,-27,o),
(308,-3,o),
(245,-132,c),
(255,-140,l),
(300,-71,o),
(360,-43,o),
(365,-57,cs),
(373,-81,o),
(387,-94,o),
(391,-99,cs),
(402,-111,o),
(414,-109,o),
(419,-109,cs),
(424,-109,o),
(438,-102,o),
(438,-82,cs),
(438,-74,o),
(429,-64,o),
(425,-53,cs),
(421,-42,o),
(419,-13,o),
(415,66,cs),
(408,199,o),
(410,433,o),
(413,508,cs),
(414,540,o),
(417,552,o),
(420,554,cs),
(423,556,o),
(447,553,o),
(456,553,cs),
(465,553,o),
(472,561,o),
(472,569,cs),
(472,582,o),
(469,590,o),
(461,601,cs),
(451,615,o),
(423,636,o),
(363,667,c)
);
},
{
closed = 1;
nodes = (
(279,480,o),
(252,435,o),
(252,425,cs),
(252,396,o),
(290,358,o),
(313,358,cs),
(326,358,o),
(331,386,o),
(369,404,cs),
(415,425,o),
(502,457,o),
(595,494,c),
(591,509,l),
(515,486,o),
(398,451,o),
(330,432,cs),
(318,429,o),
(305,437,o),
(289,464,cs)
);
},
{
closed = 1;
nodes = (
(250,293,o),
(239,277,o),
(235,269,cs),
(220,239,o),
(257,194,o),
(285,194,cs),
(301,194,o),
(310,225,o),
(306,226,cs),
(300,228,o),
(294,231,o),
(291,236,cs),
(288,241,o),
(291,259,o),
(298,269,cs),
(312,288,o),
(346,331,o),
(388,331,cs),
(430,331,o),
(460,286,o),
(470,252,cs),
(482,210,o),
(462,139,o),
(462,89,cs),
(462,38,o),
(492,-23,o),
(579,-23,cs),
(669,-23,o),
(747,69,o),
(747,109,c),
(738,118,l),
(730,81,o),
(665,24,o),
(611,24,cs),
(538,24,o),
(510,75,o),
(514,151,cs),
(520,264,o),
(470,350,o),
(379,350,cs),
(327,350,o),
(300,303,o),
(271,295,cs),
(267,294,o),
(259,293,o),
(255,293,cs)
);
}
);
width = 800;
}
);
tags = (
liga
);
},
{
color = 2;
glyphname = "e_a-hira";
lastChange = "2023-12-28 05:01:51 +0000";
layers = (
{
backgroundImage = {
imagePath = "images/lig_えぁ.png";
pos = (77,-160);
};
hints = (
{
origin = (0,3);
target = (0,28);
type = Stem;
}
);
layerId = m01;
shapes = (
{
closed = 1;
nodes = (
(344,666,l),
(358,654,o),
(374,636,o),
(383,579,cs),
(389,538,o),
(391,207,o),
(391,129,cs),
(391,32,o),
(393,-6,o),
(387,-8,cs),
(381,-10,o),
(331,37,o),
(251,-107,c),
(262,-114,l),
(353,21,o),
(382,-67,o),
(391,-79,cs),
(400,-91,o),
(409,-108,o),
(420,-108,cs),
(423,-108,o),
(431,-99,o),
(431,-88,cs),
(431,-74,o),
(414,-54,o),
(415,-24,cs),
(419,95,o),
(409,510,o),
(413,537,cs),
(417,564,o),
(433,572,o),
(438,572,cs),
(443,572,o),
(460,575,o),
(460,586,cs),
(460,597,o),
(460,617,o),
(449,629,cs),
(428,650,o),
(389,671,o),
(353,675,c)
);
},
{
closed = 1;
nodes = (
(393,592,l),
(356,574,o),
(294,550,o),
(286,521,cs),
(272,473,o),
(347,481,o),
(435,457,cs),
(507,437,o),
(522,411,o),
(520,382,cs),
(518,352,o),
(471,335,o),
(405,313,cs),
(318,284,o),
(193,202,o),
(201,83,c),
(213,82,l),
(220,182,o),
(327,252,o),
(374,269,cs),
(502,318,o),
(540,284,o),
(568,349,cs),
(584,387,o),
(541,443,o),
(461,466,cs),
(366,493,o),
(303,493,o),
(313,517,cs),
(324,544,o),
(380,554,o),
(405,554,c)
);
},
{
closed = 1;
nodes = (
(524,285,l),
(537,273,o),
(544,259,o),
(537,246,cs),
(497,163,o),
(360,70,o),
(256,32,c),
(261,19,l),
(417,59,o),
(490,130,o),
(558,180,cs),
(571,190,o),
(590,205,o),
(602,205,cs),
(613,205,o),
(621,222,o),
(608,247,cs),
(593,273,o),
(551,294,o),
(534,298,c)
);
}
);
width = 800;
}
);
tags = (
liga
);
},
{
color = 2;
glyphname = "e_i-hira";
lastChange = "2023-12-28 05:01:54 +0000";
layers = (
{
backgroundImage = {
imagePath = "images/lig_えぃ.png";
pos = (77,-156);
};
layerId = m01;
shapes = (
{
closed = 1;
nodes = (
(344,666,l),
(358,654,o),
(374,636,o),
(383,579,cs),
(389,538,o),
(391,207,o),
(391,129,cs),
(391,32,o),
(393,-6,o),
(387,-8,cs),
(381,-10,o),
(331,37,o),
(251,-107,c),
(262,-114,l),
(353,21,o),
(382,-67,o),
(391,-79,cs),
(400,-91,o),
(409,-108,o),
(420,-108,cs),
(423,-108,o),
(431,-99,o),
(431,-88,cs),
(431,-74,o),
(414,-54,o),
(415,-24,cs),
(419,95,o),
(409,510,o),
(413,537,cs),
(417,564,o),
(433,572,o),
(438,572,cs),
(443,572,o),
(460,575,o),
(460,586,cs),
(460,597,o),
(460,617,o),
(449,629,cs),
(428,650,o),
(389,671,o),
(353,675,c)
);
},
{
closed = 1;
nodes = (
(393,592,l),
(356,574,o),
(294,550,o),
(286,521,cs),
(272,473,o),
(347,481,o),
(435,457,cs),
(507,437,o),
(522,411,o),
(520,382,cs),
(518,352,o),
(471,335,o),
(405,313,cs),
(318,284,o),
(193,202,o),
(201,83,c),
(213,82,l),
(220,182,o),
(327,252,o),
(374,269,cs),
(502,318,o),
(540,284,o),
(568,349,cs),
(584,387,o),
(541,443,o),
(461,466,cs),
(366,493,o),
(303,493,o),
(313,517,cs),
(324,544,o),
(380,554,o),
(405,554,c)
);
},
{
closed = 1;
nodes = (
(500,282,o),
(503,263,o),
(494,253,cs),
(484,241,o),
(437,202,o),
(428,157,cs),
(400,37,o),
(532,-44,o),
(638,-35,c),
(641,-23,l),
(565,-14,o),
(511,8,o),
(477,67,cs),
(441,128,o),
(477,196,o),
(509,201,cs),
(521,202,o),
(536,193,o),
(533,189,cs),
(530,185,o),
(547,182,o),
(553,182,cs),
(561,182,o),
(570,192,o),
(570,199,cs),
(570,210,o),
(555,264,o),
(509,279,cs)
);
}
);
width = 800;
}
);
tags = (
liga
);
},
{
color = 2;
glyphname = "e_u-hira";
lastChange = "2023-12-28 05:01:58 +0000";
layers = (
{
backgroundImage = {
imagePath = "images/lig_えぅ.png";
pos = (78,-159);
};
layerId = m01;
shapes = (
{
closed = 1;
nodes = (
(344,666,l),
(358,654,o),
(374,636,o),
(383,579,cs),
(389,538,o),
(391,207,o),
(391,129,cs),
(391,32,o),
(393,-6,o),
(387,-8,cs),
(381,-10,o),
(331,37,o),
(251,-107,c),
(262,-114,l),
(353,21,o),
(382,-67,o),
(391,-79,cs),
(400,-91,o),
(409,-108,o),
(420,-108,cs),
(423,-108,o),
(431,-99,o),
(431,-88,cs),
(431,-74,o),
(414,-54,o),
(415,-24,cs),
(419,95,o),
(409,510,o),
(413,537,cs),
(417,564,o),
(433,572,o),
(438,572,cs),
(443,572,o),
(460,575,o),
(460,586,cs),
(460,597,o),
(460,617,o),
(449,629,cs),
(428,650,o),
(389,671,o),
(353,675,c)
);
},
{
closed = 1;
nodes = (
(393,592,l),
(356,574,o),
(294,550,o),
(286,521,cs),
(272,473,o),
(347,481,o),
(435,457,cs),
(507,437,o),
(522,411,o),
(520,382,cs),
(518,352,o),
(471,335,o),
(405,313,cs),
(318,284,o),
(193,202,o),
(201,83,c),
(213,82,l),
(220,182,o),
(327,252,o),
(374,269,cs),
(502,318,o),
(540,284,o),
(568,349,cs),
(584,387,o),
(541,443,o),
(461,466,cs),
(366,493,o),
(303,493,o),
(313,517,cs),
(324,544,o),
(380,554,o),
(405,554,c)
);
},
{
closed = 1;
nodes = (
(280,167,o),
(280,158,cs),
(280,131,o),
(316,91,o),
(337,91,cs),
(350,91,o),
(360,125,o),
(377,132,cs),
(430,152,o),
(565,208,o),
(666,252,c),
(660,265,l),
(608,245,o),
(417,174,o),
(353,160,cs),
(342,158,o),
(330,169,o),
(315,195,cs),
(305,210,o)
);
}
);
width = 800;
}
);
tags = (
liga
);
},
{
color = 2;
glyphname = "e_e-hira";
lastChange = "2023-12-28 05:02:00 +0000";
layers = (
{
backgroundImage = {
imagePath = "images/lig_えぇ.png";
pos = (77,-166);
};
layerId = m01;
shapes = (
{
closed = 1;
nodes = (
(344,666,l),
(358,654,o),
(374,636,o),
(383,579,cs),
(389,538,o),
(391,207,o),
(391,129,cs),
(391,32,o),
(393,-6,o),
(387,-8,cs),
(381,-10,o),
(331,37,o),
(251,-107,c),
(262,-114,l),
(353,21,o),
(382,-67,o),
(391,-79,cs),
(400,-91,o),
(409,-108,o),
(420,-108,cs),
(423,-108,o),
(431,-99,o),
(431,-88,cs),
(431,-74,o),
(414,-54,o),
(415,-24,cs),
(419,95,o),
(409,510,o),
(413,537,cs),
(417,564,o),
(433,572,o),
(438,572,cs),
(443,572,o),
(460,575,o),
(460,586,cs),
(460,597,o),
(460,617,o),
(449,629,cs),
(428,650,o),
(389,671,o),
(353,675,c)
);
},
{
closed = 1;
nodes = (
(387,569,l),
(353,555,o),
(288,517,o),
(288,481,cs),
(288,438,o),
(343,435,o),
(437,383,cs),
(496,350,o),
(531,320,o),
(527,277,cs),
(524,236,o),
(469,222,o),
(407,204,cs),
(329,181,o),
(195,143,o),
(212,37,c),
(224,41,l),
(224,122,o),
(333,159,o),
(399,175,cs),
(466,191,o),
(531,184,o),
(563,234,cs),
(613,311,o),
(496,372,o),
(449,398,cs),
(385,433,o),
(311,457,o),
(311,481,cs),
(311,509,o),
(370,534,o),
(404,530,c)
);
},
{
closed = 1;
nodes = (
(474,194,l),
(484,165,o),
(484,149,o),
(455,131,cs),
(415,106,o),
(263,96,o),
(276,-17,c),
(289,-14,l),
(289,72,o),
(385,72,o),
(445,81,cs),
(501,89,o),
(531,115,o),
(531,141,cs),
(531,161,o),
(515,168,o),
(484,199,c)
);
}
);
width = 800;
}
);
tags = (
liga
);
},
{
color = 2;
glyphname = "e_o-hira";
lastChange = "2023-12-28 05:02:04 +0000";
layers = (
{
backgroundImage = {
imagePath = "images/lig_えぉ.png";
pos = (77,-173);
};
layerId = m01;
shapes = (
{
closed = 1;
nodes = (
(344,666,l),
(358,654,o),
(374,636,o),
(383,579,cs),
(389,538,o),
(391,207,o),
(391,129,cs),
(391,32,o),
(393,-6,o),
(387,-8,cs),
(381,-10,o),
(331,37,o),
(251,-107,c),
(262,-114,l),
(353,21,o),
(382,-67,o),
(391,-79,cs),
(400,-91,o),
(409,-108,o),
(420,-108,cs),
(423,-108,o),
(431,-99,o),
(431,-88,cs),
(431,-74,o),
(414,-54,o),
(415,-24,cs),
(419,95,o),
(409,510,o),
(413,537,cs),
(417,564,o),
(433,572,o),
(438,572,cs),
(443,572,o),
(460,575,o),
(460,586,cs),
(460,597,o),
(460,617,o),
(449,629,cs),
(428,650,o),
(389,671,o),
(353,675,c)
);
},
{
closed = 1;
nodes = (
(393,592,l),
(356,574,o),
(294,550,o),
(286,521,cs),
(272,473,o),
(347,481,o),
(435,457,cs),
(507,437,o),
(531,410,o),
(520,382,cs),
(500,330,o),
(393,339,o),
(263,229,cs),
(240,210,o),
(222,202,o),
(222,190,cs),
(222,171,o),
(253,146,o),
(272,146,cs),
(288,146,o),
(302,156,o),
(297,157,cs),
(284,159,o),
(268,171,o),
(286,196,cs),
(299,214,o),
(316,239,o),
(356,239,cs),
(396,239,o),
(443,226,o),
(454,202,cs),
(470,166,o),
(460,124,o),
(460,97,cs),
(460,50,o),
(485,-4,o),
(584,-4,cs),
(650,-4,o),
(697,44,o),
(715,93,c),
(706,99,l),
(678,56,o),
(634,28,o),
(589,28,cs),
(539,28,o),
(508,68,o),
(508,129,cs),
(508,197,o),
(461,246,o),
(407,254,cs),
(374,259,o),
(355,260,o),
(374,269,cs),
(495,324,o),
(540,284,o),
(568,349,cs),
(584,387,o),
(541,443,o),
(461,466,cs),
(366,493,o),
(303,493,o),
(313,517,cs),
(324,544,o),
(380,554,o),
(405,554,c)
);
}
);
width = 800;
}
);
tags = (
liga
);
},
{
color = 2;
glyphname = "o_a-hira";
lastChange = "2023-12-28 05:02:22 +0000";
layers = (
{
backgroundImage = {
imagePath = "images/lig_おぁ.png";
locked = 1;
pos = (47,-169);
};
hints = (
{
origin = (0,3);
target = (0,31);
type = Stem;
}
);
layerId = m01;
shapes = (
{
closed = 1;
nodes = (
(357,659,l),
(363,645,o),
(379,610,o),
(382,575,cs),
(390,500,o),
(386,41,o),
(385,20,cs),
(383,0,o),
(384,-15,o),
(379,-15,cs),
(375,-15,o),
(329,28,o),
(249,-121,c),
(263,-131,l),
(310,-59,o),
(354,-21,o),
(375,-66,cs),
(379,-75,o),
(379,-94,o),
(384,-100,cs),
(393,-111,o),
(398,-111,o),
(402,-111,cs),
(406,-111,o),
(418,-95,o),
(418,-84,cs),
(418,-73,o),
(410,-32,o),
(409,4,cs),
(408,40,o),
(408,459,o),
(411,535,cs),
(412,569,o),
(425,573,o),
(431,574,cs),
(438,575,o),
(447,582,o),
(447,589,cs),
(447,596,o),
(438,610,o),
(433,615,cs),
(426,622,o),
(410,649,o),
(370,671,c)
);
},
{
closed = 1;
nodes = (
(558,279,o),
(554,247,o),
(539,247,cs),
(505,247,o),
(505,277,o),
(505,321,cs),
(505,397,o),
(513,442,o),
(480,477,cs),
(455,504,o),
(424,530,o),
(377,530,cs),
(325,530,o),
(298,483,o),
(269,475,cs),
(265,474,o),
(257,473,o),
(253,473,cs),
(248,473,o),
(225,441,o),
(225,429,cs),
(225,418,o),
(254,390,o),
(279,390,cs),
(291,390,o),
(308,405,o),
(304,406,cs),
(282,413,o),
(285,433,o),
(296,449,cs),
(310,468,o),
(344,511,o),
(386,511,cs),
(417,511,o),
(454,474,o),
(466,443,cs),
(481,404,o),
(456,346,o),
(462,287,cs),
(464,260,o),
(478,230,o),
(521,230,cs),
(554,230,o),
(543,212,o),
(526,194,cs),
(492,159,o),
(373,54,o),
(233,2,c),
(240,-11,l),
(372,28,o),
(481,101,o),
(560,165,cs),
(576,178,o),
(596,184,o),
(610,184,cs),
(622,184,o),
(630,198,o),
(630,221,cs),
(631,237,o),
(597,269,o),
(567,277,cs)
);
}
);
width = 800;
}
);
tags = (
liga
);
},
{
color = 2;
glyphname = "o_i-hira";
lastChange = "2023-12-28 05:00:54 +0000";
layers = (
{
backgroundImage = {
imagePath = "images/lig_おぃ.png";
locked = 1;
pos = (49,-166);
};
layerId = m01;
shapes = (
{
closed = 1;
nodes = (
(357,659,l),
(363,645,o),
(379,610,o),
(382,575,cs),
(390,500,o),
(386,41,o),
(385,20,cs),
(383,0,o),
(384,-15,o),
(379,-15,cs),
(375,-15,o),
(329,28,o),
(249,-121,c),
(263,-131,l),
(310,-59,o),
(354,-21,o),
(375,-66,cs),
(379,-75,o),
(379,-94,o),
(384,-100,cs),
(393,-111,o),
(398,-111,o),
(402,-111,cs),
(406,-111,o),
(418,-95,o),
(418,-84,cs),
(418,-73,o),
(410,-32,o),
(409,4,cs),
(408,40,o),
(408,459,o),
(411,535,cs),
(412,569,o),
(425,573,o),
(431,574,cs),
(438,575,o),
(447,582,o),
(447,589,cs),
(447,596,o),
(438,610,o),
(433,615,cs),
(426,622,o),
(410,649,o),
(370,671,c)
);
},
{
closed = 1;
nodes = (
(561,290,o),
(558,255,o),
(543,254,cs),
(503,251,o),
(501,299,o),
(510,363,cs),
(526,463,o),
(468,530,o),
(377,530,cs),
(325,530,o),
(298,483,o),
(269,475,cs),
(265,474,o),
(257,473,o),
(253,473,cs),
(248,473,o),
(225,441,o),
(225,429,cs),
(225,418,o),
(254,390,o),
(279,390,cs),
(291,390,o),
(308,405,o),
(304,406,cs),
(282,413,o),
(285,433,o),
(296,449,cs),
(310,468,o),
(344,511,o),
(386,511,cs),
(428,511,o),
(463,466,o),
(468,432,cs),
(478,365,o),
(431,300,o),
(505,237,c),
(488,225,o),
(471,204,o),
(462,160,cs),
(432,23,o),
(575,-69,o),
(691,-59,c),
(694,-48,l),
(612,-38,o),
(553,-10,o),
(515,57,cs),
(477,127,o),
(515,204,o),
(551,209,cs),
(586,214,o),
(561,183,o),
(603,183,cs),
(609,183,o),
(620,190,o),
(620,205,cs),
(620,217,o),
(612,243,o),
(570,281,cs)
);
}
);
width = 800;
}
);
tags = (
liga
);
},
{
color = 2;
glyphname = "o_u-hira";
lastChange = "2023-12-28 05:00:57 +0000";
layers = (
{
backgroundImage = {
imagePath = "images/lig_おぅ.png";
pos = (47,-164);
};
layerId = m01;
shapes = (
{
closed = 1;
nodes = (
(357,659,l),
(363,645,o),
(379,610,o),
(382,575,cs),
(390,500,o),
(386,41,o),
(385,20,cs),
(383,0,o),
(384,-15,o),
(379,-15,cs),
(375,-15,o),
(325,41,o),
(245,-115,c),
(259,-125,l),
(324,-38,o),
(354,-21,o),
(375,-66,cs),
(379,-75,o),
(379,-94,o),
(384,-100,cs),
(393,-111,o),
(398,-111,o),
(402,-111,cs),
(406,-111,o),
(418,-95,o),
(418,-84,cs),
(418,-73,o),
(410,-32,o),
(409,4,cs),
(408,40,o),
(408,459,o),
(411,535,cs),
(412,569,o),
(425,573,o),
(431,574,cs),
(438,575,o),
(447,582,o),
(447,589,cs),
(447,596,o),
(438,610,o),
(433,615,cs),
(426,622,o),
(410,649,o),
(370,671,c)
);
},
{
closed = 1;
nodes = (
(248,473,o),
(237,457,o),
(233,449,cs),
(228,439,o),
(237,378,o),
(288,378,cs),
(304,378,o),
(308,405,o),
(304,406,cs),
(298,408,o),
(292,411,o),
(289,416,cs),
(286,421,o),
(289,439,o),
(296,449,cs),
(310,468,o),
(344,511,o),
(386,511,cs),
(428,511,o),
(458,466,o),
(468,432,cs),
(480,390,o),
(460,319,o),
(460,269,cs),
(460,218,o),
(490,157,o),
(577,157,cs),
(667,157,o),
(733,235,o),
(742,289,c),
(733,298,l),
(715,261,o),
(663,204,o),
(599,204,cs),
(536,204,o),
(508,255,o),
(512,331,cs),
(518,444,o),
(468,530,o),
(377,530,cs),
(325,530,o),
(298,483,o),
(269,475,cs),
(265,474,o),
(257,473,o),
(253,473,cs)
);
},
{
closed = 1;
nodes = (
(476,228,l),
(412,200,o),
(287,152,o),
(240,137,cs),
(229,134,o),
(214,139,o),
(200,163,cs),
(191,178,o),
(167,137,o),
(167,128,cs),
(167,102,o),
(201,65,o),
(222,65,cs),
(233,65,o),
(233,95,o),
(269,110,cs),
(320,132,o),
(428,180,o),
(483,211,c)
);
}
);
width = 800;
}
);
tags = (
liga
);
},
{
color = 2;
glyphname = "o_e-hira";
lastChange = "2023-12-28 05:01:00 +0000";
layers = (
{
backgroundImage = {
imagePath = "images/lig_おぇ.png";
locked = 1;
pos = (49,-172);
};
layerId = m01;
shapes = (
{
closed = 1;
nodes = (
(357,659,l),
(363,645,o),
(379,610,o),
(382,575,cs),
(390,500,o),
(386,41,o),
(385,20,cs),
(383,0,o),
(384,-15,o),
(379,-15,cs),
(375,-15,o),
(325,41,o),
(245,-115,c),
(259,-125,l),
(324,-38,o),
(354,-21,o),
(375,-66,cs),
(379,-75,o),
(379,-94,o),
(384,-100,cs),
(393,-111,o),
(398,-111,o),
(402,-111,cs),
(406,-111,o),
(418,-95,o),
(418,-84,cs),
(418,-73,o),
(410,-32,o),
(409,4,cs),
(408,40,o),
(408,459,o),
(411,535,cs),
(412,569,o),
(425,573,o),
(431,574,cs),
(438,575,o),
(447,582,o),
(447,589,cs),
(447,596,o),
(438,610,o),
(433,615,cs),
(426,622,o),
(410,649,o),
(370,671,c)
);
},
{
closed = 1;
nodes = (
(243,482,o),
(232,459,o),
(228,452,cs),
(223,444,o),
(233,401,o),
(284,401,cs),
(300,401,o),
(302,411,o),
(302,419,cs),
(302,425,o),
(296,428,o),
(293,438,cs),
(291,443,o),
(291,452,o),
(298,460,cs),
(312,477,o),
(344,513,o),
(386,513,cs),
(428,513,o),
(458,487,o),
(468,458,cs),
(480,422,o),
(460,381,o),
(460,331,cs),
(460,287,o),
(493,223,o),
(580,223,cs),
(670,223,o),
(712,265,o),
(730,319,c),
(721,326,l),
(697,295,o),
(659,263,o),
(602,263,cs),
(544,263,o),
(513,308,o),
(519,374,cs),
(529,477,o),
(468,535,o),
(377,535,cs),
(325,535,o),
(293,491,o),
(264,484,cs),
(260,483,o),
(252,482,o),
(248,482,cs)
);
},
{
closed = 1;
nodes = (
(425,407,cs),
(425,414,o),
(410,423,o),
(396,435,c),
(359,417,o),
(292,371,o),
(292,341,cs),
(292,303,o),
(364,295,o),
(438,252,cs),
(488,224,o),
(513,182,o),
(511,152,cs),
(509,124,o),
(472,110,o),
(402,89,cs),
(289,55,o),
(196,-15,o),
(208,-100,c),
(220,-97,l),
(228,-13,o),
(311,30,o),
(390,52,cs),
(499,82,o),
(525,72,o),
(555,118,cs),
(588,168,o),
(509,233,o),
(464,258,cs),
(359,313,o),
(315,320,o),
(315,345,cs),
(315,357,o),
(336,381,o),
(366,393,cs),
(383,399,o),
(398,394,o),
(418,394,cs),
(422,394,o),
(425,399,o)
);
}
);
width = 800;
}
);
tags = (
liga
);
},
{
color = 2;
glyphname = "o_o-hira";
lastChange = "2023-12-28 05:01:02 +0000";
layers = (
{
backgroundImage = {
imagePath = "images/lig_おぉ.png";
locked = 1;
pos = (48,-178);
};
layerId = m01;
shapes = (
{
closed = 1;
nodes = (
(357,659,l),
(363,645,o),
(379,610,o),
(382,575,cs),
(390,500,o),
(386,41,o),
(385,20,cs),
(383,0,o),
(384,-15,o),
(379,-15,cs),
(375,-15,o),
(325,41,o),
(245,-115,c),
(259,-125,l),
(324,-38,o),
(354,-21,o),
(375,-66,cs),
(379,-75,o),
(379,-94,o),
(384,-100,cs),
(393,-111,o),
(398,-111,o),
(402,-111,cs),
(406,-111,o),
(418,-95,o),
(418,-84,cs),
(418,-73,o),
(410,-32,o),
(409,4,cs),
(408,40,o),
(408,459,o),
(411,535,cs),
(412,569,o),
(425,573,o),
(431,574,cs),
(438,575,o),
(447,582,o),
(447,589,cs),
(447,596,o),
(438,610,o),
(433,615,cs),
(426,622,o),
(410,649,o),
(370,671,c)
);
},
{
closed = 1;
nodes = (
(248,423,o),
(237,407,o),
(233,399,cs),
(228,389,o),
(237,328,o),
(288,328,cs),
(304,328,o),
(308,355,o),
(304,356,cs),
(298,358,o),
(292,361,o),
(289,366,cs),
(286,371,o),
(289,389,o),
(296,399,cs),
(310,418,o),
(344,461,o),
(386,461,cs),
(428,461,o),
(458,416,o),
(468,382,cs),
(480,340,o),
(460,269,o),
(460,219,cs),
(460,168,o),
(490,107,o),
(577,107,cs),
(667,107,o),
(733,185,o),
(742,239,c),
(733,248,l),
(715,211,o),
(663,154,o),
(599,154,cs),
(536,154,o),
(508,205,o),
(512,281,cs),
(518,394,o),
(468,480,o),
(377,480,cs),
(325,480,o),
(298,433,o),
(269,425,cs),
(265,424,o),
(257,423,o),
(253,423,cs)
);
},
{
closed = 1;
nodes = (
(485,132,o),
(467,112,o),
(467,83,cs),
(467,45,o),
(506,12,o),
(543,12,cs),
(573,12,o),
(624,20,o),
(651,87,c),
(641,97,l),
(622,63,o),
(589,51,o),
(566,51,cs),
(522,51,o),
(495,106,o),
(531,125,c),
(507,144,l)
);
}
);
width = 800;
}
);
tags = (
liga
);
},
{
color = 9;
glyphname = "sa_bu_ra_i-hira.dlig";
lastChange = "2023-12-28 04:13:41 +0000";
layers = (
{
backgroundImage = {
imagePath = "images/dlig_さぶらい.png";
locked = 1;
pos = (-47,-200);
};
layerId = m01;
shapes = (
{
closed = 1;
nodes = (
(502,753,o),
(494,744,o),
(494,727,cs),
(494,710,o),
(527,685,o),
(516,658,cs),
(459,518,o),
(228,331,o),
(155,384,cs),
(101,424,o),
(320,521,o),
(401,521,cs),
(480,521,o),
(592,514,o),
(603,450,cs),
(616,377,o),
(483,313,o),
(406,278,cs),
(388,270,o),
(369,275,o),
(361,275,cs),
(348,275,o),
(341,241,o),
(341,208,cs),
(341,179,o),
(373,146,o),
(394,120,cs),
(404,108,o),
(364,116,o),
(344,44,cs),
(328,-15,o),
(346,-81,o),
(410,-121,c),
(421,-106,l),
(384,-81,o),
(364,-20,o),
(381,22,cs),
(393,51,o),
(426,86,o),
(451,86,cs),
(483,86,o),
(497,75,o),
(511,75,cs),
(519,75,o),
(537,78,o),
(537,88,cs),
(537,98,o),
(537,134,o),
(520,146,cs),
(506,156,o),
(451,160,o),
(410,192,cs),
(375,219,o),
(381,235,o),
(430,250,cs),
(499,270,o),
(580,315,o),
(608,349,cs),
(665,417,o),
(650,495,o),
(569,528,cs),
(515,550,o),
(464,549,o),
(415,549,cs),
(361,549,o),
(170,505,o),
(115,432,cs),
(80,387,o),
(101,330,o),
(159,321,cs),
(269,304,o),
(469,495,o),
(525,575,cs),
(562,629,o),
(581,616,o),
(598,616,cs),
(615,616,o),
(620,634,o),
(620,650,cs),
(620,666,o),
(611,704,o),
(513,748,cs)
);
}
);
width = 800;
}
);
tags = (
dlig
);
},
{
color = 9;
glyphname = "do_ma-kata.dlig";
lastChange = "2023-12-28 04:13:27 +0000";
layers = (
{
backgroundImage = {
imagePath = "images/dlig_ドマ.png";
locked = 1;
pos = (-9,-206);
};
layerId = m01;
shapes = (
{
closed = 1;
nodes = (
(396,773,o),
(350,712,o),
(350,695,cs),
(350,658,o),
(395,637,o),
(395,627,cs),
(395,617,o),
(390,611,o),
(388,609,c),
(397,601,l),
(427,617,o),
(458,662,o),
(458,676,cs),
(458,699,o),
(417,742,o),
(402,765,cs)
);
},
{
closed = 1;
nodes = (
(235,586,o),
(222,563,o),
(222,552,cs),
(222,523,o),
(312,464,o),
(325,464,cs),
(341,464,o),
(353,475,o),
(401,490,cs),
(428,498,o),
(506,511,o),
(521,511,cs),
(530,511,o),
(587,545,o),
(587,557,cs),
(587,570,o),
(557,607,o),
(522,607,cs),
(509,607,o),
(365,545,o),
(329,545,cs),
(298,545,o),
(268,553,o),
(245,576,cs)
);
},
{
closed = 1;
nodes = (
(285,413,o),
(289,321,o),
(287,269,cs),
(278,59,o),
(155,-41,o),
(76,-44,c),
(84,-63,l),
(222,-63,o),
(334,55,o),
(345,206,cs),
(353,315,o),
(347,504,o),
(347,517,c),
(285,506,l)
);
},
{
closed = 1;
nodes = (
(395,413,o),
(364,372,o),
(364,361,cs),
(364,336,o),
(394,322,o),
(394,315,cs),
(394,311,o),
(394,304,o),
(401,300,c),
(421,311,o),
(437,338,o),
(437,348,cs),
(437,363,o),
(409,392,o),
(399,408,cs)
);
},
{
closed = 1;
nodes = (
(395,295,o),
(364,254,o),
(364,243,cs),
(364,218,o),
(394,204,o),
(394,197,cs),
(394,193,o),
(394,186,o),
(401,182,c),
(421,193,o),
(437,220,o),
(437,230,cs),
(437,245,o),
(409,274,o),
(399,290,cs)
);
},
{
closed = 1;
nodes = (
(189,463,o),
(160,413,o),
(143,396,cs),
(132,385,o),
(143,381,o),
(160,381,cs),
(177,381,o),
(188,368,o),
(192,351,cs),
(196,334,o),
(198,244,o),
(196,210,cs),
(190,86,o),
(145,63,o),
(106,39,c),
(115,20,l),
(182,40,o),
(241,118,o),
(245,211,cs),
(248,269,o),
(248,330,o),
(248,370,cs),
(248,394,o),
(266,392,o),
(266,401,cs),
(266,409,o),
(216,463,o),
(205,463,cs)
);
},
{
closed = 1;
nodes = (
(467,553,o),
(426,532,o),
(409,515,cs),
(398,504,o),
(409,500,o),
(426,500,cs),
(443,500,o),
(450,485,o),
(454,468,cs),
(458,451,o),
(458,373,o),
(458,210,cs),
(458,59,o),
(597,-71,o),
(752,-74,c),
(762,-58,l),
(591,-30,o),
(528,102,o),
(525,246,cs),
(523,359,o),
(522,420,o),
(522,460,cs),
(522,484,o),
(544,482,o),
(544,491,cs),
(544,499,o),
(494,553,o),
(483,553,cs)
);
},
{
closed = 1;
nodes = (
(601,456,o),
(551,402,o),
(551,394,cs),
(551,385,o),
(560,387,o),
(560,363,cs),
(560,323,o),
(559,276,o),
(562,211,cs),
(567,120,o),
(613,62,o),
(688,13,c),
(697,32,l),
(650,72,o),
(618,120,o),
(614,187,cs),
(609,262,o),
(612,327,o),
(616,344,cs),
(620,361,o),
(637,380,o),
(654,380,cs),
(671,380,o),
(682,384,o),
(671,395,cs),
(654,412,o),
(628,456,o),
(612,456,cs)
);
}
);
width = 800;
}
);
tags = (
dlig
);
},
{
category = Letter;
color = 9;
glyphname = "digraphnari-hira.dlig";
lastChange = "2023-12-28 04:17:52 +0000";
layers = (
{
backgroundImage = {
imagePath = "images/dlig_なり.png";
locked = 1;
pos = (-9,-200);
};
layerId = m01;
shapes = (
{
closed = 1;
nodes = (
(160,524,o),
(121,452,o),
(127,418,cs),
(136,367,o),
(214,356,o),
(264,371,c),
(263,364,o),
(261,357,o),
(258,348,cs),
(233,285,o),
(172,186,o),
(48,125,c),
(54,114,l),
(188,150,o),
(257,259,o),
(287,319,cs),
(303,351,o),
(320,365,o),
(328,365,cs),
(334,365,o),
(349,375,o),
(349,384,cs),
(349,397,o),
(317,417,o),
(274,434,cs),
(262,439,o),
(261,418,o),
(261,408,cs),
(261,401,o),
(247,393,o),
(230,393,cs),
(204,393,o),
(170,405,o),
(168,427,cs),
(166,451,o),
(188,466,o),
(215,466,cs),
(223,466,o),
(245,467,o),
(245,475,cs),
(245,483,o),
(215,505,o),
(168,521,cs)
);
},
{
closed = 1;
nodes = (
(469,585,o),
(471,564,o),
(471,555,cs),
(471,546,o),
(508,536,o),
(511,515,cs),
(516,480,o),
(426,384,o),
(391,362,cs),
(373,350,o),
(367,355,o),
(359,355,cs),
(351,355,o),
(346,346,o),
(346,340,cs),
(346,334,o),
(377,332,o),
(450,241,cs),
(525,147,o),
(540,102,o),
(654,102,cs),
(720,102,o),
(769,108,o),
(791,118,c),
(800,138,l),
(730,138,o),
(617,175,o),
(553,218,cs),
(494,258,o),
(454,286,o),
(415,316,cs),
(403,325,o),
(392,331,o),
(408,339,cs),
(477,375,o),
(591,479,o),
(591,512,cs),
(591,527,o),
(558,555,o),
(479,582,cs)
);
},
{
closed = 1;
nodes = (
(129,300,l),
(165,284,o),
(203,271,o),
(220,251,cs),
(247,219,o),
(269,195,o),
(282,195,cs),
(302,195,o),
(324,200,o),
(324,222,cs),
(324,235,o),
(303,255,o),
(269,276,cs),
(247,290,o),
(198,305,o),
(136,316,c)
);
}
);
width = 800;
}
);
script = hana;
subCategory = "";
tags = (
dlig
);
unicode = 184066;
},
{
glyphname = zero.full;
lastChange = "2023-12-28 05:16:01 +0000";
layers = (
{
backgroundImage = {
imagePath = "images/０.png";
pos = (34,-200);
};
layerId = m01;
shapes = (
{
closed = 1;
nodes = (
(324,364,o),
(320,342,o),
(320,329,cs),
(320,316,o),
(341,305,o),
(336,287,cs),
(332,273,o),
(293,209,o),
(266,209,cs),
(242,209,o),
(227,224,o),
(227,262,cs),
(227,305,o),
(267,412,o),
(398,412,cs),
(488,412,o),
(523,355,o),
(517,297,cs),
(509,217,o),
(418,119,o),
(307,117,c),
(310,103,l),
(450,80,o),
(557,178,o),
(569,279,cs),
(577,342,o),
(542,434,o),
(414,434,cs),
(278,434,o),
(193,309,o),
(193,239,cs),
(193,212,o),
(210,168,o),
(251,168,cs),
(298,169,o),
(324,200,o),
(347,230,cs),
(369,258,o),
(388,246,o),
(398,246,cs),
(408,246,o),
(418,265,o),
(418,282,cs),
(418,294,o),
(387,317,o),
(332,358,cs)
);
}
);
width = 800;
}
);
unicode = 65296;
},
{
glyphname = one.full;
lastChange = "2023-12-28 05:15:55 +0000";
layers = (
{
backgroundImage = {
imagePath = "images/１.png";
locked = 1;
pos = (125,-200);
};
layerId = m01;
shapes = (
{
closed = 1;
nodes = (
(421,602,o),
(428,562,o),
(424,553,cs),
(417,539,o),
(382,532,o),
(368,474,cs),
(353,410,o),
(381,380,o),
(381,265,cs),
(381,171,o),
(366,45,o),
(278,-59,c),
(288,-71,l),
(421,45,o),
(415,210,o),
(415,282,cs),
(415,365,o),
(400,400,o),
(408,434,cs),
(417,474,o),
(440,500,o),
(461,499,cs),
(482,498,o),
(505,490,o),
(514,490,cs),
(523,490,o),
(539,505,o),
(539,513,cs),
(539,538,o),
(515,560,o),
(495,568,cs),
(475,576,o),
(452,583,o),
(431,596,cs)
);
}
);
width = 800;
}
);
unicode = 65297;
},
{
glyphname = two.full;
lastChange = "2023-12-28 05:18:04 +0000";
layers = (
{
backgroundImage = {
imagePath = "images/２.png";
pos = (126,-122);
};
layerId = m01;
shapes = (
{
closed = 1;
nodes = (
(489,399,o),
(493,372,o),
(499,352,cs),
(505,333,o),
(427,291,o),
(399,279,c),
(407,262,l),
(451,277,o),
(493,296,o),
(505,302,cs),
(522,311,o),
(547,309,o),
(554,309,cs),
(561,309,o),
(575,323,o),
(575,332,cs),
(575,337,o),
(541,380,o),
(498,396,cs)
);
},
{
alignment = 1;
ref = one.full;
}
);
width = 800;
}
);
unicode = 65298;
},
{
glyphname = three.full;
lastChange = "2023-12-28 05:18:15 +0000";
layers = (
{
backgroundImage = {
imagePath = "images/３.png";
pos = (122,-173);
};
layerId = m01;
shapes = (
{
closed = 1;
nodes = (
(471,422,o),
(475,395,o),
(481,375,cs),
(487,356,o),
(409,314,o),
(381,302,c),
(389,285,l),
(433,300,o),
(475,319,o),
(487,325,cs),
(504,334,o),
(529,332,o),
(536,332,cs),
(543,332,o),
(557,346,o),
(557,355,cs),
(557,360,o),
(523,403,o),
(480,419,cs)
);
},
{
closed = 1;
nodes = (
(481,310,o),
(485,283,o),
(491,263,cs),
(497,244,o),
(419,215,o),
(391,203,c),
(395,182,l),
(439,192,o),
(480,207,o),
(492,213,cs),
(509,222,o),
(539,220,o),
(546,220,cs),
(553,220,o),
(567,234,o),
(567,243,cs),
(567,248,o),
(533,291,o),
(490,307,cs)
);
},
{
alignment = 1;
ref = one.full;
}
);
width = 800;
}
);
unicode = 65299;
},
{
glyphname = four.full;
lastChange = "2023-12-28 05:16:10 +0000";
layers = (
{
backgroundImage = {
imagePath = "images/４.png";
pos = (80,-200);
};
layerId = m01;
shapes = (
{
closed = 1;
nodes = (
(272,444,o),
(269,422,o),
(269,414,cs),
(269,388,o),
(316,349,o),
(324,349,cs),
(343,349,o),
(355,361,o),
(355,369,cs),
(355,377,o),
(331,388,o),
(338,406,cs),
(343,419,o),
(373,474,o),
(405,474,cs),
(439,474,o),
(451,435,o),
(445,364,cs),
(438,279,o),
(462,243,o),
(490,207,cs),
(503,191,o),
(499,186,o),
(481,184,cs),
(445,180,o),
(355,139,o),
(319,93,c),
(333,81,l),
(373,128,o),
(459,148,o),
(505,148,cs),
(530,148,o),
(558,144,o),
(565,139,cs),
(578,130,o),
(599,123,o),
(609,123,cs),
(618,124,o),
(638,144,o),
(638,154,cs),
(638,164,o),
(596,170,o),
(562,191,cs),
(521,216,o),
(465,261,o),
(471,349,cs),
(478,447,o),
(460,497,o),
(396,497,cs),
(350,497,o),
(317,457,o),
(307,440,cs),
(297,423,o),
(283,423,o),
(276,436,cs)
);
}
);
width = 800;
}
);
unicode = 65300;
},
{
glyphname = five.full;
lastChange = "2023-12-28 05:16:17 +0000";
layers = (
{
backgroundImage = {
imagePath = "images/５.png";
pos = (91,-200);
};
layerId = m01;
shapes = (
{
closed = 1;
nodes = (
(279,482,o),
(274,466,o),
(274,456,cs),
(274,444,o),
(316,405,o),
(326,405,cs),
(343,405,o),
(363,442,o),
(419,478,cs),
(436,489,o),
(440,468,o),
(439,421,cs),
(438,352,o),
(435,332,o),
(436,294,cs),
(438,204,o),
(514,98,o),
(640,70,c),
(645,83,l),
(543,120,o),
(462,218,o),
(462,297,cs),
(461,372,o),
(465,412,o),
(474,456,cs),
(476,466,o),
(486,477,o),
(492,477,cs),
(498,477,o),
(502,490,o),
(502,493,cs),
(502,501,o),
(473,536,o),
(462,536,cs),
(451,536,o),
(430,515,o),
(424,508,cs),
(418,501,o),
(351,461,o),
(332,456,cs),
(313,451,o),
(297,460,o),
(283,477,cs)
);
},
{
closed = 1;
nodes = (
(403,361,o),
(397,349,o),
(400,339,cs),
(403,329,o),
(406,324,o),
(385,305,cs),
(313,237,o),
(252,151,o),
(252,120,cs),
(252,81,o),
(274,67,o),
(287,67,cs),
(302,67,o),
(314,90,o),
(325,101,cs),
(337,114,o),
(361,134,o),
(374,153,c),
(368,162,l),
(347,147,o),
(323,130,o),
(314,133,cs),
(303,137,o),
(293,157,o),
(317,187,cs),
(418,315,o),
(440,285,o),
(463,285,cs),
(475,285,o),
(486,286,o),
(486,294,cs),
(486,302,o),
(442,335,o),
(411,356,cs)
);
}
);
width = 800;
}
);
unicode = 65301;
},
{
glyphname = six.full;
lastChange = "2023-12-28 05:16:21 +0000";
layers = (
{
backgroundImage = {
imagePath = "images/６.png";
locked = 1;
pos = (56,-200);
};
layerId = m01;
shapes = (
{
closed = 1;
nodes = (
(402,543,l),
(409,534,o),
(430,521,o),
(424,515,cs),
(418,509,o),
(382,490,o),
(355,452,cs),
(328,414,o),
(357,335,o),
(336,249,cs),
(326,207,o),
(303,179,o),
(290,170,cs),
(277,161,o),
(262,158,o),
(253,158,cs),
(244,158,o),
(239,121,o),
(239,107,cs),
(239,98,o),
(261,84,o),
(268,84,cs),
(286,84,o),
(306,148,o),
(330,148,cs),
(356,148,o),
(384,128,o),
(409,108,cs),
(434,88,o),
(456,69,o),
(488,69,cs),
(527,69,o),
(589,114,o),
(622,141,c),
(616,155,l),
(576,137,o),
(550,127,o),
(509,127,cs),
(426,127,o),
(386,167,o),
(346,169,cs),
(326,170,o),
(323,178,o),
(335,201,cs),
(360,247,o),
(369,292,o),
(369,345,cs),
(369,397,o),
(361,426,o),
(395,452,cs),
(419,471,o),
(438,466,o),
(451,453,cs),
(464,440,o),
(476,434,o),
(484,434,cs),
(492,434,o),
(508,450,o),
(508,462,cs),
(508,470,o),
(451,532,o),
(415,553,c)
);
}
);
width = 800;
}
);
unicode = 65302;
},
{
glyphname = seven.full;
lastChange = "2023-12-28 05:16:33 +0000";
layers = (
{
backgroundImage = {
imagePath = "images/７.png";
pos = (45,-200);
};
layerId = m01;
shapes = (
{
closed = 1;
nodes = (
(234,529,o),
(230,512,o),
(230,500,cs),
(230,488,o),
(268,439,o),
(273,439,cs),
(280,439,o),
(296,472,o),
(335,505,cs),
(372,537,o),
(387,556,o),
(387,504,cs),
(387,444,o),
(388,273,o),
(385,200,cs),
(383,143,o),
(378,126,o),
(364,146,cs),
(349,167,o),
(356,183,o),
(409,222,cs),
(462,261,o),
(493,267,o),
(510,256,cs),
(544,234,o),
(494,179,o),
(471,157,cs),
(448,135,o),
(435,129,o),
(435,112,cs),
(435,86,o),
(523,37,o),
(535,37,cs),
(555,37,o),
(571,43,o),
(571,59,cs),
(571,67,o),
(559,77,o),
(535,86,cs),
(487,103,o),
(467,99,o),
(496,124,cs),
(572,189,o),
(568,245,o),
(543,267,cs),
(516,290,o),
(472,292,o),
(412,248,cs),
(352,204,o),
(328,179,o),
(328,143,cs),
(328,126,o),
(369,47,o),
(385,47,cs),
(403,47,o),
(428,55,o),
(428,76,cs),
(428,97,o),
(418,109,o),
(418,204,cs),
(418,263,o),
(417,447,o),
(419,482,cs),
(421,520,o),
(429,515,o),
(436,515,cs),
(447,515,o),
(455,525,o),
(455,534,cs),
(455,543,o),
(399,579,o),
(390,579,cs),
(373,579,o),
(378,566,o),
(364,554,cs),
(339,531,o),
(295,499,o),
(280,499,cs),
(268,499,o),
(253,505,o),
(240,522,cs)
);
}
);
width = 800;
}
);
unicode = 65303;
},
{
glyphname = eight.full;
lastChange = "2023-12-28 05:18:57 +0000";
layers = (
{
backgroundImage = {
imagePath = "images/８.png";
pos = (46,-62);
};
layerId = m01;
shapes = (
{
closed = 1;
nodes = (
(261,381,o),
(256,367,o),
(256,353,cs),
(256,344,o),
(298,303,o),
(309,303,cs),
(316,303,o),
(318,318,o),
(332,335,cs),
(349,356,o),
(358,370,o),
(374,385,c),
(364,397,l),
(342,377,o),
(311,353,o),
(302,353,cs),
(288,353,o),
(279,356,o),
(267,373,cs)
);
},
{
alignment = 1;
ref = seven.full;
}
);
width = 800;
}
);
unicode = 65304;
},
{
glyphname = nine.full;
lastChange = "2023-12-28 05:19:21 +0000";
layers = (
{
backgroundImage = {
imagePath = "images/９.png";
pos = (45,-113);
};
layerId = m01;
shapes = (
{
closed = 1;
nodes = (
(251,423,o),
(246,409,o),
(246,395,cs),
(246,386,o),
(288,345,o),
(299,345,cs),
(306,345,o),
(308,360,o),
(322,377,cs),
(339,398,o),
(348,412,o),
(364,427,c),
(354,439,l),
(332,419,o),
(301,395,o),
(292,395,cs),
(278,395,o),
(269,398,o),
(257,415,cs)
);
},
{
closed = 1;
nodes = (
(250,330,o),
(245,316,o),
(245,302,cs),
(245,293,o),
(287,252,o),
(298,252,cs),
(305,252,o),
(307,267,o),
(321,284,cs),
(338,305,o),
(355,323,o),
(371,338,c),
(361,350,l),
(339,330,o),
(300,302,o),
(291,302,cs),
(277,302,o),
(268,305,o),
(256,322,cs)
);
},
{
alignment = 1;
ref = seven.full;
}
);
width = 800;
}
);
unicode = 65305;
},
{
glyphname = "comma-han";
lastChange = "2023-12-28 05:12:21 +0000";
layers = (
{
backgroundImage = {
imagePath = "images/、.png";
locked = 1;
pos = (-100,-200);
};
layerId = m01;
shapes = (
{
closed = 1;
nodes = (
(229,208,o),
(224,184,o),
(224,175,cs),
(224,160,o),
(263,127,o),
(281,106,cs),
(295,90,o),
(234,28,o),
(220,18,c),
(229,5,l),
(259,20,o),
(283,48,o),
(298,48,cs),
(310,48,o),
(336,21,o),
(349,21,cs),
(356,21,o),
(379,39,o),
(379,47,cs),
(379,77,o),
(334,105,o),
(307,120,cs),
(286,132,o),
(250,171,o),
(236,195,cs)
);
}
);
width = 800;
}
);
unicode = 12289;
},
{
glyphname = "period-han";
lastChange = "2023-12-28 05:12:09 +0000";
layers = (
{
backgroundImage = {
imagePath = "images/。.png";
locked = 1;
pos = (-100,-200);
};
layerId = m01;
shapes = (
{
closed = 1;
nodes = (
(277,185,o),
(217,141,o),
(217,93,cs),
(217,45,o),
(274,16,o),
(301,16,cs),
(344,16,o),
(404,32,o),
(404,96,cs),
(404,153,o),
(365,185,o),
(327,185,cs)
);
},
{
closed = 1;
nodes = (
(288,97,o),
(264,84,o),
(264,111,cs),
(264,140,o),
(297,156,o),
(321,156,cs),
(350,156,o),
(370,125,o),
(370,99,cs),
(370,79,o),
(347,58,o),
(340,52,cs),
(333,46,o),
(321,45,o),
(325,54,cs),
(329,63,o),
(333,83,o),
(311,90,cs)
);
}
);
width = 800;
}
);
unicode = 12290;
},
{
glyphname = "dot-kata";
lastChange = "2023-12-28 05:30:53 +0000";
layers = (
{
layerId = m01;
shapes = (
{
closed = 1;
nodes = (
(331,396,o),
(299,323,o),
(341,295,cs),
(368,277,o),
(357,268,o),
(357,254,c),
(373,245,l),
(395,245,o),
(424,264,o),
(438,264,cs),
(452,264,o),
(476,279,o),
(476,311,cs),
(476,348,o),
(454,386,o),
(433,391,cs),
(393,401,o),
(360,373,o),
(338,391,cs)
);
}
);
width = 800;
}
);
unicode = 12539;
},
{
glyphname = exclam.full;
lastChange = "2023-12-28 05:11:35 +0000";
layers = (
{
backgroundImage = {
imagePath = "images/！.png";
locked = 1;
pos = (-100,-200);
};
layerId = m01;
shapes = (
{
closed = 1;
nodes = (
(294,457,o),
(287,435,o),
(287,429,cs),
(287,414,o),
(312,393,o),
(318,393,cs),
(333,393,o),
(357,430,o),
(383,451,cs),
(392,458,o),
(398,454,o),
(398,425,cs),
(398,385,o),
(398,281,o),
(395,230,cs),
(394,220,o),
(380,218,o),
(373,211,cs),
(363,202,o),
(414,121,o),
(432,121,cs),
(441,121,o),
(459,128,o),
(459,138,cs),
(459,148,o),
(435,178,o),
(444,200,cs),
(453,222,o),
(529,293,o),
(549,321,c),
(541,334,l),
(519,316,o),
(453,260,o),
(441,252,cs),
(433,246,o),
(428,251,o),
(426,272,cs),
(424,299,o),
(425,413,o),
(432,429,cs),
(441,448,o),
(470,443,o),
(470,457,cs),
(470,463,o),
(427,495,o),
(407,495,cs),
(389,495,o),
(335,440,o),
(326,436,cs),
(317,432,o),
(307,438,o),
(298,451,cs)
);
},
{
closed = 1;
nodes = (
(367,102,o),
(357,84,o),
(383,52,cs),
(395,38,o),
(391,15,o),
(377,0,c),
(389,-12,l),
(407,-3,o),
(430,22,o),
(441,22,cs),
(452,22,o),
(471,27,o),
(471,45,cs),
(471,54,o),
(459,70,o),
(443,74,cs),
(411,82,o),
(384,82,o),
(371,97,cs)
);
}
);
width = 800;
}
);
unicode = 65281;
},
{
glyphname = question.full;
lastChange = "2023-12-28 05:11:22 +0000";
layers = (
{
backgroundImage = {
imagePath = "images/？.png";
locked = 1;
pos = (-100,-200);
};
layerId = m01;
shapes = (
{
closed = 1;
nodes = (
(351,100,o),
(341,82,o),
(367,50,cs),
(379,36,o),
(375,13,o),
(361,-2,c),
(373,-14,l),
(391,-5,o),
(414,20,o),
(425,20,cs),
(436,20,o),
(455,25,o),
(455,43,cs),
(455,52,o),
(443,68,o),
(427,72,cs),
(395,80,o),
(368,80,o),
(355,95,cs)
);
},
{
closed = 1;
nodes = (
(310,449,o),
(349,386,o),
(372,386,cs),
(382,386,o),
(397,391,o),
(393,402,cs),
(384,424,o),
(389,452,o),
(414,452,cs),
(436,452,o),
(471,433,o),
(455,398,cs),
(432,347,o),
(341,296,o),
(314,254,cs),
(272,189,o),
(380,110,o),
(414,110,cs),
(436,110,o),
(456,115,o),
(456,131,cs),
(456,147,o),
(454,167,o),
(462,180,cs),
(478,206,o),
(542,264,o),
(555,279,c),
(545,291,l),
(500,254,o),
(443,206,o),
(403,191,cs),
(382,183,o),
(346,216,o),
(368,242,cs),
(411,292,o),
(470,328,o),
(488,388,cs),
(504,439,o),
(460,483,o),
(409,483,cs),
(371,483,o),
(358,448,o),
(321,449,cs)
);
}
);
width = 800;
}
);
unicode = 65311;
},
{
glyphname = "voicedcomb-kana";
lastChange = "2023-12-28 05:13:04 +0000";
layers = (
{
layerId = m01;
shapes = (
{
closed = 1;
nodes = (
(494,587,o),
(473,565,o),
(484,538,cs),
(493,517,o),
(503,503,o),
(517,501,cs),
(529,499,o),
(538,517,o),
(545,532,cs),
(550,544,o),
(575,561,o),
(588,554,cs),
(625,534,o),
(588,503,o),
(563,499,c),
(569,484,l),
(603,481,o),
(637,494,o),
(642,513,cs),
(648,535,o),
(607,579,o),
(590,576,cs),
(554,569,o),
(542,554,o),
(533,554,cs),
(523,554,o),
(504,559,o),
(498,576,cs)
);
}
);
width = 800;
}
);
unicode = 12441;
},
{
glyphname = "semivoicedcomb-kana";
lastChange = "2023-12-28 05:12:44 +0000";
layers = (
{
layerId = m01;
shapes = (
{
closed = 1;
nodes = (
(514,519,o),
(510,530,o),
(514,542,cs),
(521,561,o),
(541,573,o),
(564,567,cs),
(609,555,o),
(598,495,o),
(537,485,c),
(541,472,l),
(575,458,o),
(630,489,o),
(636,517,cs),
(644,555,o),
(614,591,o),
(571,594,cs),
(537,596,o),
(489,582,o),
(477,539,cs),
(469,512,o),
(499,486,o),
(524,486,cs),
(535,486,o),
(545,492,o),
(545,498,cs),
(545,513,o),
(537,525,o),
(533,524,cs)
);
}
);
width = 800;
}
);
unicode = 12442;
},
{
glyphname = "prolonged-kana";
lastChange = "2023-12-28 05:10:24 +0000";
layers = (
{
backgroundImage = {
imagePath = "images/ー-126.png";
locked = 1;
pos = (122,-160);
};
layerId = m01;
shapes = (
{
closed = 1;
nodes = (
(366,674,o),
(363,659,o),
(363,649,cs),
(363,628,o),
(308,576,o),
(308,509,cs),
(308,435,o),
(352,433,o),
(375,418,cs),
(387,410,o),
(392,376,o),
(393,325,cs),
(394,274,o),
(397,161,o),
(389,37,cs),
(388,18,o),
(377,26,o),
(372,19,cs),
(355,-8,o),
(391,-51,o),
(403,-51,cs),
(414,-51,o),
(433,-37,o),
(433,-29,cs),
(433,-16,o),
(417,-10,o),
(417,30,cs),
(416,160,o),
(415,325,o),
(417,370,cs),
(419,406,o),
(438,405,o),
(438,413,cs),
(438,421,o),
(429,442,o),
(420,442,cs),
(380,440,o),
(331,436,o),
(331,512,cs),
(331,558,o),
(370,606,o),
(402,602,cs),
(411,601,o),
(426,610,o),
(426,616,cs),
(426,619,o),
(424,630,o),
(417,637,cs),
(408,646,o),
(391,658,o),
(372,670,cs)
);
}
